<svg viewBox="0 0 330 200" xmlns="http://www.w3.org/2000/svg"><g><g><g><g><g><line x1="29.4375" y1="177" x2="24.4375" y2="177" style="visibility: inherit;" fill="rgb(0, 0, 0)" stroke="rgb(204, 204, 204)" stroke-width="1px"></line><line x1="29.4375" y1="162.25" x2="24.4375" y2="162.25" style="visibility: inherit;" fill="rgb(0, 0, 0)" stroke="rgb(204, 204, 204)" stroke-width="1px"></line><line x1="29.4375" y1="147.5" x2="24.4375" y2="147.5" style="visibility: inherit;" fill="rgb(0, 0, 0)" stroke="rgb(204, 204, 204)" stroke-width="1px"></line><line x1="29.4375" y1="132.75" x2="24.4375" y2="132.75" style="visibility: inherit;" fill="rgb(0, 0, 0)" stroke="rgb(204, 204, 204)" stroke-width="1px"></line><line x1="29.4375" y1="118" x2="24.4375" y2="118" style="visibility: inherit;" fill="rgb(0, 0, 0)" stroke="rgb(204, 204, 204)" stroke-width="1px"></line><line x1="29.4375" y1="103.25" x2="24.4375" y2="103.25" style="visibility: inherit;" fill="rgb(0, 0, 0)" stroke="rgb(204, 204, 204)" stroke-width="1px"></line><line x1="29.4375" y1="88.5" x2="24.4375" y2="88.5" style="visibility: inherit;" fill="rgb(0, 0, 0)" stroke="rgb(204, 204, 204)" stroke-width="1px"></line><line x1="29.4375" y1="73.75" x2="24.4375" y2="73.75" style="visibility: inherit;" fill="rgb(0, 0, 0)" stroke="rgb(204, 204, 204)" stroke-width="1px"></line><line x1="29.4375" y1="59" x2="24.4375" y2="59" style="visibility: inherit;" fill="rgb(0, 0, 0)" stroke="rgb(204, 204, 204)" stroke-width="1px"></line><line x1="29.4375" y1="44.25" x2="24.4375" y2="44.25" style="visibility: inherit;" fill="rgb(0, 0, 0)" stroke="rgb(204, 204, 204)" stroke-width="1px"></line><line x1="29.4375" y1="29.5" x2="24.4375" y2="29.5" style="visibility: inherit;" fill="rgb(0, 0, 0)" stroke="rgb(204, 204, 204)" stroke-width="1px"></line><line x1="29.4375" y1="14.75" x2="24.4375" y2="14.75" style="visibility: inherit;" fill="rgb(0, 0, 0)" stroke="rgb(204, 204, 204)" stroke-width="1px"></line><line x1="29.4375" y1="0" x2="24.4375" y2="0" style="visibility: inherit;" fill="rgb(0, 0, 0)" stroke="rgb(204, 204, 204)" stroke-width="1px"></line></g><g transform="translate(19.4375, 0)"><text x="0" y="177" dx="0em" dy="0.3em" style="text-anchor: end; visibility: hidden; font-family: &quot;Helvetica Neue&quot;, sans-serif; font-size: 12px; font-weight: 200;" fill="rgb(50, 49, 63)" stroke="none" stroke-width="1px">14</text><text x="0" y="162.25" dx="0em" dy="0.3em" style="text-anchor: end; visibility: inherit; font-family: &quot;Helvetica Neue&quot;, sans-serif; font-size: 12px; font-weight: 200;" fill="rgb(50, 49, 63)" stroke="none" stroke-width="1px">16</text><text x="0" y="147.5" dx="0em" dy="0.3em" style="text-anchor: end; visibility: hidden; font-family: &quot;Helvetica Neue&quot;, sans-serif; font-size: 12px; font-weight: 200;" fill="rgb(50, 49, 63)" stroke="none" stroke-width="1px">18</text><text x="0" y="132.75" dx="0em" dy="0.3em" style="text-anchor: end; visibility: inherit; font-family: &quot;Helvetica Neue&quot;, sans-serif; font-size: 12px; font-weight: 200;" fill="rgb(50, 49, 63)" stroke="none" stroke-width="1px">20</text><text x="0" y="118" dx="0em" dy="0.3em" style="text-anchor: end; visibility: hidden; font-family: &quot;Helvetica Neue&quot;, sans-serif; font-size: 12px; font-weight: 200;" fill="rgb(50, 49, 63)" stroke="none" stroke-width="1px">22</text><text x="0" y="103.25" dx="0em" dy="0.3em" style="text-anchor: end; visibility: inherit; font-family: &quot;Helvetica Neue&quot;, sans-serif; font-size: 12px; font-weight: 200;" fill="rgb(50, 49, 63)" stroke="none" stroke-width="1px">24</text><text x="0" y="88.5" dx="0em" dy="0.3em" style="text-anchor: end; visibility: hidden; font-family: &quot;Helvetica Neue&quot;, sans-serif; font-size: 12px; font-weight: 200;" fill="rgb(50, 49, 63)" stroke="none" stroke-width="1px">26</text><text x="0" y="73.75" dx="0em" dy="0.3em" style="text-anchor: end; visibility: inherit; font-family: &quot;Helvetica Neue&quot;, sans-serif; font-size: 12px; font-weight: 200;" fill="rgb(50, 49, 63)" stroke="none" stroke-width="1px">28</text><text x="0" y="59" dx="0em" dy="0.3em" style="text-anchor: end; visibility: hidden; font-family: &quot;Helvetica Neue&quot;, sans-serif; font-size: 12px; font-weight: 200;" fill="rgb(50, 49, 63)" stroke="none" stroke-width="1px">30</text><text x="0" y="44.25" dx="0em" dy="0.3em" style="text-anchor: end; visibility: inherit; font-family: &quot;Helvetica Neue&quot;, sans-serif; font-size: 12px; font-weight: 200;" fill="rgb(50, 49, 63)" stroke="none" stroke-width="1px">32</text><text x="0" y="29.5" dx="0em" dy="0.3em" style="text-anchor: end; visibility: hidden; font-family: &quot;Helvetica Neue&quot;, sans-serif; font-size: 12px; font-weight: 200;" fill="rgb(50, 49, 63)" stroke="none" stroke-width="1px">34</text><text x="0" y="14.75" dx="0em" dy="0.3em" style="text-anchor: end; visibility: inherit; font-family: &quot;Helvetica Neue&quot;, sans-serif; font-size: 12px; font-weight: 200;" fill="rgb(50, 49, 63)" stroke="none" stroke-width="1px">36</text><text x="0" y="0" dx="0em" dy="0.3em" style="text-anchor: end; visibility: hidden; font-family: &quot;Helvetica Neue&quot;, sans-serif; font-size: 12px; font-weight: 200;" fill="rgb(50, 49, 63)" stroke="none" stroke-width="1px">38</text></g><line x1="29.4375" y1="0" x2="29.4375" y2="177" fill="rgb(0, 0, 0)" stroke="rgb(204, 204, 204)" stroke-width="1px"></line></g></g><g transform="translate(29, 0)" clip-path="url(#clip_0)"><clipPath id="clip_0"><rect width="300" height="177"></rect></clipPath><g><g><g><line x1="0" y1="0" x2="0" y2="177" fill="rgb(0, 0, 0)" stroke="rgb(60, 60, 60)" stroke-width="1px" opacity="0.25"></line><line x1="42.9375" y1="0" x2="42.9375" y2="177" fill="rgb(0, 0, 0)" stroke="rgb(60, 60, 60)" stroke-width="1px" opacity="0.25"></line><line x1="85.875" y1="0" x2="85.875" y2="177" fill="rgb(0, 0, 0)" stroke="rgb(60, 60, 60)" stroke-width="1px" opacity="0.25"></line><line x1="128.8125" y1="0" x2="128.8125" y2="177" fill="rgb(0, 0, 0)" stroke="rgb(60, 60, 60)" stroke-width="1px" opacity="0.25"></line><line x1="171.75" y1="0" x2="171.75" y2="177" fill="rgb(0, 0, 0)" stroke="rgb(60, 60, 60)" stroke-width="1px" opacity="0.25"></line><line x1="214.6875" y1="0" x2="214.6875" y2="177" fill="rgb(0, 0, 0)" stroke="rgb(60, 60, 60)" stroke-width="1px" opacity="0.25"></line><line x1="257.625" y1="0" x2="257.625" y2="177" fill="rgb(0, 0, 0)" stroke="rgb(60, 60, 60)" stroke-width="1px" opacity="0.25"></line><line x1="300.5625" y1="0" x2="300.5625" y2="177" fill="rgb(0, 0, 0)" stroke="rgb(60, 60, 60)" stroke-width="1px" opacity="0.25"></line></g><g><line x1="0" y1="177" x2="300.5625" y2="177" fill="rgb(0, 0, 0)" stroke="rgb(60, 60, 60)" stroke-width="1px" opacity="0.25"></line><line x1="0" y1="162.25" x2="300.5625" y2="162.25" fill="rgb(0, 0, 0)" stroke="rgb(60, 60, 60)" stroke-width="1px" opacity="0.25"></line><line x1="0" y1="147.5" x2="300.5625" y2="147.5" fill="rgb(0, 0, 0)" stroke="rgb(60, 60, 60)" stroke-width="1px" opacity="0.25"></line><line x1="0" y1="132.75" x2="300.5625" y2="132.75" fill="rgb(0, 0, 0)" stroke="rgb(60, 60, 60)" stroke-width="1px" opacity="0.25"></line><line x1="0" y1="118" x2="300.5625" y2="118" fill="rgb(0, 0, 0)" stroke="rgb(60, 60, 60)" stroke-width="1px" opacity="0.25"></line><line x1="0" y1="103.25" x2="300.5625" y2="103.25" fill="rgb(0, 0, 0)" stroke="rgb(60, 60, 60)" stroke-width="1px" opacity="0.25"></line><line x1="0" y1="88.5" x2="300.5625" y2="88.5" fill="rgb(0, 0, 0)" stroke="rgb(60, 60, 60)" stroke-width="1px" opacity="0.25"></line><line x1="0" y1="73.75" x2="300.5625" y2="73.75" fill="rgb(0, 0, 0)" stroke="rgb(60, 60, 60)" stroke-width="1px" opacity="0.25"></line><line x1="0" y1="59" x2="300.5625" y2="59" fill="rgb(0, 0, 0)" stroke="rgb(60, 60, 60)" stroke-width="1px" opacity="0.25"></line><line x1="0" y1="44.25" x2="300.5625" y2="44.25" fill="rgb(0, 0, 0)" stroke="rgb(60, 60, 60)" stroke-width="1px" opacity="0.25"></line><line x1="0" y1="29.5" x2="300.5625" y2="29.5" fill="rgb(0, 0, 0)" stroke="rgb(60, 60, 60)" stroke-width="1px" opacity="0.25"></line><line x1="0" y1="14.75" x2="300.5625" y2="14.75" fill="rgb(0, 0, 0)" stroke="rgb(60, 60, 60)" stroke-width="1px" opacity="0.25"></line><line x1="0" y1="0" x2="300.5625" y2="0" fill="rgb(0, 0, 0)" stroke="rgb(60, 60, 60)" stroke-width="1px" opacity="0.25"></line></g></g></g><g><g><line x1="0" y1="280.25" x2="300.5625" y2="280.25" fill="rgb(0, 0, 0)" stroke="rgb(153, 153, 153)" stroke-width="1.5px"></line></g></g><g><g><line x1="42.9375" y1="0" x2="42.9375" y2="177" fill="rgb(0, 0, 0)" stroke="rgb(153, 153, 153)" stroke-width="1.5px"></line></g></g><g><g><g><g><g><path stroke="rgb(204, 51, 17)" stroke-width="2px" d="M42.9375,46.22109580039978L51.525,105.05092042684555L60.112500000000004,125.27887078207367L68.7,134.63285407073357L77.2875,139.50117249144688L85.875,142.19088062519162L94.46249999999999,143.72767012468236L103.05,144.62317692564915L111.6375,145.15114322875579L120.22500000000001,145.4646102756509L128.8125,145.6515069039613L137.4,145.76322125666883L145.9875,145.83009966498489L154.575,145.87017076351322L163.1625,145.89419331629242L171.75,145.9085996170921L180.3375,145.91724079605905L188.92499999999998,145.9224245672399L197.5125,145.92553449299118L206.1,145.9274003271534L214.6875,145.9285197839904L223.275,145.92919144237555L231.8625,145.92960005847166L240.45000000000002,145.92984522606406L249.03750000000002,145.92998669918148L257.625,145.9300715827946L266.2125,145.93012813955394L274.8,145.9301564468906L283.3875,145.93017905796202L291.975,145.93019262459956" style="fill: none;" fill="none"></path></g><g><path stroke="rgb(0, 119, 187)" stroke-width="2px" d="M42.9375,38.24447727203369L51.525,63.467144876718535L60.112500000000004,75.17365127680252L68.7,81.84359101951122L77.2875,85.74857834128355L85.875,88.0722974758399L94.46249999999999,89.47659214593652L103.05,90.33537927018398L111.6375,90.86468707038705L120.22500000000001,91.1923949666693L128.8125,91.39575459290836L137.4,91.5220451562512L145.9875,91.60046597613461L154.575,91.64913656219086L163.1625,91.67932214177851L171.75,91.69802099979565L180.3375,91.70958585106051L188.92499999999998,91.71673734436354L197.5125,91.7211628239941L206.1,91.72388546178708L214.6875,91.72556399516857L223.275,91.72659359864124L231.8625,91.72723385894324L240.45000000000002,91.72762926529859L249.03750000000002,91.72786650791272L257.625,91.72801447973761L266.2125,91.72810326267096L274.8,91.72816215905473L283.3875,91.72819187018133L291.975,91.72820969685029" style="fill: none;" fill="none"></path></g><g><path stroke="rgb(255, 112, 67)" stroke-width="2px" d="M60.112500000000004,-12.129655263861792L68.7,11.353633549283558L77.2875,23.334737900807397L85.875,29.898034524776733L94.46249999999999,33.63438935442977L103.05,35.80811853273778L111.6375,37.08874019913509L120.22500000000001,37.848814615830804L128.8125,38.301907193033884L137.4,38.572697130219865L145.9875,38.734804618766844L154.575,38.8319222403199L163.1625,38.89015534152617L171.75,38.92506641736128L180.3375,38.946018013826574L188.92499999999998,38.95858670177577L197.5125,38.96612709755121L206.1,38.97065104093761L214.6875,38.97336530110954L223.275,38.974993819104924L231.8625,38.97597091618374L240.45000000000002,38.97654591608233L249.03750000000002,38.976902167666566L257.625,38.977115917968916L266.2125,38.97724416791701L274.8,38.977321117801864L283.3875,38.97736728770252L291.975,38.97739498963202" style="fill: none;" fill="none"></path></g></g></g></g><g opacity="0.2"><g><g><g><path stroke="rgb(204, 51, 17)" stroke-width="2px" d="M42.9375,46.22109580039978L51.525,140.348815202713L60.112500000000004,144.69770312309265L68.7,145.63313841819763L77.2875,145.85724902153015L85.875,145.91171526908875L94.46249999999999,145.92530369758606L103.05,145.92883443832397L111.6375,145.92979097366333L120.22500000000001,145.93007230758667L128.8125,145.93015670776367L137.4,145.930184841156L145.9875,145.93019890785217L154.575,145.93019890785217L163.1625,145.93019890785217L171.75,145.93019890785217L180.3375,145.93019890785217L188.92499999999998,145.93019890785217L197.5125,145.93019890785217L206.1,145.93019890785217L214.6875,145.93019890785217L223.275,145.93019890785217L231.8625,145.93021297454834L240.45000000000002,145.93021297454834L249.03750000000002,145.93019890785217L257.625,145.93019890785217L266.2125,145.93021297454834L274.8,145.93019890785217L283.3875,145.93021297454834L291.975,145.93021297454834" style="fill: none;" fill="none"></path></g><g><path stroke="rgb(0, 119, 187)" stroke-width="2px" d="M42.9375,38.24447727203369L51.525,78.60074543952942L60.112500000000004,86.41189742088318L68.7,89.68744015693665L77.2875,90.84692978858948L85.875,91.28683757781982L94.46249999999999,91.4847559928894L103.05,91.58749914169312L111.6375,91.64531326293945L120.22500000000001,91.6790030002594L128.8125,91.6989495754242L137.4,91.7107937335968L145.9875,91.71784114837646L154.575,91.7220470905304L163.1625,91.72456502914429L171.75,91.72605609893799L180.3375,91.72692823410034L188.92499999999998,91.72746276855469L197.5125,91.7278003692627L206.1,91.7279691696167L214.6875,91.72808170318604L223.275,91.7281379699707L231.8625,91.72819423675537L240.45000000000002,91.7282223701477L249.03750000000002,91.7282223701477L257.625,91.72823643684387L266.2125,91.72823643684387L274.8,91.72825050354004L283.3875,91.72823643684387L291.975,91.72823643684387" style="fill: none;" fill="none"></path></g><g><path stroke="rgb(255, 112, 67)" stroke-width="2px" d="M42.9375,-208.42916297912598L51.525,21.088059425354004L60.112500000000004,38.60753870010376L68.7,38.96998119354248L77.2875,38.97726774215698L85.875,38.977436542510986L94.46249999999999,38.977436542510986L103.05,38.977436542510986L111.6375,38.97740840911865L120.22500000000001,38.977436542510986L128.8125,38.977436542510986L137.4,38.97740840911865L145.9875,38.977436542510986L154.575,38.97740840911865L163.1625,38.977436542510986L171.75,38.97740840911865L180.3375,38.977436542510986L188.92499999999998,38.977436542510986L197.5125,38.977436542510986L206.1,38.977436542510986L214.6875,38.977436542510986L223.275,38.977436542510986L231.8625,38.977436542510986L240.45000000000002,38.97740840911865L249.03750000000002,38.977436542510986L257.625,38.977436542510986L266.2125,38.977436542510986L274.8,38.977436542510986L283.3875,38.977436542510986L291.975,38.977436542510986" style="fill: none;" fill="none"></path></g></g></g></g></g></g><g transform="translate(29, 177)" clip-path="url(#clip_1)"><clipPath id="clip_1"><rect width="300" height="23"></rect></clipPath><g><g><line x1="0" y1="0" x2="0" y2="5" style="visibility: inherit;" fill="rgb(0, 0, 0)" stroke="rgb(204, 204, 204)" stroke-width="1px"></line><line x1="42.9375" y1="0" x2="42.9375" y2="5" style="visibility: inherit;" fill="rgb(0, 0, 0)" stroke="rgb(204, 204, 204)" stroke-width="1px"></line><line x1="85.875" y1="0" x2="85.875" y2="5" style="visibility: inherit;" fill="rgb(0, 0, 0)" stroke="rgb(204, 204, 204)" stroke-width="1px"></line><line x1="128.8125" y1="0" x2="128.8125" y2="5" style="visibility: inherit;" fill="rgb(0, 0, 0)" stroke="rgb(204, 204, 204)" stroke-width="1px"></line><line x1="171.75" y1="0" x2="171.75" y2="5" style="visibility: inherit;" fill="rgb(0, 0, 0)" stroke="rgb(204, 204, 204)" stroke-width="1px"></line><line x1="214.6875" y1="0" x2="214.6875" y2="5" style="visibility: inherit;" fill="rgb(0, 0, 0)" stroke="rgb(204, 204, 204)" stroke-width="1px"></line><line x1="257.625" y1="0" x2="257.625" y2="5" style="visibility: inherit;" fill="rgb(0, 0, 0)" stroke="rgb(204, 204, 204)" stroke-width="1px"></line><line x1="300.5625" y1="0" x2="300.5625" y2="5" style="visibility: inherit;" fill="rgb(0, 0, 0)" stroke="rgb(204, 204, 204)" stroke-width="1px"></line></g><g transform="translate(0, 8)"><text x="0" y="0" dx="0em" dy="0.95em" style="text-anchor: middle; visibility: hidden; font-family: &quot;Helvetica Neue&quot;, sans-serif; font-size: 12px; font-weight: 200;" fill="rgb(50, 49, 63)" stroke="none" stroke-width="1px">-5</text><text x="42.9375" y="0" dx="0em" dy="0.95em" style="text-anchor: middle; visibility: inherit; font-family: &quot;Helvetica Neue&quot;, sans-serif; font-size: 12px; font-weight: 200;" fill="rgb(50, 49, 63)" stroke="none" stroke-width="1px">0</text><text x="85.875" y="0" dx="0em" dy="0.95em" style="text-anchor: middle; visibility: inherit; font-family: &quot;Helvetica Neue&quot;, sans-serif; font-size: 12px; font-weight: 200;" fill="rgb(50, 49, 63)" stroke="none" stroke-width="1px">5</text><text x="128.8125" y="0" dx="0em" dy="0.95em" style="text-anchor: middle; visibility: inherit; font-family: &quot;Helvetica Neue&quot;, sans-serif; font-size: 12px; font-weight: 200;" fill="rgb(50, 49, 63)" stroke="none" stroke-width="1px">10</text><text x="171.75" y="0" dx="0em" dy="0.95em" style="text-anchor: middle; visibility: inherit; font-family: &quot;Helvetica Neue&quot;, sans-serif; font-size: 12px; font-weight: 200;" fill="rgb(50, 49, 63)" stroke="none" stroke-width="1px">15</text><text x="214.6875" y="0" dx="0em" dy="0.95em" style="text-anchor: middle; visibility: inherit; font-family: &quot;Helvetica Neue&quot;, sans-serif; font-size: 12px; font-weight: 200;" fill="rgb(50, 49, 63)" stroke="none" stroke-width="1px">20</text><text x="257.625" y="0" dx="0em" dy="0.95em" style="text-anchor: middle; visibility: inherit; font-family: &quot;Helvetica Neue&quot;, sans-serif; font-size: 12px; font-weight: 200;" fill="rgb(50, 49, 63)" stroke="none" stroke-width="1px">25</text><text x="300.5625" y="0" dx="0em" dy="0.95em" style="text-anchor: middle; visibility: hidden; font-family: &quot;Helvetica Neue&quot;, sans-serif; font-size: 12px; font-weight: 200;" fill="rgb(50, 49, 63)" stroke="none" stroke-width="1px">30</text></g><line x1="0" y1="0" x2="300.5625" y2="0" fill="rgb(0, 0, 0)" stroke="rgb(204, 204, 204)" stroke-width="1px"></line></g></g></g></g></svg>