<?xml version="1.0" encoding="utf-8"?>
<svg xmlns="http://www.w3.org/2000/svg" xmlns:xlink="http://www.w3.org/1999/xlink" width="500" height="300" viewBox="0 0 2000 1200">
<defs>
  <clipPath id="clip7800">
    <rect x="0" y="0" width="2000" height="1200"/>
  </clipPath>
</defs>
<polygon clip-path="url(#clip7800)" points="
0,1200 2000,1200 2000,0 0,0 
  " fill="#ffffff" fill-rule="evenodd" fill-opacity="1"/>
<defs>
  <clipPath id="clip7801">
    <rect x="400" y="0" width="1401" height="1200"/>
  </clipPath>
</defs>
<polygon clip-path="url(#clip7800)" points="
141.865,1087.47 1952.76,1087.47 1952.76,47.2441 141.865,47.2441 
  " fill="#ffffff" fill-rule="evenodd" fill-opacity="1"/>
<defs>
  <clipPath id="clip7802">
    <rect x="141" y="47" width="1812" height="1041"/>
  </clipPath>
</defs>
<polyline clip-path="url(#clip7802)" style="stroke:#000000; stroke-width:2; stroke-opacity:0.1; fill:none" points="
  184.514,1087.47 184.514,47.2441 
  "/>
<polyline clip-path="url(#clip7802)" style="stroke:#000000; stroke-width:2; stroke-opacity:0.1; fill:none" points="
  625.725,1087.47 625.725,47.2441 
  "/>
<polyline clip-path="url(#clip7802)" style="stroke:#000000; stroke-width:2; stroke-opacity:0.1; fill:none" points="
  1066.94,1087.47 1066.94,47.2441 
  "/>
<polyline clip-path="url(#clip7802)" style="stroke:#000000; stroke-width:2; stroke-opacity:0.1; fill:none" points="
  1508.15,1087.47 1508.15,47.2441 
  "/>
<polyline clip-path="url(#clip7802)" style="stroke:#000000; stroke-width:2; stroke-opacity:0.1; fill:none" points="
  1949.36,1087.47 1949.36,47.2441 
  "/>
<polyline clip-path="url(#clip7802)" style="stroke:#000000; stroke-width:2; stroke-opacity:0.1; fill:none" points="
  141.865,1076.01 1952.76,1076.01 
  "/>
<polyline clip-path="url(#clip7802)" style="stroke:#000000; stroke-width:2; stroke-opacity:0.1; fill:none" points="
  141.865,746.858 1952.76,746.858 
  "/>
<polyline clip-path="url(#clip7802)" style="stroke:#000000; stroke-width:2; stroke-opacity:0.1; fill:none" points="
  141.865,417.706 1952.76,417.706 
  "/>
<polyline clip-path="url(#clip7802)" style="stroke:#000000; stroke-width:2; stroke-opacity:0.1; fill:none" points="
  141.865,88.5543 1952.76,88.5543 
  "/>
<polyline clip-path="url(#clip7800)" style="stroke:#000000; stroke-width:4; stroke-opacity:1; fill:none" points="
  141.865,1087.47 1952.76,1087.47 
  "/>
<polyline clip-path="url(#clip7800)" style="stroke:#000000; stroke-width:4; stroke-opacity:1; fill:none" points="
  141.865,1087.47 141.865,47.2441 
  "/>
<polyline clip-path="url(#clip7800)" style="stroke:#000000; stroke-width:4; stroke-opacity:1; fill:none" points="
  184.514,1087.47 184.514,1071.87 
  "/>
<polyline clip-path="url(#clip7800)" style="stroke:#000000; stroke-width:4; stroke-opacity:1; fill:none" points="
  625.725,1087.47 625.725,1071.87 
  "/>
<polyline clip-path="url(#clip7800)" style="stroke:#000000; stroke-width:4; stroke-opacity:1; fill:none" points="
  1066.94,1087.47 1066.94,1071.87 
  "/>
<polyline clip-path="url(#clip7800)" style="stroke:#000000; stroke-width:4; stroke-opacity:1; fill:none" points="
  1508.15,1087.47 1508.15,1071.87 
  "/>
<polyline clip-path="url(#clip7800)" style="stroke:#000000; stroke-width:4; stroke-opacity:1; fill:none" points="
  1949.36,1087.47 1949.36,1071.87 
  "/>
<polyline clip-path="url(#clip7800)" style="stroke:#000000; stroke-width:4; stroke-opacity:1; fill:none" points="
  141.865,1076.01 169.028,1076.01 
  "/>
<polyline clip-path="url(#clip7800)" style="stroke:#000000; stroke-width:4; stroke-opacity:1; fill:none" points="
  141.865,746.858 169.028,746.858 
  "/>
<polyline clip-path="url(#clip7800)" style="stroke:#000000; stroke-width:4; stroke-opacity:1; fill:none" points="
  141.865,417.706 169.028,417.706 
  "/>
<polyline clip-path="url(#clip7800)" style="stroke:#000000; stroke-width:4; stroke-opacity:1; fill:none" points="
  141.865,88.5543 169.028,88.5543 
  "/>
<g clip-path="url(#clip7800)">
<text style="fill:#000000; fill-opacity:1; font-family:Arial,Helvetica Neue,Helvetica,sans-serif; font-size:48px; text-anchor:middle;" transform="rotate(0, 184.514, 1139.47)" x="184.514" y="1139.47">0.00</text>
</g>
<g clip-path="url(#clip7800)">
<text style="fill:#000000; fill-opacity:1; font-family:Arial,Helvetica Neue,Helvetica,sans-serif; font-size:48px; text-anchor:middle;" transform="rotate(0, 625.725, 1139.47)" x="625.725" y="1139.47">0.25</text>
</g>
<g clip-path="url(#clip7800)">
<text style="fill:#000000; fill-opacity:1; font-family:Arial,Helvetica Neue,Helvetica,sans-serif; font-size:48px; text-anchor:middle;" transform="rotate(0, 1066.94, 1139.47)" x="1066.94" y="1139.47">0.50</text>
</g>
<g clip-path="url(#clip7800)">
<text style="fill:#000000; fill-opacity:1; font-family:Arial,Helvetica Neue,Helvetica,sans-serif; font-size:48px; text-anchor:middle;" transform="rotate(0, 1508.15, 1139.47)" x="1508.15" y="1139.47">0.75</text>
</g>
<g clip-path="url(#clip7800)">
<text style="fill:#000000; fill-opacity:1; font-family:Arial,Helvetica Neue,Helvetica,sans-serif; font-size:48px; text-anchor:middle;" transform="rotate(0, 1949.36, 1139.47)" x="1949.36" y="1139.47">1.00</text>
</g>
<g clip-path="url(#clip7800)">
<text style="fill:#000000; fill-opacity:1; font-family:Arial,Helvetica Neue,Helvetica,sans-serif; font-size:48px; text-anchor:end;" transform="rotate(0, 121.865, 1093.51)" x="121.865" y="1093.51">-1</text>
</g>
<g clip-path="url(#clip7800)">
<text style="fill:#000000; fill-opacity:1; font-family:Arial,Helvetica Neue,Helvetica,sans-serif; font-size:48px; text-anchor:end;" transform="rotate(0, 121.865, 764.358)" x="121.865" y="764.358">0</text>
</g>
<g clip-path="url(#clip7800)">
<text style="fill:#000000; fill-opacity:1; font-family:Arial,Helvetica Neue,Helvetica,sans-serif; font-size:48px; text-anchor:end;" transform="rotate(0, 121.865, 435.206)" x="121.865" y="435.206">1</text>
</g>
<g clip-path="url(#clip7800)">
<text style="fill:#000000; fill-opacity:1; font-family:Arial,Helvetica Neue,Helvetica,sans-serif; font-size:48px; text-anchor:end;" transform="rotate(0, 121.865, 106.054)" x="121.865" y="106.054">2</text>
</g>
<circle clip-path="url(#clip7802)" style="fill:#000000; stroke:none; fill-opacity:1" cx="1186.07" cy="699.54" r="18"/>
<circle clip-path="url(#clip7802)" style="fill:#009af9; stroke:none; fill-opacity:1" cx="1186.07" cy="699.54" r="14"/>
<circle clip-path="url(#clip7802)" style="fill:#000000; stroke:none; fill-opacity:1" cx="1846.65" cy="1054.42" r="18"/>
<circle clip-path="url(#clip7802)" style="fill:#009af9; stroke:none; fill-opacity:1" cx="1846.65" cy="1054.42" r="14"/>
<circle clip-path="url(#clip7802)" style="fill:#000000; stroke:none; fill-opacity:1" cx="1869.27" cy="998.704" r="18"/>
<circle clip-path="url(#clip7802)" style="fill:#009af9; stroke:none; fill-opacity:1" cx="1869.27" cy="998.704" r="14"/>
<circle clip-path="url(#clip7802)" style="fill:#000000; stroke:none; fill-opacity:1" cx="1505" cy="855.283" r="18"/>
<circle clip-path="url(#clip7802)" style="fill:#009af9; stroke:none; fill-opacity:1" cx="1505" cy="855.283" r="14"/>
<circle clip-path="url(#clip7802)" style="fill:#000000; stroke:none; fill-opacity:1" cx="1218.34" cy="666.927" r="18"/>
<circle clip-path="url(#clip7802)" style="fill:#009af9; stroke:none; fill-opacity:1" cx="1218.34" cy="666.927" r="14"/>
<circle clip-path="url(#clip7802)" style="fill:#000000; stroke:none; fill-opacity:1" cx="1563.96" cy="861.962" r="18"/>
<circle clip-path="url(#clip7802)" style="fill:#009af9; stroke:none; fill-opacity:1" cx="1563.96" cy="861.962" r="14"/>
<circle clip-path="url(#clip7802)" style="fill:#000000; stroke:none; fill-opacity:1" cx="1394.94" cy="764.859" r="18"/>
<circle clip-path="url(#clip7802)" style="fill:#009af9; stroke:none; fill-opacity:1" cx="1394.94" cy="764.859" r="14"/>
<circle clip-path="url(#clip7802)" style="fill:#000000; stroke:none; fill-opacity:1" cx="955.979" cy="499.175" r="18"/>
<circle clip-path="url(#clip7802)" style="fill:#009af9; stroke:none; fill-opacity:1" cx="955.979" cy="499.175" r="14"/>
<circle clip-path="url(#clip7802)" style="fill:#000000; stroke:none; fill-opacity:1" cx="225.006" cy="123.785" r="18"/>
<circle clip-path="url(#clip7802)" style="fill:#009af9; stroke:none; fill-opacity:1" cx="225.006" cy="123.785" r="14"/>
<circle clip-path="url(#clip7802)" style="fill:#000000; stroke:none; fill-opacity:1" cx="715.794" cy="266.293" r="18"/>
<circle clip-path="url(#clip7802)" style="fill:#009af9; stroke:none; fill-opacity:1" cx="715.794" cy="266.293" r="14"/>
<circle clip-path="url(#clip7802)" style="fill:#000000; stroke:none; fill-opacity:1" cx="357.837" cy="214.158" r="18"/>
<circle clip-path="url(#clip7802)" style="fill:#009af9; stroke:none; fill-opacity:1" cx="357.837" cy="214.158" r="14"/>
<circle clip-path="url(#clip7802)" style="fill:#000000; stroke:none; fill-opacity:1" cx="1410.78" cy="714.022" r="18"/>
<circle clip-path="url(#clip7802)" style="fill:#009af9; stroke:none; fill-opacity:1" cx="1410.78" cy="714.022" r="14"/>
<circle clip-path="url(#clip7802)" style="fill:#000000; stroke:none; fill-opacity:1" cx="254.827" cy="76.6846" r="18"/>
<circle clip-path="url(#clip7802)" style="fill:#009af9; stroke:none; fill-opacity:1" cx="254.827" cy="76.6846" r="14"/>
<circle clip-path="url(#clip7802)" style="fill:#000000; stroke:none; fill-opacity:1" cx="619.003" cy="287.145" r="18"/>
<circle clip-path="url(#clip7802)" style="fill:#009af9; stroke:none; fill-opacity:1" cx="619.003" cy="287.145" r="14"/>
<circle clip-path="url(#clip7802)" style="fill:#000000; stroke:none; fill-opacity:1" cx="384.87" cy="207.52" r="18"/>
<circle clip-path="url(#clip7802)" style="fill:#009af9; stroke:none; fill-opacity:1" cx="384.87" cy="207.52" r="14"/>
<circle clip-path="url(#clip7802)" style="fill:#000000; stroke:none; fill-opacity:1" cx="1108.5" cy="611.577" r="18"/>
<circle clip-path="url(#clip7802)" style="fill:#009af9; stroke:none; fill-opacity:1" cx="1108.5" cy="611.577" r="14"/>
<circle clip-path="url(#clip7802)" style="fill:#000000; stroke:none; fill-opacity:1" cx="1698.82" cy="934.276" r="18"/>
<circle clip-path="url(#clip7802)" style="fill:#009af9; stroke:none; fill-opacity:1" cx="1698.82" cy="934.276" r="14"/>
<circle clip-path="url(#clip7802)" style="fill:#000000; stroke:none; fill-opacity:1" cx="1366.51" cy="759.346" r="18"/>
<circle clip-path="url(#clip7802)" style="fill:#009af9; stroke:none; fill-opacity:1" cx="1366.51" cy="759.346" r="14"/>
<circle clip-path="url(#clip7802)" style="fill:#000000; stroke:none; fill-opacity:1" cx="1313.77" cy="714.846" r="18"/>
<circle clip-path="url(#clip7802)" style="fill:#009af9; stroke:none; fill-opacity:1" cx="1313.77" cy="714.846" r="14"/>
<circle clip-path="url(#clip7802)" style="fill:#000000; stroke:none; fill-opacity:1" cx="954.896" cy="548.492" r="18"/>
<circle clip-path="url(#clip7802)" style="fill:#009af9; stroke:none; fill-opacity:1" cx="954.896" cy="548.492" r="14"/>
<circle clip-path="url(#clip7802)" style="fill:#000000; stroke:none; fill-opacity:1" cx="1516.26" cy="857.849" r="18"/>
<circle clip-path="url(#clip7802)" style="fill:#009af9; stroke:none; fill-opacity:1" cx="1516.26" cy="857.849" r="14"/>
<circle clip-path="url(#clip7802)" style="fill:#000000; stroke:none; fill-opacity:1" cx="1247.39" cy="700.305" r="18"/>
<circle clip-path="url(#clip7802)" style="fill:#009af9; stroke:none; fill-opacity:1" cx="1247.39" cy="700.305" r="14"/>
<circle clip-path="url(#clip7802)" style="fill:#000000; stroke:none; fill-opacity:1" cx="790.919" cy="390.61" r="18"/>
<circle clip-path="url(#clip7802)" style="fill:#009af9; stroke:none; fill-opacity:1" cx="790.919" cy="390.61" r="14"/>
<circle clip-path="url(#clip7802)" style="fill:#000000; stroke:none; fill-opacity:1" cx="963.024" cy="566.616" r="18"/>
<circle clip-path="url(#clip7802)" style="fill:#009af9; stroke:none; fill-opacity:1" cx="963.024" cy="566.616" r="14"/>
<circle clip-path="url(#clip7802)" style="fill:#000000; stroke:none; fill-opacity:1" cx="862.748" cy="465.797" r="18"/>
<circle clip-path="url(#clip7802)" style="fill:#009af9; stroke:none; fill-opacity:1" cx="862.748" cy="465.797" r="14"/>
<circle clip-path="url(#clip7802)" style="fill:#000000; stroke:none; fill-opacity:1" cx="390.426" cy="216.631" r="18"/>
<circle clip-path="url(#clip7802)" style="fill:#009af9; stroke:none; fill-opacity:1" cx="390.426" cy="216.631" r="14"/>
<circle clip-path="url(#clip7802)" style="fill:#000000; stroke:none; fill-opacity:1" cx="675.117" cy="356.484" r="18"/>
<circle clip-path="url(#clip7802)" style="fill:#009af9; stroke:none; fill-opacity:1" cx="675.117" cy="356.484" r="14"/>
<circle clip-path="url(#clip7802)" style="fill:#000000; stroke:none; fill-opacity:1" cx="1572.86" cy="861.685" r="18"/>
<circle clip-path="url(#clip7802)" style="fill:#009af9; stroke:none; fill-opacity:1" cx="1572.86" cy="861.685" r="14"/>
<circle clip-path="url(#clip7802)" style="fill:#000000; stroke:none; fill-opacity:1" cx="826.331" cy="435.944" r="18"/>
<circle clip-path="url(#clip7802)" style="fill:#009af9; stroke:none; fill-opacity:1" cx="826.331" cy="435.944" r="14"/>
<circle clip-path="url(#clip7802)" style="fill:#000000; stroke:none; fill-opacity:1" cx="709.913" cy="410.46" r="18"/>
<circle clip-path="url(#clip7802)" style="fill:#009af9; stroke:none; fill-opacity:1" cx="709.913" cy="410.46" r="14"/>
<circle clip-path="url(#clip7802)" style="fill:#000000; stroke:none; fill-opacity:1" cx="193.116" cy="118.281" r="18"/>
<circle clip-path="url(#clip7802)" style="fill:#009af9; stroke:none; fill-opacity:1" cx="193.116" cy="118.281" r="14"/>
<circle clip-path="url(#clip7802)" style="fill:#000000; stroke:none; fill-opacity:1" cx="1673.46" cy="928.402" r="18"/>
<circle clip-path="url(#clip7802)" style="fill:#009af9; stroke:none; fill-opacity:1" cx="1673.46" cy="928.402" r="14"/>
<circle clip-path="url(#clip7802)" style="fill:#000000; stroke:none; fill-opacity:1" cx="1387.06" cy="813.254" r="18"/>
<circle clip-path="url(#clip7802)" style="fill:#009af9; stroke:none; fill-opacity:1" cx="1387.06" cy="813.254" r="14"/>
<circle clip-path="url(#clip7802)" style="fill:#000000; stroke:none; fill-opacity:1" cx="1532.2" cy="854.114" r="18"/>
<circle clip-path="url(#clip7802)" style="fill:#009af9; stroke:none; fill-opacity:1" cx="1532.2" cy="854.114" r="14"/>
<circle clip-path="url(#clip7802)" style="fill:#000000; stroke:none; fill-opacity:1" cx="1620.21" cy="898.982" r="18"/>
<circle clip-path="url(#clip7802)" style="fill:#009af9; stroke:none; fill-opacity:1" cx="1620.21" cy="898.982" r="14"/>
<circle clip-path="url(#clip7802)" style="fill:#000000; stroke:none; fill-opacity:1" cx="834.582" cy="446.904" r="18"/>
<circle clip-path="url(#clip7802)" style="fill:#009af9; stroke:none; fill-opacity:1" cx="834.582" cy="446.904" r="14"/>
<circle clip-path="url(#clip7802)" style="fill:#000000; stroke:none; fill-opacity:1" cx="1365.18" cy="766.576" r="18"/>
<circle clip-path="url(#clip7802)" style="fill:#009af9; stroke:none; fill-opacity:1" cx="1365.18" cy="766.576" r="14"/>
<circle clip-path="url(#clip7802)" style="fill:#000000; stroke:none; fill-opacity:1" cx="1580.49" cy="895.551" r="18"/>
<circle clip-path="url(#clip7802)" style="fill:#009af9; stroke:none; fill-opacity:1" cx="1580.49" cy="895.551" r="14"/>
<circle clip-path="url(#clip7802)" style="fill:#000000; stroke:none; fill-opacity:1" cx="1873.87" cy="1058.03" r="18"/>
<circle clip-path="url(#clip7802)" style="fill:#009af9; stroke:none; fill-opacity:1" cx="1873.87" cy="1058.03" r="14"/>
<circle clip-path="url(#clip7802)" style="fill:#000000; stroke:none; fill-opacity:1" cx="642.478" cy="338.386" r="18"/>
<circle clip-path="url(#clip7802)" style="fill:#009af9; stroke:none; fill-opacity:1" cx="642.478" cy="338.386" r="14"/>
<circle clip-path="url(#clip7802)" style="fill:#000000; stroke:none; fill-opacity:1" cx="1187.77" cy="615.701" r="18"/>
<circle clip-path="url(#clip7802)" style="fill:#009af9; stroke:none; fill-opacity:1" cx="1187.77" cy="615.701" r="14"/>
<circle clip-path="url(#clip7802)" style="fill:#000000; stroke:none; fill-opacity:1" cx="659.444" cy="328.983" r="18"/>
<circle clip-path="url(#clip7802)" style="fill:#009af9; stroke:none; fill-opacity:1" cx="659.444" cy="328.983" r="14"/>
<circle clip-path="url(#clip7802)" style="fill:#000000; stroke:none; fill-opacity:1" cx="738.319" cy="388.585" r="18"/>
<circle clip-path="url(#clip7802)" style="fill:#009af9; stroke:none; fill-opacity:1" cx="738.319" cy="388.585" r="14"/>
<circle clip-path="url(#clip7802)" style="fill:#000000; stroke:none; fill-opacity:1" cx="1035.44" cy="551.246" r="18"/>
<circle clip-path="url(#clip7802)" style="fill:#009af9; stroke:none; fill-opacity:1" cx="1035.44" cy="551.246" r="14"/>
<circle clip-path="url(#clip7802)" style="fill:#000000; stroke:none; fill-opacity:1" cx="679.461" cy="348.237" r="18"/>
<circle clip-path="url(#clip7802)" style="fill:#009af9; stroke:none; fill-opacity:1" cx="679.461" cy="348.237" r="14"/>
<circle clip-path="url(#clip7802)" style="fill:#000000; stroke:none; fill-opacity:1" cx="895.223" cy="497.099" r="18"/>
<circle clip-path="url(#clip7802)" style="fill:#009af9; stroke:none; fill-opacity:1" cx="895.223" cy="497.099" r="14"/>
<circle clip-path="url(#clip7802)" style="fill:#000000; stroke:none; fill-opacity:1" cx="1770.1" cy="987.863" r="18"/>
<circle clip-path="url(#clip7802)" style="fill:#009af9; stroke:none; fill-opacity:1" cx="1770.1" cy="987.863" r="14"/>
<circle clip-path="url(#clip7802)" style="fill:#000000; stroke:none; fill-opacity:1" cx="1257.55" cy="684.684" r="18"/>
<circle clip-path="url(#clip7802)" style="fill:#009af9; stroke:none; fill-opacity:1" cx="1257.55" cy="684.684" r="14"/>
<circle clip-path="url(#clip7802)" style="fill:#000000; stroke:none; fill-opacity:1" cx="1454.09" cy="812.365" r="18"/>
<circle clip-path="url(#clip7802)" style="fill:#009af9; stroke:none; fill-opacity:1" cx="1454.09" cy="812.365" r="14"/>
<circle clip-path="url(#clip7802)" style="fill:#000000; stroke:none; fill-opacity:1" cx="813.13" cy="409.774" r="18"/>
<circle clip-path="url(#clip7802)" style="fill:#009af9; stroke:none; fill-opacity:1" cx="813.13" cy="409.774" r="14"/>
<circle clip-path="url(#clip7802)" style="fill:#000000; stroke:none; fill-opacity:1" cx="776.162" cy="405.531" r="18"/>
<circle clip-path="url(#clip7802)" style="fill:#009af9; stroke:none; fill-opacity:1" cx="776.162" cy="405.531" r="14"/>
<circle clip-path="url(#clip7802)" style="fill:#000000; stroke:none; fill-opacity:1" cx="1127.33" cy="605.437" r="18"/>
<circle clip-path="url(#clip7802)" style="fill:#009af9; stroke:none; fill-opacity:1" cx="1127.33" cy="605.437" r="14"/>
<circle clip-path="url(#clip7802)" style="fill:#000000; stroke:none; fill-opacity:1" cx="1007.81" cy="636.107" r="18"/>
<circle clip-path="url(#clip7802)" style="fill:#009af9; stroke:none; fill-opacity:1" cx="1007.81" cy="636.107" r="14"/>
<circle clip-path="url(#clip7802)" style="fill:#000000; stroke:none; fill-opacity:1" cx="237.74" cy="121.131" r="18"/>
<circle clip-path="url(#clip7802)" style="fill:#009af9; stroke:none; fill-opacity:1" cx="237.74" cy="121.131" r="14"/>
<circle clip-path="url(#clip7802)" style="fill:#000000; stroke:none; fill-opacity:1" cx="1683.17" cy="918.313" r="18"/>
<circle clip-path="url(#clip7802)" style="fill:#009af9; stroke:none; fill-opacity:1" cx="1683.17" cy="918.313" r="14"/>
<circle clip-path="url(#clip7802)" style="fill:#000000; stroke:none; fill-opacity:1" cx="319.218" cy="147.953" r="18"/>
<circle clip-path="url(#clip7802)" style="fill:#009af9; stroke:none; fill-opacity:1" cx="319.218" cy="147.953" r="14"/>
<circle clip-path="url(#clip7802)" style="fill:#000000; stroke:none; fill-opacity:1" cx="1438.86" cy="785.654" r="18"/>
<circle clip-path="url(#clip7802)" style="fill:#009af9; stroke:none; fill-opacity:1" cx="1438.86" cy="785.654" r="14"/>
<circle clip-path="url(#clip7802)" style="fill:#000000; stroke:none; fill-opacity:1" cx="1408.97" cy="751.732" r="18"/>
<circle clip-path="url(#clip7802)" style="fill:#009af9; stroke:none; fill-opacity:1" cx="1408.97" cy="751.732" r="14"/>
<circle clip-path="url(#clip7802)" style="fill:#000000; stroke:none; fill-opacity:1" cx="855.494" cy="457.691" r="18"/>
<circle clip-path="url(#clip7802)" style="fill:#009af9; stroke:none; fill-opacity:1" cx="855.494" cy="457.691" r="14"/>
<circle clip-path="url(#clip7802)" style="fill:#000000; stroke:none; fill-opacity:1" cx="1107.21" cy="687.122" r="18"/>
<circle clip-path="url(#clip7802)" style="fill:#009af9; stroke:none; fill-opacity:1" cx="1107.21" cy="687.122" r="14"/>
<circle clip-path="url(#clip7802)" style="fill:#000000; stroke:none; fill-opacity:1" cx="671.816" cy="315.157" r="18"/>
<circle clip-path="url(#clip7802)" style="fill:#009af9; stroke:none; fill-opacity:1" cx="671.816" cy="315.157" r="14"/>
<circle clip-path="url(#clip7802)" style="fill:#000000; stroke:none; fill-opacity:1" cx="628.133" cy="328.594" r="18"/>
<circle clip-path="url(#clip7802)" style="fill:#009af9; stroke:none; fill-opacity:1" cx="628.133" cy="328.594" r="14"/>
<circle clip-path="url(#clip7802)" style="fill:#000000; stroke:none; fill-opacity:1" cx="1809.41" cy="998.807" r="18"/>
<circle clip-path="url(#clip7802)" style="fill:#009af9; stroke:none; fill-opacity:1" cx="1809.41" cy="998.807" r="14"/>
<circle clip-path="url(#clip7802)" style="fill:#000000; stroke:none; fill-opacity:1" cx="965.378" cy="540.255" r="18"/>
<circle clip-path="url(#clip7802)" style="fill:#009af9; stroke:none; fill-opacity:1" cx="965.378" cy="540.255" r="14"/>
<circle clip-path="url(#clip7802)" style="fill:#000000; stroke:none; fill-opacity:1" cx="311.333" cy="159.444" r="18"/>
<circle clip-path="url(#clip7802)" style="fill:#009af9; stroke:none; fill-opacity:1" cx="311.333" cy="159.444" r="14"/>
<circle clip-path="url(#clip7802)" style="fill:#000000; stroke:none; fill-opacity:1" cx="484.134" cy="220.803" r="18"/>
<circle clip-path="url(#clip7802)" style="fill:#009af9; stroke:none; fill-opacity:1" cx="484.134" cy="220.803" r="14"/>
<circle clip-path="url(#clip7802)" style="fill:#000000; stroke:none; fill-opacity:1" cx="1104.27" cy="541.293" r="18"/>
<circle clip-path="url(#clip7802)" style="fill:#009af9; stroke:none; fill-opacity:1" cx="1104.27" cy="541.293" r="14"/>
<circle clip-path="url(#clip7802)" style="fill:#000000; stroke:none; fill-opacity:1" cx="1232.12" cy="667.42" r="18"/>
<circle clip-path="url(#clip7802)" style="fill:#009af9; stroke:none; fill-opacity:1" cx="1232.12" cy="667.42" r="14"/>
<circle clip-path="url(#clip7802)" style="fill:#000000; stroke:none; fill-opacity:1" cx="516.677" cy="252.742" r="18"/>
<circle clip-path="url(#clip7802)" style="fill:#009af9; stroke:none; fill-opacity:1" cx="516.677" cy="252.742" r="14"/>
<circle clip-path="url(#clip7802)" style="fill:#000000; stroke:none; fill-opacity:1" cx="1901.5" cy="1051.27" r="18"/>
<circle clip-path="url(#clip7802)" style="fill:#009af9; stroke:none; fill-opacity:1" cx="1901.5" cy="1051.27" r="14"/>
<circle clip-path="url(#clip7802)" style="fill:#000000; stroke:none; fill-opacity:1" cx="1254.81" cy="663.851" r="18"/>
<circle clip-path="url(#clip7802)" style="fill:#009af9; stroke:none; fill-opacity:1" cx="1254.81" cy="663.851" r="14"/>
<circle clip-path="url(#clip7802)" style="fill:#000000; stroke:none; fill-opacity:1" cx="288.393" cy="152.757" r="18"/>
<circle clip-path="url(#clip7802)" style="fill:#009af9; stroke:none; fill-opacity:1" cx="288.393" cy="152.757" r="14"/>
<circle clip-path="url(#clip7802)" style="fill:#000000; stroke:none; fill-opacity:1" cx="1873.1" cy="1001.9" r="18"/>
<circle clip-path="url(#clip7802)" style="fill:#009af9; stroke:none; fill-opacity:1" cx="1873.1" cy="1001.9" r="14"/>
<circle clip-path="url(#clip7802)" style="fill:#000000; stroke:none; fill-opacity:1" cx="1325.48" cy="729.021" r="18"/>
<circle clip-path="url(#clip7802)" style="fill:#009af9; stroke:none; fill-opacity:1" cx="1325.48" cy="729.021" r="14"/>
<circle clip-path="url(#clip7802)" style="fill:#000000; stroke:none; fill-opacity:1" cx="1711.19" cy="937.433" r="18"/>
<circle clip-path="url(#clip7802)" style="fill:#009af9; stroke:none; fill-opacity:1" cx="1711.19" cy="937.433" r="14"/>
<circle clip-path="url(#clip7802)" style="fill:#000000; stroke:none; fill-opacity:1" cx="396.463" cy="200.882" r="18"/>
<circle clip-path="url(#clip7802)" style="fill:#009af9; stroke:none; fill-opacity:1" cx="396.463" cy="200.882" r="14"/>
<circle clip-path="url(#clip7802)" style="fill:#000000; stroke:none; fill-opacity:1" cx="1711.96" cy="952.094" r="18"/>
<circle clip-path="url(#clip7802)" style="fill:#009af9; stroke:none; fill-opacity:1" cx="1711.96" cy="952.094" r="14"/>
<circle clip-path="url(#clip7802)" style="fill:#000000; stroke:none; fill-opacity:1" cx="667.758" cy="337.252" r="18"/>
<circle clip-path="url(#clip7802)" style="fill:#009af9; stroke:none; fill-opacity:1" cx="667.758" cy="337.252" r="14"/>
<circle clip-path="url(#clip7802)" style="fill:#000000; stroke:none; fill-opacity:1" cx="390.52" cy="247.38" r="18"/>
<circle clip-path="url(#clip7802)" style="fill:#009af9; stroke:none; fill-opacity:1" cx="390.52" cy="247.38" r="14"/>
<circle clip-path="url(#clip7802)" style="fill:#000000; stroke:none; fill-opacity:1" cx="537.643" cy="296.455" r="18"/>
<circle clip-path="url(#clip7802)" style="fill:#009af9; stroke:none; fill-opacity:1" cx="537.643" cy="296.455" r="14"/>
<circle clip-path="url(#clip7802)" style="fill:#000000; stroke:none; fill-opacity:1" cx="1283.09" cy="748.911" r="18"/>
<circle clip-path="url(#clip7802)" style="fill:#009af9; stroke:none; fill-opacity:1" cx="1283.09" cy="748.911" r="14"/>
<circle clip-path="url(#clip7802)" style="fill:#000000; stroke:none; fill-opacity:1" cx="294.287" cy="159.223" r="18"/>
<circle clip-path="url(#clip7802)" style="fill:#009af9; stroke:none; fill-opacity:1" cx="294.287" cy="159.223" r="14"/>
<circle clip-path="url(#clip7802)" style="fill:#000000; stroke:none; fill-opacity:1" cx="1721.93" cy="955.376" r="18"/>
<circle clip-path="url(#clip7802)" style="fill:#009af9; stroke:none; fill-opacity:1" cx="1721.93" cy="955.376" r="14"/>
<circle clip-path="url(#clip7802)" style="fill:#000000; stroke:none; fill-opacity:1" cx="856.677" cy="526.845" r="18"/>
<circle clip-path="url(#clip7802)" style="fill:#009af9; stroke:none; fill-opacity:1" cx="856.677" cy="526.845" r="14"/>
<circle clip-path="url(#clip7802)" style="fill:#000000; stroke:none; fill-opacity:1" cx="664.267" cy="379.488" r="18"/>
<circle clip-path="url(#clip7802)" style="fill:#009af9; stroke:none; fill-opacity:1" cx="664.267" cy="379.488" r="14"/>
<circle clip-path="url(#clip7802)" style="fill:#000000; stroke:none; fill-opacity:1" cx="1654.01" cy="870.531" r="18"/>
<circle clip-path="url(#clip7802)" style="fill:#009af9; stroke:none; fill-opacity:1" cx="1654.01" cy="870.531" r="14"/>
<circle clip-path="url(#clip7802)" style="fill:#000000; stroke:none; fill-opacity:1" cx="772.472" cy="388.878" r="18"/>
<circle clip-path="url(#clip7802)" style="fill:#009af9; stroke:none; fill-opacity:1" cx="772.472" cy="388.878" r="14"/>
<circle clip-path="url(#clip7802)" style="fill:#000000; stroke:none; fill-opacity:1" cx="232.305" cy="149.428" r="18"/>
<circle clip-path="url(#clip7802)" style="fill:#009af9; stroke:none; fill-opacity:1" cx="232.305" cy="149.428" r="14"/>
<circle clip-path="url(#clip7802)" style="fill:#000000; stroke:none; fill-opacity:1" cx="1047.97" cy="530.76" r="18"/>
<circle clip-path="url(#clip7802)" style="fill:#009af9; stroke:none; fill-opacity:1" cx="1047.97" cy="530.76" r="14"/>
<circle clip-path="url(#clip7802)" style="fill:#000000; stroke:none; fill-opacity:1" cx="1801.33" cy="930.186" r="18"/>
<circle clip-path="url(#clip7802)" style="fill:#009af9; stroke:none; fill-opacity:1" cx="1801.33" cy="930.186" r="14"/>
<circle clip-path="url(#clip7802)" style="fill:#000000; stroke:none; fill-opacity:1" cx="1061.27" cy="587.973" r="18"/>
<circle clip-path="url(#clip7802)" style="fill:#009af9; stroke:none; fill-opacity:1" cx="1061.27" cy="587.973" r="14"/>
<circle clip-path="url(#clip7802)" style="fill:#000000; stroke:none; fill-opacity:1" cx="687.964" cy="374.057" r="18"/>
<circle clip-path="url(#clip7802)" style="fill:#009af9; stroke:none; fill-opacity:1" cx="687.964" cy="374.057" r="14"/>
<circle clip-path="url(#clip7802)" style="fill:#000000; stroke:none; fill-opacity:1" cx="838.229" cy="436.081" r="18"/>
<circle clip-path="url(#clip7802)" style="fill:#009af9; stroke:none; fill-opacity:1" cx="838.229" cy="436.081" r="14"/>
<circle clip-path="url(#clip7802)" style="fill:#000000; stroke:none; fill-opacity:1" cx="1206.39" cy="613.247" r="18"/>
<circle clip-path="url(#clip7802)" style="fill:#009af9; stroke:none; fill-opacity:1" cx="1206.39" cy="613.247" r="14"/>
<circle clip-path="url(#clip7802)" style="fill:#000000; stroke:none; fill-opacity:1" cx="1580.38" cy="905.327" r="18"/>
<circle clip-path="url(#clip7802)" style="fill:#009af9; stroke:none; fill-opacity:1" cx="1580.38" cy="905.327" r="14"/>
<circle clip-path="url(#clip7802)" style="fill:#000000; stroke:none; fill-opacity:1" cx="1781.37" cy="1006.53" r="18"/>
<circle clip-path="url(#clip7802)" style="fill:#009af9; stroke:none; fill-opacity:1" cx="1781.37" cy="1006.53" r="14"/>
<circle clip-path="url(#clip7802)" style="fill:#000000; stroke:none; fill-opacity:1" cx="1672.87" cy="949.59" r="18"/>
<circle clip-path="url(#clip7802)" style="fill:#009af9; stroke:none; fill-opacity:1" cx="1672.87" cy="949.59" r="14"/>
<circle clip-path="url(#clip7802)" style="fill:#000000; stroke:none; fill-opacity:1" cx="1328.65" cy="783.381" r="18"/>
<circle clip-path="url(#clip7802)" style="fill:#009af9; stroke:none; fill-opacity:1" cx="1328.65" cy="783.381" r="14"/>
<circle clip-path="url(#clip7802)" style="fill:#000000; stroke:none; fill-opacity:1" cx="1017.68" cy="561.967" r="18"/>
<circle clip-path="url(#clip7802)" style="fill:#009af9; stroke:none; fill-opacity:1" cx="1017.68" cy="561.967" r="14"/>
<circle clip-path="url(#clip7802)" style="fill:#000000; stroke:none; fill-opacity:1" cx="814.287" cy="398.795" r="18"/>
<circle clip-path="url(#clip7802)" style="fill:#009af9; stroke:none; fill-opacity:1" cx="814.287" cy="398.795" r="14"/>
<polygon clip-path="url(#clip7800)" points="
1599.09,227.724 1892.76,227.724 1892.76,106.764 1599.09,106.764 
  " fill="#ffffff" fill-rule="evenodd" fill-opacity="1"/>
<polyline clip-path="url(#clip7800)" style="stroke:#000000; stroke-width:4; stroke-opacity:1; fill:none" points="
  1599.09,227.724 1892.76,227.724 1892.76,106.764 1599.09,106.764 1599.09,227.724 
  "/>
<circle clip-path="url(#clip7800)" style="fill:#000000; stroke:none; fill-opacity:1" cx="1689.09" cy="167.244" r="25"/>
<circle clip-path="url(#clip7800)" style="fill:#009af9; stroke:none; fill-opacity:1" cx="1689.09" cy="167.244" r="21"/>
<g clip-path="url(#clip7800)">
<text style="fill:#000000; fill-opacity:1; font-family:Arial,Helvetica Neue,Helvetica,sans-serif; font-size:48px; text-anchor:start;" transform="rotate(0, 1759.09, 184.744)" x="1759.09" y="184.744">data</text>
</g>
</svg>
