<?xml version="1.0" encoding="utf-8"?>
<svg xmlns="http://www.w3.org/2000/svg" xmlns:xlink="http://www.w3.org/1999/xlink" width="500" height="300" viewBox="0 0 2000 1200">
<defs>
  <clipPath id="clip8200">
    <rect x="0" y="0" width="2000" height="1200"/>
  </clipPath>
</defs>
<polygon clip-path="url(#clip8200)" points="
0,1200 2000,1200 2000,0 0,0 
  " fill="#ffffff" fill-rule="evenodd" fill-opacity="1"/>
<defs>
  <clipPath id="clip8201">
    <rect x="400" y="0" width="1401" height="1200"/>
  </clipPath>
</defs>
<polygon clip-path="url(#clip8200)" points="
137.865,1094.83 1952.76,1094.83 1952.76,47.2441 137.865,47.2441 
  " fill="#ffffff" fill-rule="evenodd" fill-opacity="1"/>
<defs>
  <clipPath id="clip8202">
    <rect x="137" y="47" width="1816" height="1049"/>
  </clipPath>
</defs>
<polyline clip-path="url(#clip8202)" style="stroke:#000000; stroke-width:2; stroke-opacity:0.1; fill:none" points="
  180.735,1094.83 180.735,47.2441 
  "/>
<polyline clip-path="url(#clip8202)" style="stroke:#000000; stroke-width:2; stroke-opacity:0.1; fill:none" points="
  616.436,1094.83 616.436,47.2441 
  "/>
<polyline clip-path="url(#clip8202)" style="stroke:#000000; stroke-width:2; stroke-opacity:0.1; fill:none" points="
  1052.14,1094.83 1052.14,47.2441 
  "/>
<polyline clip-path="url(#clip8202)" style="stroke:#000000; stroke-width:2; stroke-opacity:0.1; fill:none" points="
  1487.84,1094.83 1487.84,47.2441 
  "/>
<polyline clip-path="url(#clip8202)" style="stroke:#000000; stroke-width:2; stroke-opacity:0.1; fill:none" points="
  1923.54,1094.83 1923.54,47.2441 
  "/>
<polyline clip-path="url(#clip8202)" style="stroke:#000000; stroke-width:2; stroke-opacity:0.1; fill:none" points="
  137.865,1073.54 1952.76,1073.54 
  "/>
<polyline clip-path="url(#clip8202)" style="stroke:#000000; stroke-width:2; stroke-opacity:0.1; fill:none" points="
  137.865,745.27 1952.76,745.27 
  "/>
<polyline clip-path="url(#clip8202)" style="stroke:#000000; stroke-width:2; stroke-opacity:0.1; fill:none" points="
  137.865,417 1952.76,417 
  "/>
<polyline clip-path="url(#clip8202)" style="stroke:#000000; stroke-width:2; stroke-opacity:0.1; fill:none" points="
  137.865,88.7306 1952.76,88.7306 
  "/>
<polyline clip-path="url(#clip8200)" style="stroke:#000000; stroke-width:4; stroke-opacity:1; fill:none" points="
  137.865,1094.83 1952.76,1094.83 
  "/>
<polyline clip-path="url(#clip8200)" style="stroke:#000000; stroke-width:4; stroke-opacity:1; fill:none" points="
  137.865,1094.83 137.865,47.2441 
  "/>
<polyline clip-path="url(#clip8200)" style="stroke:#000000; stroke-width:4; stroke-opacity:1; fill:none" points="
  180.735,1094.83 180.735,1079.11 
  "/>
<polyline clip-path="url(#clip8200)" style="stroke:#000000; stroke-width:4; stroke-opacity:1; fill:none" points="
  616.436,1094.83 616.436,1079.11 
  "/>
<polyline clip-path="url(#clip8200)" style="stroke:#000000; stroke-width:4; stroke-opacity:1; fill:none" points="
  1052.14,1094.83 1052.14,1079.11 
  "/>
<polyline clip-path="url(#clip8200)" style="stroke:#000000; stroke-width:4; stroke-opacity:1; fill:none" points="
  1487.84,1094.83 1487.84,1079.11 
  "/>
<polyline clip-path="url(#clip8200)" style="stroke:#000000; stroke-width:4; stroke-opacity:1; fill:none" points="
  1923.54,1094.83 1923.54,1079.11 
  "/>
<polyline clip-path="url(#clip8200)" style="stroke:#000000; stroke-width:4; stroke-opacity:1; fill:none" points="
  137.865,1073.54 165.088,1073.54 
  "/>
<polyline clip-path="url(#clip8200)" style="stroke:#000000; stroke-width:4; stroke-opacity:1; fill:none" points="
  137.865,745.27 165.088,745.27 
  "/>
<polyline clip-path="url(#clip8200)" style="stroke:#000000; stroke-width:4; stroke-opacity:1; fill:none" points="
  137.865,417 165.088,417 
  "/>
<polyline clip-path="url(#clip8200)" style="stroke:#000000; stroke-width:4; stroke-opacity:1; fill:none" points="
  137.865,88.7306 165.088,88.7306 
  "/>
<g clip-path="url(#clip8200)">
<text style="fill:#000000; fill-opacity:1; font-family:Arial,Helvetica Neue,Helvetica,sans-serif; font-size:48px; text-anchor:middle;" transform="rotate(0, 180.735, 1146.83)" x="180.735" y="1146.83">0.00</text>
</g>
<g clip-path="url(#clip8200)">
<text style="fill:#000000; fill-opacity:1; font-family:Arial,Helvetica Neue,Helvetica,sans-serif; font-size:48px; text-anchor:middle;" transform="rotate(0, 616.436, 1146.83)" x="616.436" y="1146.83">0.25</text>
</g>
<g clip-path="url(#clip8200)">
<text style="fill:#000000; fill-opacity:1; font-family:Arial,Helvetica Neue,Helvetica,sans-serif; font-size:48px; text-anchor:middle;" transform="rotate(0, 1052.14, 1146.83)" x="1052.14" y="1146.83">0.50</text>
</g>
<g clip-path="url(#clip8200)">
<text style="fill:#000000; fill-opacity:1; font-family:Arial,Helvetica Neue,Helvetica,sans-serif; font-size:48px; text-anchor:middle;" transform="rotate(0, 1487.84, 1146.83)" x="1487.84" y="1146.83">0.75</text>
</g>
<g clip-path="url(#clip8200)">
<text style="fill:#000000; fill-opacity:1; font-family:Arial,Helvetica Neue,Helvetica,sans-serif; font-size:48px; text-anchor:middle;" transform="rotate(0, 1923.54, 1146.83)" x="1923.54" y="1146.83">1.00</text>
</g>
<g clip-path="url(#clip8200)">
<text style="fill:#000000; fill-opacity:1; font-family:Arial,Helvetica Neue,Helvetica,sans-serif; font-size:48px; text-anchor:end;" transform="rotate(0, 117.865, 1091.04)" x="117.865" y="1091.04">-1</text>
</g>
<g clip-path="url(#clip8200)">
<text style="fill:#000000; fill-opacity:1; font-family:Arial,Helvetica Neue,Helvetica,sans-serif; font-size:48px; text-anchor:end;" transform="rotate(0, 117.865, 762.77)" x="117.865" y="762.77">0</text>
</g>
<g clip-path="url(#clip8200)">
<text style="fill:#000000; fill-opacity:1; font-family:Arial,Helvetica Neue,Helvetica,sans-serif; font-size:48px; text-anchor:end;" transform="rotate(0, 117.865, 434.5)" x="117.865" y="434.5">1</text>
</g>
<g clip-path="url(#clip8200)">
<text style="fill:#000000; fill-opacity:1; font-family:Arial,Helvetica Neue,Helvetica,sans-serif; font-size:48px; text-anchor:end;" transform="rotate(0, 117.865, 106.231)" x="117.865" y="106.231">2</text>
</g>
<circle clip-path="url(#clip8202)" style="fill:#000000; stroke:none; fill-opacity:1" cx="1169.79" cy="698.079" r="18"/>
<circle clip-path="url(#clip8202)" style="fill:#009af9; stroke:none; fill-opacity:1" cx="1169.79" cy="698.079" r="14"/>
<circle clip-path="url(#clip8202)" style="fill:#000000; stroke:none; fill-opacity:1" cx="1822.11" cy="1052.01" r="18"/>
<circle clip-path="url(#clip8202)" style="fill:#009af9; stroke:none; fill-opacity:1" cx="1822.11" cy="1052.01" r="14"/>
<circle clip-path="url(#clip8202)" style="fill:#000000; stroke:none; fill-opacity:1" cx="1844.45" cy="996.441" r="18"/>
<circle clip-path="url(#clip8202)" style="fill:#009af9; stroke:none; fill-opacity:1" cx="1844.45" cy="996.441" r="14"/>
<circle clip-path="url(#clip8202)" style="fill:#000000; stroke:none; fill-opacity:1" cx="1484.73" cy="853.404" r="18"/>
<circle clip-path="url(#clip8202)" style="fill:#009af9; stroke:none; fill-opacity:1" cx="1484.73" cy="853.404" r="14"/>
<circle clip-path="url(#clip8202)" style="fill:#000000; stroke:none; fill-opacity:1" cx="1201.65" cy="665.553" r="18"/>
<circle clip-path="url(#clip8202)" style="fill:#009af9; stroke:none; fill-opacity:1" cx="1201.65" cy="665.553" r="14"/>
<circle clip-path="url(#clip8202)" style="fill:#000000; stroke:none; fill-opacity:1" cx="1542.95" cy="860.066" r="18"/>
<circle clip-path="url(#clip8202)" style="fill:#009af9; stroke:none; fill-opacity:1" cx="1542.95" cy="860.066" r="14"/>
<circle clip-path="url(#clip8202)" style="fill:#000000; stroke:none; fill-opacity:1" cx="1376.05" cy="763.223" r="18"/>
<circle clip-path="url(#clip8202)" style="fill:#009af9; stroke:none; fill-opacity:1" cx="1376.05" cy="763.223" r="14"/>
<circle clip-path="url(#clip8202)" style="fill:#000000; stroke:none; fill-opacity:1" cx="942.566" cy="498.251" r="18"/>
<circle clip-path="url(#clip8202)" style="fill:#009af9; stroke:none; fill-opacity:1" cx="942.566" cy="498.251" r="14"/>
<circle clip-path="url(#clip8202)" style="fill:#000000; stroke:none; fill-opacity:1" cx="220.721" cy="123.867" r="18"/>
<circle clip-path="url(#clip8202)" style="fill:#009af9; stroke:none; fill-opacity:1" cx="220.721" cy="123.867" r="14"/>
<circle clip-path="url(#clip8202)" style="fill:#000000; stroke:none; fill-opacity:1" cx="705.38" cy="265.993" r="18"/>
<circle clip-path="url(#clip8202)" style="fill:#009af9; stroke:none; fill-opacity:1" cx="705.38" cy="265.993" r="14"/>
<circle clip-path="url(#clip8202)" style="fill:#000000; stroke:none; fill-opacity:1" cx="351.894" cy="213.998" r="18"/>
<circle clip-path="url(#clip8202)" style="fill:#009af9; stroke:none; fill-opacity:1" cx="351.894" cy="213.998" r="14"/>
<circle clip-path="url(#clip8202)" style="fill:#000000; stroke:none; fill-opacity:1" cx="1391.69" cy="712.522" r="18"/>
<circle clip-path="url(#clip8202)" style="fill:#009af9; stroke:none; fill-opacity:1" cx="1391.69" cy="712.522" r="14"/>
<circle clip-path="url(#clip8202)" style="fill:#000000; stroke:none; fill-opacity:1" cx="250.169" cy="76.8927" r="18"/>
<circle clip-path="url(#clip8202)" style="fill:#009af9; stroke:none; fill-opacity:1" cx="250.169" cy="76.8927" r="14"/>
<circle clip-path="url(#clip8202)" style="fill:#000000; stroke:none; fill-opacity:1" cx="609.798" cy="286.789" r="18"/>
<circle clip-path="url(#clip8202)" style="fill:#009af9; stroke:none; fill-opacity:1" cx="609.798" cy="286.789" r="14"/>
<circle clip-path="url(#clip8202)" style="fill:#000000; stroke:none; fill-opacity:1" cx="378.589" cy="207.377" r="18"/>
<circle clip-path="url(#clip8202)" style="fill:#009af9; stroke:none; fill-opacity:1" cx="378.589" cy="207.377" r="14"/>
<circle clip-path="url(#clip8202)" style="fill:#000000; stroke:none; fill-opacity:1" cx="1093.18" cy="610.352" r="18"/>
<circle clip-path="url(#clip8202)" style="fill:#009af9; stroke:none; fill-opacity:1" cx="1093.18" cy="610.352" r="14"/>
<circle clip-path="url(#clip8202)" style="fill:#000000; stroke:none; fill-opacity:1" cx="1676.13" cy="932.185" r="18"/>
<circle clip-path="url(#clip8202)" style="fill:#009af9; stroke:none; fill-opacity:1" cx="1676.13" cy="932.185" r="14"/>
<circle clip-path="url(#clip8202)" style="fill:#000000; stroke:none; fill-opacity:1" cx="1347.97" cy="757.725" r="18"/>
<circle clip-path="url(#clip8202)" style="fill:#009af9; stroke:none; fill-opacity:1" cx="1347.97" cy="757.725" r="14"/>
<circle clip-path="url(#clip8202)" style="fill:#000000; stroke:none; fill-opacity:1" cx="1295.89" cy="713.344" r="18"/>
<circle clip-path="url(#clip8202)" style="fill:#009af9; stroke:none; fill-opacity:1" cx="1295.89" cy="713.344" r="14"/>
<circle clip-path="url(#clip8202)" style="fill:#000000; stroke:none; fill-opacity:1" cx="941.497" cy="547.436" r="18"/>
<circle clip-path="url(#clip8202)" style="fill:#009af9; stroke:none; fill-opacity:1" cx="941.497" cy="547.436" r="14"/>
<circle clip-path="url(#clip8202)" style="fill:#000000; stroke:none; fill-opacity:1" cx="1495.85" cy="855.964" r="18"/>
<circle clip-path="url(#clip8202)" style="fill:#009af9; stroke:none; fill-opacity:1" cx="1495.85" cy="855.964" r="14"/>
<circle clip-path="url(#clip8202)" style="fill:#000000; stroke:none; fill-opacity:1" cx="1230.34" cy="698.842" r="18"/>
<circle clip-path="url(#clip8202)" style="fill:#009af9; stroke:none; fill-opacity:1" cx="1230.34" cy="698.842" r="14"/>
<circle clip-path="url(#clip8202)" style="fill:#000000; stroke:none; fill-opacity:1" cx="779.567" cy="389.977" r="18"/>
<circle clip-path="url(#clip8202)" style="fill:#009af9; stroke:none; fill-opacity:1" cx="779.567" cy="389.977" r="14"/>
<circle clip-path="url(#clip8202)" style="fill:#000000; stroke:none; fill-opacity:1" cx="949.523" cy="565.511" r="18"/>
<circle clip-path="url(#clip8202)" style="fill:#009af9; stroke:none; fill-opacity:1" cx="949.523" cy="565.511" r="14"/>
<circle clip-path="url(#clip8202)" style="fill:#000000; stroke:none; fill-opacity:1" cx="850.499" cy="464.962" r="18"/>
<circle clip-path="url(#clip8202)" style="fill:#009af9; stroke:none; fill-opacity:1" cx="850.499" cy="464.962" r="14"/>
<circle clip-path="url(#clip8202)" style="fill:#000000; stroke:none; fill-opacity:1" cx="384.076" cy="216.464" r="18"/>
<circle clip-path="url(#clip8202)" style="fill:#009af9; stroke:none; fill-opacity:1" cx="384.076" cy="216.464" r="14"/>
<circle clip-path="url(#clip8202)" style="fill:#000000; stroke:none; fill-opacity:1" cx="665.211" cy="355.942" r="18"/>
<circle clip-path="url(#clip8202)" style="fill:#009af9; stroke:none; fill-opacity:1" cx="665.211" cy="355.942" r="14"/>
<circle clip-path="url(#clip8202)" style="fill:#000000; stroke:none; fill-opacity:1" cx="1551.74" cy="859.789" r="18"/>
<circle clip-path="url(#clip8202)" style="fill:#009af9; stroke:none; fill-opacity:1" cx="1551.74" cy="859.789" r="14"/>
<circle clip-path="url(#clip8202)" style="fill:#000000; stroke:none; fill-opacity:1" cx="814.537" cy="435.19" r="18"/>
<circle clip-path="url(#clip8202)" style="fill:#009af9; stroke:none; fill-opacity:1" cx="814.537" cy="435.19" r="14"/>
<circle clip-path="url(#clip8202)" style="fill:#000000; stroke:none; fill-opacity:1" cx="699.572" cy="409.774" r="18"/>
<circle clip-path="url(#clip8202)" style="fill:#009af9; stroke:none; fill-opacity:1" cx="699.572" cy="409.774" r="14"/>
<circle clip-path="url(#clip8202)" style="fill:#000000; stroke:none; fill-opacity:1" cx="189.229" cy="118.377" r="18"/>
<circle clip-path="url(#clip8202)" style="fill:#009af9; stroke:none; fill-opacity:1" cx="189.229" cy="118.377" r="14"/>
<circle clip-path="url(#clip8202)" style="fill:#000000; stroke:none; fill-opacity:1" cx="1651.08" cy="926.327" r="18"/>
<circle clip-path="url(#clip8202)" style="fill:#009af9; stroke:none; fill-opacity:1" cx="1651.08" cy="926.327" r="14"/>
<circle clip-path="url(#clip8202)" style="fill:#000000; stroke:none; fill-opacity:1" cx="1368.26" cy="811.488" r="18"/>
<circle clip-path="url(#clip8202)" style="fill:#009af9; stroke:none; fill-opacity:1" cx="1368.26" cy="811.488" r="14"/>
<circle clip-path="url(#clip8202)" style="fill:#000000; stroke:none; fill-opacity:1" cx="1511.59" cy="852.239" r="18"/>
<circle clip-path="url(#clip8202)" style="fill:#009af9; stroke:none; fill-opacity:1" cx="1511.59" cy="852.239" r="14"/>
<circle clip-path="url(#clip8202)" style="fill:#000000; stroke:none; fill-opacity:1" cx="1598.5" cy="896.987" r="18"/>
<circle clip-path="url(#clip8202)" style="fill:#009af9; stroke:none; fill-opacity:1" cx="1598.5" cy="896.987" r="14"/>
<circle clip-path="url(#clip8202)" style="fill:#000000; stroke:none; fill-opacity:1" cx="822.685" cy="446.12" r="18"/>
<circle clip-path="url(#clip8202)" style="fill:#009af9; stroke:none; fill-opacity:1" cx="822.685" cy="446.12" r="14"/>
<circle clip-path="url(#clip8202)" style="fill:#000000; stroke:none; fill-opacity:1" cx="1346.65" cy="764.936" r="18"/>
<circle clip-path="url(#clip8202)" style="fill:#009af9; stroke:none; fill-opacity:1" cx="1346.65" cy="764.936" r="14"/>
<circle clip-path="url(#clip8202)" style="fill:#000000; stroke:none; fill-opacity:1" cx="1559.28" cy="893.565" r="18"/>
<circle clip-path="url(#clip8202)" style="fill:#009af9; stroke:none; fill-opacity:1" cx="1559.28" cy="893.565" r="14"/>
<circle clip-path="url(#clip8202)" style="fill:#000000; stroke:none; fill-opacity:1" cx="1848.99" cy="1055.61" r="18"/>
<circle clip-path="url(#clip8202)" style="fill:#009af9; stroke:none; fill-opacity:1" cx="1848.99" cy="1055.61" r="14"/>
<circle clip-path="url(#clip8202)" style="fill:#000000; stroke:none; fill-opacity:1" cx="632.98" cy="337.893" r="18"/>
<circle clip-path="url(#clip8202)" style="fill:#009af9; stroke:none; fill-opacity:1" cx="632.98" cy="337.893" r="14"/>
<circle clip-path="url(#clip8202)" style="fill:#000000; stroke:none; fill-opacity:1" cx="1171.46" cy="614.465" r="18"/>
<circle clip-path="url(#clip8202)" style="fill:#009af9; stroke:none; fill-opacity:1" cx="1171.46" cy="614.465" r="14"/>
<circle clip-path="url(#clip8202)" style="fill:#000000; stroke:none; fill-opacity:1" cx="649.734" cy="328.515" r="18"/>
<circle clip-path="url(#clip8202)" style="fill:#009af9; stroke:none; fill-opacity:1" cx="649.734" cy="328.515" r="14"/>
<circle clip-path="url(#clip8202)" style="fill:#000000; stroke:none; fill-opacity:1" cx="727.624" cy="387.958" r="18"/>
<circle clip-path="url(#clip8202)" style="fill:#009af9; stroke:none; fill-opacity:1" cx="727.624" cy="387.958" r="14"/>
<circle clip-path="url(#clip8202)" style="fill:#000000; stroke:none; fill-opacity:1" cx="1021.04" cy="550.182" r="18"/>
<circle clip-path="url(#clip8202)" style="fill:#009af9; stroke:none; fill-opacity:1" cx="1021.04" cy="550.182" r="14"/>
<circle clip-path="url(#clip8202)" style="fill:#000000; stroke:none; fill-opacity:1" cx="669.501" cy="347.717" r="18"/>
<circle clip-path="url(#clip8202)" style="fill:#009af9; stroke:none; fill-opacity:1" cx="669.501" cy="347.717" r="14"/>
<circle clip-path="url(#clip8202)" style="fill:#000000; stroke:none; fill-opacity:1" cx="882.569" cy="496.181" r="18"/>
<circle clip-path="url(#clip8202)" style="fill:#009af9; stroke:none; fill-opacity:1" cx="882.569" cy="496.181" r="14"/>
<circle clip-path="url(#clip8202)" style="fill:#000000; stroke:none; fill-opacity:1" cx="1746.52" cy="985.629" r="18"/>
<circle clip-path="url(#clip8202)" style="fill:#009af9; stroke:none; fill-opacity:1" cx="1746.52" cy="985.629" r="14"/>
<circle clip-path="url(#clip8202)" style="fill:#000000; stroke:none; fill-opacity:1" cx="1240.38" cy="683.263" r="18"/>
<circle clip-path="url(#clip8202)" style="fill:#009af9; stroke:none; fill-opacity:1" cx="1240.38" cy="683.263" r="14"/>
<circle clip-path="url(#clip8202)" style="fill:#000000; stroke:none; fill-opacity:1" cx="1434.45" cy="810.602" r="18"/>
<circle clip-path="url(#clip8202)" style="fill:#009af9; stroke:none; fill-opacity:1" cx="1434.45" cy="810.602" r="14"/>
<circle clip-path="url(#clip8202)" style="fill:#000000; stroke:none; fill-opacity:1" cx="801.501" cy="409.089" r="18"/>
<circle clip-path="url(#clip8202)" style="fill:#009af9; stroke:none; fill-opacity:1" cx="801.501" cy="409.089" r="14"/>
<circle clip-path="url(#clip8202)" style="fill:#000000; stroke:none; fill-opacity:1" cx="764.995" cy="404.858" r="18"/>
<circle clip-path="url(#clip8202)" style="fill:#009af9; stroke:none; fill-opacity:1" cx="764.995" cy="404.858" r="14"/>
<circle clip-path="url(#clip8202)" style="fill:#000000; stroke:none; fill-opacity:1" cx="1111.78" cy="604.228" r="18"/>
<circle clip-path="url(#clip8202)" style="fill:#009af9; stroke:none; fill-opacity:1" cx="1111.78" cy="604.228" r="14"/>
<circle clip-path="url(#clip8202)" style="fill:#000000; stroke:none; fill-opacity:1" cx="993.745" cy="634.816" r="18"/>
<circle clip-path="url(#clip8202)" style="fill:#009af9; stroke:none; fill-opacity:1" cx="993.745" cy="634.816" r="14"/>
<circle clip-path="url(#clip8202)" style="fill:#000000; stroke:none; fill-opacity:1" cx="233.296" cy="121.22" r="18"/>
<circle clip-path="url(#clip8202)" style="fill:#009af9; stroke:none; fill-opacity:1" cx="233.296" cy="121.22" r="14"/>
<circle clip-path="url(#clip8202)" style="fill:#000000; stroke:none; fill-opacity:1" cx="1660.68" cy="916.266" r="18"/>
<circle clip-path="url(#clip8202)" style="fill:#009af9; stroke:none; fill-opacity:1" cx="1660.68" cy="916.266" r="14"/>
<circle clip-path="url(#clip8202)" style="fill:#000000; stroke:none; fill-opacity:1" cx="313.757" cy="147.97" r="18"/>
<circle clip-path="url(#clip8202)" style="fill:#009af9; stroke:none; fill-opacity:1" cx="313.757" cy="147.97" r="14"/>
<circle clip-path="url(#clip8202)" style="fill:#000000; stroke:none; fill-opacity:1" cx="1419.41" cy="783.963" r="18"/>
<circle clip-path="url(#clip8202)" style="fill:#009af9; stroke:none; fill-opacity:1" cx="1419.41" cy="783.963" r="14"/>
<circle clip-path="url(#clip8202)" style="fill:#000000; stroke:none; fill-opacity:1" cx="1389.9" cy="750.132" r="18"/>
<circle clip-path="url(#clip8202)" style="fill:#009af9; stroke:none; fill-opacity:1" cx="1389.9" cy="750.132" r="14"/>
<circle clip-path="url(#clip8202)" style="fill:#000000; stroke:none; fill-opacity:1" cx="843.336" cy="456.878" r="18"/>
<circle clip-path="url(#clip8202)" style="fill:#009af9; stroke:none; fill-opacity:1" cx="843.336" cy="456.878" r="14"/>
<circle clip-path="url(#clip8202)" style="fill:#000000; stroke:none; fill-opacity:1" cx="1091.91" cy="685.695" r="18"/>
<circle clip-path="url(#clip8202)" style="fill:#009af9; stroke:none; fill-opacity:1" cx="1091.91" cy="685.695" r="14"/>
<circle clip-path="url(#clip8202)" style="fill:#000000; stroke:none; fill-opacity:1" cx="661.952" cy="314.726" r="18"/>
<circle clip-path="url(#clip8202)" style="fill:#009af9; stroke:none; fill-opacity:1" cx="661.952" cy="314.726" r="14"/>
<circle clip-path="url(#clip8202)" style="fill:#000000; stroke:none; fill-opacity:1" cx="618.814" cy="328.127" r="18"/>
<circle clip-path="url(#clip8202)" style="fill:#009af9; stroke:none; fill-opacity:1" cx="618.814" cy="328.127" r="14"/>
<circle clip-path="url(#clip8202)" style="fill:#000000; stroke:none; fill-opacity:1" cx="1785.34" cy="996.544" r="18"/>
<circle clip-path="url(#clip8202)" style="fill:#009af9; stroke:none; fill-opacity:1" cx="1785.34" cy="996.544" r="14"/>
<circle clip-path="url(#clip8202)" style="fill:#000000; stroke:none; fill-opacity:1" cx="951.848" cy="539.221" r="18"/>
<circle clip-path="url(#clip8202)" style="fill:#009af9; stroke:none; fill-opacity:1" cx="951.848" cy="539.221" r="14"/>
<circle clip-path="url(#clip8202)" style="fill:#000000; stroke:none; fill-opacity:1" cx="305.97" cy="159.43" r="18"/>
<circle clip-path="url(#clip8202)" style="fill:#009af9; stroke:none; fill-opacity:1" cx="305.97" cy="159.43" r="14"/>
<circle clip-path="url(#clip8202)" style="fill:#000000; stroke:none; fill-opacity:1" cx="476.613" cy="220.625" r="18"/>
<circle clip-path="url(#clip8202)" style="fill:#009af9; stroke:none; fill-opacity:1" cx="476.613" cy="220.625" r="14"/>
<circle clip-path="url(#clip8202)" style="fill:#000000; stroke:none; fill-opacity:1" cx="1089" cy="540.256" r="18"/>
<circle clip-path="url(#clip8202)" style="fill:#009af9; stroke:none; fill-opacity:1" cx="1089" cy="540.256" r="14"/>
<circle clip-path="url(#clip8202)" style="fill:#000000; stroke:none; fill-opacity:1" cx="1215.26" cy="666.045" r="18"/>
<circle clip-path="url(#clip8202)" style="fill:#009af9; stroke:none; fill-opacity:1" cx="1215.26" cy="666.045" r="14"/>
<circle clip-path="url(#clip8202)" style="fill:#000000; stroke:none; fill-opacity:1" cx="508.75" cy="252.479" r="18"/>
<circle clip-path="url(#clip8202)" style="fill:#009af9; stroke:none; fill-opacity:1" cx="508.75" cy="252.479" r="14"/>
<circle clip-path="url(#clip8202)" style="fill:#000000; stroke:none; fill-opacity:1" cx="1876.28" cy="1048.87" r="18"/>
<circle clip-path="url(#clip8202)" style="fill:#009af9; stroke:none; fill-opacity:1" cx="1876.28" cy="1048.87" r="14"/>
<circle clip-path="url(#clip8202)" style="fill:#000000; stroke:none; fill-opacity:1" cx="1237.67" cy="662.485" r="18"/>
<circle clip-path="url(#clip8202)" style="fill:#009af9; stroke:none; fill-opacity:1" cx="1237.67" cy="662.485" r="14"/>
<circle clip-path="url(#clip8202)" style="fill:#000000; stroke:none; fill-opacity:1" cx="283.316" cy="152.761" r="18"/>
<circle clip-path="url(#clip8202)" style="fill:#009af9; stroke:none; fill-opacity:1" cx="283.316" cy="152.761" r="14"/>
<circle clip-path="url(#clip8202)" style="fill:#000000; stroke:none; fill-opacity:1" cx="1848.24" cy="999.624" r="18"/>
<circle clip-path="url(#clip8202)" style="fill:#009af9; stroke:none; fill-opacity:1" cx="1848.24" cy="999.624" r="14"/>
<circle clip-path="url(#clip8202)" style="fill:#000000; stroke:none; fill-opacity:1" cx="1307.46" cy="727.481" r="18"/>
<circle clip-path="url(#clip8202)" style="fill:#009af9; stroke:none; fill-opacity:1" cx="1307.46" cy="727.481" r="14"/>
<circle clip-path="url(#clip8202)" style="fill:#000000; stroke:none; fill-opacity:1" cx="1688.35" cy="935.334" r="18"/>
<circle clip-path="url(#clip8202)" style="fill:#009af9; stroke:none; fill-opacity:1" cx="1688.35" cy="935.334" r="14"/>
<circle clip-path="url(#clip8202)" style="fill:#000000; stroke:none; fill-opacity:1" cx="390.037" cy="200.757" r="18"/>
<circle clip-path="url(#clip8202)" style="fill:#009af9; stroke:none; fill-opacity:1" cx="390.037" cy="200.757" r="14"/>
<circle clip-path="url(#clip8202)" style="fill:#000000; stroke:none; fill-opacity:1" cx="1689.11" cy="949.956" r="18"/>
<circle clip-path="url(#clip8202)" style="fill:#009af9; stroke:none; fill-opacity:1" cx="1689.11" cy="949.956" r="14"/>
<circle clip-path="url(#clip8202)" style="fill:#000000; stroke:none; fill-opacity:1" cx="657.944" cy="336.762" r="18"/>
<circle clip-path="url(#clip8202)" style="fill:#009af9; stroke:none; fill-opacity:1" cx="657.944" cy="336.762" r="14"/>
<circle clip-path="url(#clip8202)" style="fill:#000000; stroke:none; fill-opacity:1" cx="384.168" cy="247.131" r="18"/>
<circle clip-path="url(#clip8202)" style="fill:#009af9; stroke:none; fill-opacity:1" cx="384.168" cy="247.131" r="14"/>
<circle clip-path="url(#clip8202)" style="fill:#000000; stroke:none; fill-opacity:1" cx="529.454" cy="296.075" r="18"/>
<circle clip-path="url(#clip8202)" style="fill:#009af9; stroke:none; fill-opacity:1" cx="529.454" cy="296.075" r="14"/>
<circle clip-path="url(#clip8202)" style="fill:#000000; stroke:none; fill-opacity:1" cx="1265.59" cy="747.317" r="18"/>
<circle clip-path="url(#clip8202)" style="fill:#009af9; stroke:none; fill-opacity:1" cx="1265.59" cy="747.317" r="14"/>
<circle clip-path="url(#clip8202)" style="fill:#000000; stroke:none; fill-opacity:1" cx="289.137" cy="159.21" r="18"/>
<circle clip-path="url(#clip8202)" style="fill:#009af9; stroke:none; fill-opacity:1" cx="289.137" cy="159.21" r="14"/>
<circle clip-path="url(#clip8202)" style="fill:#000000; stroke:none; fill-opacity:1" cx="1698.96" cy="953.23" r="18"/>
<circle clip-path="url(#clip8202)" style="fill:#009af9; stroke:none; fill-opacity:1" cx="1698.96" cy="953.23" r="14"/>
<circle clip-path="url(#clip8202)" style="fill:#000000; stroke:none; fill-opacity:1" cx="844.505" cy="525.846" r="18"/>
<circle clip-path="url(#clip8202)" style="fill:#009af9; stroke:none; fill-opacity:1" cx="844.505" cy="525.846" r="14"/>
<circle clip-path="url(#clip8202)" style="fill:#000000; stroke:none; fill-opacity:1" cx="654.497" cy="378.885" r="18"/>
<circle clip-path="url(#clip8202)" style="fill:#009af9; stroke:none; fill-opacity:1" cx="654.497" cy="378.885" r="14"/>
<circle clip-path="url(#clip8202)" style="fill:#000000; stroke:none; fill-opacity:1" cx="1631.88" cy="868.612" r="18"/>
<circle clip-path="url(#clip8202)" style="fill:#009af9; stroke:none; fill-opacity:1" cx="1631.88" cy="868.612" r="14"/>
<circle clip-path="url(#clip8202)" style="fill:#000000; stroke:none; fill-opacity:1" cx="761.351" cy="388.249" r="18"/>
<circle clip-path="url(#clip8202)" style="fill:#009af9; stroke:none; fill-opacity:1" cx="761.351" cy="388.249" r="14"/>
<circle clip-path="url(#clip8202)" style="fill:#000000; stroke:none; fill-opacity:1" cx="227.929" cy="149.441" r="18"/>
<circle clip-path="url(#clip8202)" style="fill:#009af9; stroke:none; fill-opacity:1" cx="227.929" cy="149.441" r="14"/>
<circle clip-path="url(#clip8202)" style="fill:#000000; stroke:none; fill-opacity:1" cx="1033.41" cy="529.752" r="18"/>
<circle clip-path="url(#clip8202)" style="fill:#009af9; stroke:none; fill-opacity:1" cx="1033.41" cy="529.752" r="14"/>
<circle clip-path="url(#clip8202)" style="fill:#000000; stroke:none; fill-opacity:1" cx="1777.37" cy="928.107" r="18"/>
<circle clip-path="url(#clip8202)" style="fill:#009af9; stroke:none; fill-opacity:1" cx="1777.37" cy="928.107" r="14"/>
<circle clip-path="url(#clip8202)" style="fill:#000000; stroke:none; fill-opacity:1" cx="1046.54" cy="586.811" r="18"/>
<circle clip-path="url(#clip8202)" style="fill:#009af9; stroke:none; fill-opacity:1" cx="1046.54" cy="586.811" r="14"/>
<circle clip-path="url(#clip8202)" style="fill:#000000; stroke:none; fill-opacity:1" cx="677.897" cy="373.468" r="18"/>
<circle clip-path="url(#clip8202)" style="fill:#009af9; stroke:none; fill-opacity:1" cx="677.897" cy="373.468" r="14"/>
<circle clip-path="url(#clip8202)" style="fill:#000000; stroke:none; fill-opacity:1" cx="826.286" cy="435.326" r="18"/>
<circle clip-path="url(#clip8202)" style="fill:#009af9; stroke:none; fill-opacity:1" cx="826.286" cy="435.326" r="14"/>
<circle clip-path="url(#clip8202)" style="fill:#000000; stroke:none; fill-opacity:1" cx="1189.85" cy="612.017" r="18"/>
<circle clip-path="url(#clip8202)" style="fill:#009af9; stroke:none; fill-opacity:1" cx="1189.85" cy="612.017" r="14"/>
<circle clip-path="url(#clip8202)" style="fill:#000000; stroke:none; fill-opacity:1" cx="1559.17" cy="903.314" r="18"/>
<circle clip-path="url(#clip8202)" style="fill:#009af9; stroke:none; fill-opacity:1" cx="1559.17" cy="903.314" r="14"/>
<circle clip-path="url(#clip8202)" style="fill:#000000; stroke:none; fill-opacity:1" cx="1757.65" cy="1004.25" r="18"/>
<circle clip-path="url(#clip8202)" style="fill:#009af9; stroke:none; fill-opacity:1" cx="1757.65" cy="1004.25" r="14"/>
<circle clip-path="url(#clip8202)" style="fill:#000000; stroke:none; fill-opacity:1" cx="1650.5" cy="947.459" r="18"/>
<circle clip-path="url(#clip8202)" style="fill:#009af9; stroke:none; fill-opacity:1" cx="1650.5" cy="947.459" r="14"/>
<circle clip-path="url(#clip8202)" style="fill:#000000; stroke:none; fill-opacity:1" cx="1310.59" cy="781.695" r="18"/>
<circle clip-path="url(#clip8202)" style="fill:#009af9; stroke:none; fill-opacity:1" cx="1310.59" cy="781.695" r="14"/>
<circle clip-path="url(#clip8202)" style="fill:#000000; stroke:none; fill-opacity:1" cx="1003.5" cy="560.874" r="18"/>
<circle clip-path="url(#clip8202)" style="fill:#009af9; stroke:none; fill-opacity:1" cx="1003.5" cy="560.874" r="14"/>
<circle clip-path="url(#clip8202)" style="fill:#000000; stroke:none; fill-opacity:1" cx="802.644" cy="398.14" r="18"/>
<circle clip-path="url(#clip8202)" style="fill:#009af9; stroke:none; fill-opacity:1" cx="802.644" cy="398.14" r="14"/>
<polyline clip-path="url(#clip8202)" style="stroke:#e26f46; stroke-width:12; stroke-opacity:1; fill:none" points="
  197.755,93.4972 355.128,183.257 449.703,237.198 529.665,282.805 616.527,332.347 696.605,378.02 782.457,426.987 881.926,483.72 970.322,534.137 1047.84,578.348 
  1132.35,626.551 1217.36,675.039 1311.36,728.65 1400.79,779.659 1493.78,832.696 1572.06,877.343 1667.63,931.851 1757.47,983.09 1901.39,1065.18 
  "/>
<polygon clip-path="url(#clip8200)" points="
1393.12,227.724 1892.76,227.724 1892.76,106.764 1393.12,106.764 
  " fill="#ffffff" fill-rule="evenodd" fill-opacity="1"/>
<polyline clip-path="url(#clip8200)" style="stroke:#000000; stroke-width:4; stroke-opacity:1; fill:none" points="
  1393.12,227.724 1892.76,227.724 1892.76,106.764 1393.12,106.764 1393.12,227.724 
  "/>
<polyline clip-path="url(#clip8200)" style="stroke:#e26f46; stroke-width:12; stroke-opacity:1; fill:none" points="
  1413.12,167.244 1533.12,167.244 
  "/>
<g clip-path="url(#clip8200)">
<text style="fill:#000000; fill-opacity:1; font-family:Arial,Helvetica Neue,Helvetica,sans-serif; font-size:48px; text-anchor:start;" transform="rotate(0, 1553.12, 184.744)" x="1553.12" y="184.744">LinearAlgebra</text>
</g>
</svg>
