<?xml version="1.0" encoding="utf-8"?>
<svg xmlns="http://www.w3.org/2000/svg" xmlns:xlink="http://www.w3.org/1999/xlink" width="600" height="500" viewBox="0 0 2400 2000">
<defs>
  <clipPath id="clip3500">
    <rect x="0" y="0" width="2400" height="2000"/>
  </clipPath>
</defs>
<polygon clip-path="url(#clip3500)" points="
0,2000 2400,2000 2400,0 0,0 
  " fill="#ffffff" fill-rule="evenodd" fill-opacity="1"/>
<defs>
  <clipPath id="clip3501">
    <rect x="480" y="0" width="1681" height="1681"/>
  </clipPath>
</defs>
<polygon clip-path="url(#clip3500)" points="
319.332,1875.09 2147.18,1875.09 2147.18,47.2441 319.332,47.2441 
  " fill="#ffffff" fill-rule="evenodd" fill-opacity="1"/>
<defs>
  <clipPath id="clip3502">
    <rect x="319" y="47" width="1829" height="1829"/>
  </clipPath>
</defs>
<polyline clip-path="url(#clip3500)" style="stroke:#cccccc; stroke-width:2; stroke-opacity:0.1; fill:none" points="
  319.332,1325.65 1233.26,776.215 
  "/>
<polyline clip-path="url(#clip3500)" style="stroke:#cccccc; stroke-width:2; stroke-opacity:0.1; fill:none" points="
  1233.26,776.215 1233.26,47.2441 
  "/>
<polyline clip-path="url(#clip3500)" style="stroke:#ededed; stroke-width:2; stroke-opacity:0.1; fill:none" points="
  433.572,1394.33 1347.5,844.894 
  "/>
<polyline clip-path="url(#clip3500)" style="stroke:#ededed; stroke-width:2; stroke-opacity:0.1; fill:none" points="
  1347.5,844.894 1347.5,115.924 
  "/>
<polyline clip-path="url(#clip3500)" style="stroke:#cccccc; stroke-width:2; stroke-opacity:0.1; fill:none" points="
  547.812,1463.01 1461.74,913.574 
  "/>
<polyline clip-path="url(#clip3500)" style="stroke:#cccccc; stroke-width:2; stroke-opacity:0.1; fill:none" points="
  1461.74,913.574 1461.74,184.604 
  "/>
<polyline clip-path="url(#clip3500)" style="stroke:#ededed; stroke-width:2; stroke-opacity:0.1; fill:none" points="
  662.053,1531.69 1575.98,982.254 
  "/>
<polyline clip-path="url(#clip3500)" style="stroke:#ededed; stroke-width:2; stroke-opacity:0.1; fill:none" points="
  1575.98,982.254 1575.98,253.284 
  "/>
<polyline clip-path="url(#clip3500)" style="stroke:#cccccc; stroke-width:2; stroke-opacity:0.1; fill:none" points="
  776.293,1600.37 1690.22,1050.93 
  "/>
<polyline clip-path="url(#clip3500)" style="stroke:#cccccc; stroke-width:2; stroke-opacity:0.1; fill:none" points="
  1690.22,1050.93 1690.22,321.963 
  "/>
<polyline clip-path="url(#clip3500)" style="stroke:#ededed; stroke-width:2; stroke-opacity:0.1; fill:none" points="
  890.534,1669.05 1804.46,1119.61 
  "/>
<polyline clip-path="url(#clip3500)" style="stroke:#ededed; stroke-width:2; stroke-opacity:0.1; fill:none" points="
  1804.46,1119.61 1804.46,390.643 
  "/>
<polyline clip-path="url(#clip3500)" style="stroke:#cccccc; stroke-width:2; stroke-opacity:0.1; fill:none" points="
  1004.77,1737.73 1918.7,1188.29 
  "/>
<polyline clip-path="url(#clip3500)" style="stroke:#cccccc; stroke-width:2; stroke-opacity:0.1; fill:none" points="
  1918.7,1188.29 1918.7,459.323 
  "/>
<polyline clip-path="url(#clip3500)" style="stroke:#ededed; stroke-width:2; stroke-opacity:0.1; fill:none" points="
  1119.01,1806.41 2032.94,1256.97 
  "/>
<polyline clip-path="url(#clip3500)" style="stroke:#ededed; stroke-width:2; stroke-opacity:0.1; fill:none" points="
  2032.94,1256.97 2032.94,528.003 
  "/>
<polyline clip-path="url(#clip3500)" style="stroke:#cccccc; stroke-width:2; stroke-opacity:0.1; fill:none" points="
  1233.26,1875.09 2147.18,1325.65 
  "/>
<polyline clip-path="url(#clip3500)" style="stroke:#cccccc; stroke-width:2; stroke-opacity:0.1; fill:none" points="
  2147.18,1325.65 2147.18,596.683 
  "/>
<polyline clip-path="url(#clip3500)" style="stroke:#ededed; stroke-width:2; stroke-opacity:0.1; fill:none" points="
  433.572,1256.97 1347.5,1806.41 
  "/>
<polyline clip-path="url(#clip3500)" style="stroke:#ededed; stroke-width:2; stroke-opacity:0.1; fill:none" points="
  433.572,1256.97 433.572,528.003 
  "/>
<polyline clip-path="url(#clip3500)" style="stroke:#cccccc; stroke-width:2; stroke-opacity:0.1; fill:none" points="
  547.812,1188.29 1461.74,1737.73 
  "/>
<polyline clip-path="url(#clip3500)" style="stroke:#cccccc; stroke-width:2; stroke-opacity:0.1; fill:none" points="
  547.812,1188.29 547.812,459.323 
  "/>
<polyline clip-path="url(#clip3500)" style="stroke:#ededed; stroke-width:2; stroke-opacity:0.1; fill:none" points="
  662.053,1119.61 1575.98,1669.05 
  "/>
<polyline clip-path="url(#clip3500)" style="stroke:#ededed; stroke-width:2; stroke-opacity:0.1; fill:none" points="
  662.053,1119.61 662.053,390.643 
  "/>
<polyline clip-path="url(#clip3500)" style="stroke:#cccccc; stroke-width:2; stroke-opacity:0.1; fill:none" points="
  776.293,1050.93 1690.22,1600.37 
  "/>
<polyline clip-path="url(#clip3500)" style="stroke:#cccccc; stroke-width:2; stroke-opacity:0.1; fill:none" points="
  776.293,1050.93 776.293,321.963 
  "/>
<polyline clip-path="url(#clip3500)" style="stroke:#ededed; stroke-width:2; stroke-opacity:0.1; fill:none" points="
  890.534,982.254 1804.46,1531.69 
  "/>
<polyline clip-path="url(#clip3500)" style="stroke:#ededed; stroke-width:2; stroke-opacity:0.1; fill:none" points="
  890.534,982.254 890.534,253.284 
  "/>
<polyline clip-path="url(#clip3500)" style="stroke:#cccccc; stroke-width:2; stroke-opacity:0.1; fill:none" points="
  1004.77,913.574 1918.7,1463.01 
  "/>
<polyline clip-path="url(#clip3500)" style="stroke:#cccccc; stroke-width:2; stroke-opacity:0.1; fill:none" points="
  1004.77,913.574 1004.77,184.604 
  "/>
<polyline clip-path="url(#clip3500)" style="stroke:#ededed; stroke-width:2; stroke-opacity:0.1; fill:none" points="
  1119.01,844.894 2032.94,1394.33 
  "/>
<polyline clip-path="url(#clip3500)" style="stroke:#ededed; stroke-width:2; stroke-opacity:0.1; fill:none" points="
  1119.01,844.894 1119.01,115.924 
  "/>
<polyline clip-path="url(#clip3500)" style="stroke:#cccccc; stroke-width:2; stroke-opacity:0.1; fill:none" points="
  1233.26,776.215 2147.18,1325.65 
  "/>
<polyline clip-path="url(#clip3500)" style="stroke:#cccccc; stroke-width:2; stroke-opacity:0.1; fill:none" points="
  1233.26,776.215 1233.26,47.2441 
  "/>
<polyline clip-path="url(#clip3500)" style="stroke:#ededed; stroke-width:2; stroke-opacity:0.1; fill:none" points="
  319.332,1252.76 1233.26,703.318 
  "/>
<polyline clip-path="url(#clip3500)" style="stroke:#ededed; stroke-width:2; stroke-opacity:0.1; fill:none" points="
  1233.26,703.318 2147.18,1252.76 
  "/>
<polyline clip-path="url(#clip3500)" style="stroke:#cccccc; stroke-width:2; stroke-opacity:0.1; fill:none" points="
  319.332,1179.86 1233.26,630.42 
  "/>
<polyline clip-path="url(#clip3500)" style="stroke:#cccccc; stroke-width:2; stroke-opacity:0.1; fill:none" points="
  1233.26,630.42 2147.18,1179.86 
  "/>
<polyline clip-path="url(#clip3500)" style="stroke:#ededed; stroke-width:2; stroke-opacity:0.1; fill:none" points="
  319.332,1106.96 1233.26,557.523 
  "/>
<polyline clip-path="url(#clip3500)" style="stroke:#ededed; stroke-width:2; stroke-opacity:0.1; fill:none" points="
  1233.26,557.523 2147.18,1106.96 
  "/>
<polyline clip-path="url(#clip3500)" style="stroke:#cccccc; stroke-width:2; stroke-opacity:0.1; fill:none" points="
  319.332,1034.06 1233.26,484.626 
  "/>
<polyline clip-path="url(#clip3500)" style="stroke:#cccccc; stroke-width:2; stroke-opacity:0.1; fill:none" points="
  1233.26,484.626 2147.18,1034.06 
  "/>
<polyline clip-path="url(#clip3500)" style="stroke:#ededed; stroke-width:2; stroke-opacity:0.1; fill:none" points="
  319.332,961.168 1233.26,411.729 
  "/>
<polyline clip-path="url(#clip3500)" style="stroke:#ededed; stroke-width:2; stroke-opacity:0.1; fill:none" points="
  1233.26,411.729 2147.18,961.168 
  "/>
<polyline clip-path="url(#clip3500)" style="stroke:#cccccc; stroke-width:2; stroke-opacity:0.1; fill:none" points="
  319.332,888.271 1233.26,338.832 
  "/>
<polyline clip-path="url(#clip3500)" style="stroke:#cccccc; stroke-width:2; stroke-opacity:0.1; fill:none" points="
  1233.26,338.832 2147.18,888.271 
  "/>
<polyline clip-path="url(#clip3500)" style="stroke:#ededed; stroke-width:2; stroke-opacity:0.1; fill:none" points="
  319.332,815.374 1233.26,265.935 
  "/>
<polyline clip-path="url(#clip3500)" style="stroke:#ededed; stroke-width:2; stroke-opacity:0.1; fill:none" points="
  1233.26,265.935 2147.18,815.374 
  "/>
<polyline clip-path="url(#clip3500)" style="stroke:#cccccc; stroke-width:2; stroke-opacity:0.1; fill:none" points="
  319.332,742.477 1233.26,193.038 
  "/>
<polyline clip-path="url(#clip3500)" style="stroke:#cccccc; stroke-width:2; stroke-opacity:0.1; fill:none" points="
  1233.26,193.038 2147.18,742.477 
  "/>
<polyline clip-path="url(#clip3500)" style="stroke:#ededed; stroke-width:2; stroke-opacity:0.1; fill:none" points="
  319.332,669.58 1233.26,120.141 
  "/>
<polyline clip-path="url(#clip3500)" style="stroke:#ededed; stroke-width:2; stroke-opacity:0.1; fill:none" points="
  1233.26,120.141 2147.18,669.58 
  "/>
<polyline clip-path="url(#clip3500)" style="stroke:#cccccc; stroke-width:2; stroke-opacity:0.1; fill:none" points="
  319.332,596.683 1233.26,47.2441 
  "/>
<polyline clip-path="url(#clip3500)" style="stroke:#cccccc; stroke-width:2; stroke-opacity:0.1; fill:none" points="
  1233.26,47.2441 2147.18,596.683 
  "/>
<polyline clip-path="url(#clip3500)" style="stroke:#000000; stroke-width:4; stroke-opacity:1; fill:none" points="
  217.186,1141.01 217.186,1139.37 218.395,1136.8 219.604,1135.88 222.022,1135.69 226.857,1138.6 229.275,1141.7 230.483,1144.07 231.692,1148.09 231.692,1151.38 
  230.483,1153.94 228.066,1157.43 215.978,1166.62 232.901,1176.79 
  "/>
<polyline clip-path="url(#clip3500)" style="stroke:#000000; stroke-width:4; stroke-opacity:1; fill:none" points="
  247.407,1150.95 243.78,1150.42 241.363,1153.9 240.154,1161.4 240.154,1166.34 241.363,1175.3 243.78,1181.69 247.407,1185.51 249.824,1186.97 253.451,1187.5 
  255.868,1184.02 257.077,1176.52 257.077,1171.58 255.868,1162.62 253.451,1156.23 249.824,1152.41 247.407,1150.95 
  "/>
<polyline clip-path="url(#clip3500)" style="stroke:#000000; stroke-width:4; stroke-opacity:1; fill:none" points="
  271.583,1165.49 267.957,1164.95 265.539,1168.44 264.33,1175.94 264.33,1180.88 265.539,1189.83 267.957,1196.22 271.583,1200.05 274.001,1201.5 277.627,1202.04 
  280.045,1198.55 281.254,1191.05 281.254,1186.11 280.045,1177.16 277.627,1170.77 274.001,1166.94 271.583,1165.49 
  "/>
<polyline clip-path="url(#clip3500)" style="stroke:#000000; stroke-width:4; stroke-opacity:1; fill:none" points="
  228.066,993.532 215.978,1009.3 234.11,1020.21 
  "/>
<polyline clip-path="url(#clip3500)" style="stroke:#000000; stroke-width:4; stroke-opacity:1; fill:none" points="
  228.066,993.532 228.066,1028.09 
  "/>
<polyline clip-path="url(#clip3500)" style="stroke:#000000; stroke-width:4; stroke-opacity:1; fill:none" points="
  247.407,1005.16 243.78,1004.62 241.363,1008.11 240.154,1015.61 240.154,1020.55 241.363,1029.5 243.78,1035.89 247.407,1039.72 249.824,1041.17 253.451,1041.71 
  255.868,1038.22 257.077,1030.72 257.077,1025.78 255.868,1016.83 253.451,1010.44 249.824,1006.61 247.407,1005.16 
  "/>
<polyline clip-path="url(#clip3500)" style="stroke:#000000; stroke-width:4; stroke-opacity:1; fill:none" points="
  271.583,1019.69 267.957,1019.16 265.539,1022.64 264.33,1030.14 264.33,1035.08 265.539,1044.04 267.957,1050.43 271.583,1054.25 274.001,1055.71 277.627,1056.24 
  280.045,1052.76 281.254,1045.26 281.254,1040.32 280.045,1031.36 277.627,1024.97 274.001,1021.15 271.583,1019.69 
  "/>
<polyline clip-path="url(#clip3500)" style="stroke:#000000; stroke-width:4; stroke-opacity:1; fill:none" points="
  231.692,854.855 230.483,850.837 226.857,847.011 224.439,845.557 220.813,845.023 218.395,848.507 217.186,856.008 217.186,864.237 218.395,871.547 220.813,876.291 
  224.439,880.117 225.648,880.844 229.275,881.379 231.692,879.541 232.901,875.33 232.901,873.684 231.692,868.021 229.275,863.276 225.648,859.45 224.439,858.723 
  220.813,858.189 218.395,860.027 217.186,864.237 
  "/>
<polyline clip-path="url(#clip3500)" style="stroke:#000000; stroke-width:4; stroke-opacity:1; fill:none" points="
  247.407,859.365 243.78,858.831 241.363,862.314 240.154,869.816 240.154,874.753 241.363,883.709 243.78,890.099 247.407,893.925 249.824,895.379 253.451,895.913 
  255.868,892.429 257.077,884.927 257.077,879.99 255.868,871.035 253.451,864.644 249.824,860.819 247.407,859.365 
  "/>
<polyline clip-path="url(#clip3500)" style="stroke:#000000; stroke-width:4; stroke-opacity:1; fill:none" points="
  271.583,873.9 267.957,873.365 265.539,876.849 264.33,884.351 264.33,889.288 265.539,898.243 267.957,904.634 271.583,908.46 274.001,909.913 277.627,910.447 
  280.045,906.964 281.254,899.462 281.254,894.525 280.045,885.57 277.627,879.179 274.001,875.353 271.583,873.9 
  "/>
<polyline clip-path="url(#clip3500)" style="stroke:#000000; stroke-width:4; stroke-opacity:1; fill:none" points="
  222.022,698.31 218.395,697.775 217.186,700.34 217.186,703.631 218.395,707.65 220.813,710.749 225.648,715.301 229.275,719.127 231.692,723.872 232.901,727.89 
  232.901,732.827 231.692,735.392 230.483,736.311 226.857,735.777 222.022,732.87 218.395,729.044 217.186,726.671 215.978,722.653 215.978,717.716 217.186,715.151 
  219.604,713.313 223.23,713.848 228.066,715.109 230.483,714.917 231.692,712.352 231.692,709.061 230.483,705.043 226.857,701.217 222.022,698.31 
  "/>
<polyline clip-path="url(#clip3500)" style="stroke:#000000; stroke-width:4; stroke-opacity:1; fill:none" points="
  247.407,713.571 243.78,713.037 241.363,716.52 240.154,724.022 240.154,728.959 241.363,737.915 243.78,744.305 247.407,748.131 249.824,749.584 253.451,750.119 
  255.868,746.635 257.077,739.133 257.077,734.196 255.868,725.241 253.451,718.85 249.824,715.024 247.407,713.571 
  "/>
<polyline clip-path="url(#clip3500)" style="stroke:#000000; stroke-width:4; stroke-opacity:1; fill:none" points="
  271.583,728.105 267.957,727.571 265.539,731.055 264.33,738.557 264.33,743.494 265.539,752.449 267.957,758.84 271.583,762.665 274.001,764.119 277.627,764.653 
  280.045,761.17 281.254,753.668 281.254,748.731 280.045,739.775 277.627,733.385 274.001,729.559 271.583,728.105 
  "/>
<polyline clip-path="url(#clip3500)" style="stroke:#000000; stroke-width:4; stroke-opacity:1; fill:none" points="
  195.428,543.111 197.845,542.918 201.472,540.161 201.472,574.721 
  "/>
<polyline clip-path="url(#clip3500)" style="stroke:#000000; stroke-width:4; stroke-opacity:1; fill:none" points="
  223.23,553.242 219.604,552.708 217.186,556.192 215.978,563.693 215.978,568.631 217.186,577.586 219.604,583.977 223.23,587.802 225.648,589.256 229.275,589.79 
  231.692,586.307 232.901,578.805 232.901,573.868 231.692,564.912 229.275,558.522 225.648,554.696 223.23,553.242 
  "/>
<polyline clip-path="url(#clip3500)" style="stroke:#000000; stroke-width:4; stroke-opacity:1; fill:none" points="
  247.407,567.777 243.78,567.242 241.363,570.726 240.154,578.228 240.154,583.165 241.363,592.12 243.78,598.511 247.407,602.337 249.824,603.79 253.451,604.325 
  255.868,600.841 257.077,593.339 257.077,588.402 255.868,579.447 253.451,573.056 249.824,569.23 247.407,567.777 
  "/>
<polyline clip-path="url(#clip3500)" style="stroke:#000000; stroke-width:4; stroke-opacity:1; fill:none" points="
  271.583,582.311 267.957,581.777 265.539,585.261 264.33,592.762 264.33,597.7 265.539,606.655 267.957,613.045 271.583,616.871 274.001,618.325 277.627,618.859 
  280.045,615.376 281.254,607.874 281.254,602.937 280.045,593.981 277.627,587.591 274.001,583.765 271.583,582.311 
  "/>
<polyline clip-path="url(#clip3500)" style="stroke:#000000; stroke-width:4; stroke-opacity:1; fill:none" points="
  319.332,1325.65 319.332,1325.65 301.053,1336.64 319.332,1325.65 319.332,1252.76 310.192,1258.25 319.332,1252.76 319.332,1179.86 301.053,1190.85 319.332,1179.86 
  319.332,1106.96 310.192,1112.46 319.332,1106.96 319.332,1034.06 301.053,1045.05 319.332,1034.06 319.332,961.168 310.192,966.662 319.332,961.168 319.332,888.271 
  301.053,899.259 319.332,888.271 319.332,815.374 310.192,820.868 319.332,815.374 319.332,742.477 301.053,753.465 319.332,742.477 319.332,669.58 310.192,675.074 
  319.332,669.58 319.332,596.683 301.053,607.671 319.332,596.683 
  "/>
<polyline clip-path="url(#clip3500)" style="stroke:#000000; stroke-width:4; stroke-opacity:1; fill:none" points="
  462.416,1515.02 484.838,1501.54 
  "/>
<polyline clip-path="url(#clip3500)" style="stroke:#000000; stroke-width:4; stroke-opacity:1; fill:none" points="
  489.089,1478.63 496.379,1497.99 515.064,1486.76 
  "/>
<polyline clip-path="url(#clip3500)" style="stroke:#000000; stroke-width:4; stroke-opacity:1; fill:none" points="
  489.089,1478.63 518.709,1496.44 
  "/>
<polyline clip-path="url(#clip3500)" style="stroke:#000000; stroke-width:4; stroke-opacity:1; fill:none" points="
  690.897,1652.38 713.319,1638.9 
  "/>
<polyline clip-path="url(#clip3500)" style="stroke:#000000; stroke-width:4; stroke-opacity:1; fill:none" points="
  707.605,1621.98 721.307,1613.74 725.117,1625.02 728.854,1622.77 732.756,1622.12 735.412,1622.22 740.889,1624.02 743.71,1625.71 746.695,1629.01 747.025,1632.2 
  744.698,1635.29 740.961,1637.54 735.814,1638.94 733.158,1638.84 729.091,1637.89 
  "/>
<polyline clip-path="url(#clip3500)" style="stroke:#000000; stroke-width:4; stroke-opacity:1; fill:none" points="
  919.378,1789.74 941.8,1776.26 
  "/>
<polyline clip-path="url(#clip3500)" style="stroke:#000000; stroke-width:4; stroke-opacity:1; fill:none" points="
  941.892,1764.33 940.482,1763.48 938.907,1761.04 938.742,1759.44 939.823,1757.09 944.805,1754.1 948.707,1753.45 951.363,1753.55 955.43,1754.5 958.251,1756.19 
  959.826,1758.64 961.566,1762.68 963.214,1778.65 980.653,1768.16 
  "/>
<polyline clip-path="url(#clip3500)" style="stroke:#000000; stroke-width:4; stroke-opacity:1; fill:none" points="
  1147.86,1927.1 1170.28,1913.62 
  "/>
<polyline clip-path="url(#clip3500)" style="stroke:#000000; stroke-width:4; stroke-opacity:1; fill:none" points="
  1171.45,1899.34 1172.54,1897 1172.04,1892.21 1201.66,1910.01 
  "/>
<polyline clip-path="url(#clip3500)" style="stroke:#000000; stroke-width:4; stroke-opacity:1; fill:none" points="
  319.332,1325.65 319.332,1325.65 301.053,1336.64 319.332,1325.65 433.572,1394.33 424.433,1399.83 433.572,1394.33 547.812,1463.01 529.534,1474 547.812,1463.01 
  662.053,1531.69 652.914,1537.19 662.053,1531.69 776.293,1600.37 758.015,1611.36 776.293,1600.37 890.534,1669.05 881.395,1674.55 890.534,1669.05 1004.77,1737.73 
  986.496,1748.72 1004.77,1737.73 1119.01,1806.41 1109.88,1811.91 1119.01,1806.41 1233.26,1875.09 1214.98,1886.08 1233.26,1875.09 
  "/>
<polyline clip-path="url(#clip3500)" style="stroke:#000000; stroke-width:4; stroke-opacity:1; fill:none" points="
  1513.57,1755.99 1517.47,1756.64 1525.44,1756.35 1495.82,1774.15 
  "/>
<polyline clip-path="url(#clip3500)" style="stroke:#000000; stroke-width:4; stroke-opacity:1; fill:none" points="
  1738.15,1617.98 1739.56,1617.14 1743.63,1616.19 1746.28,1616.09 1750.19,1616.74 1755.17,1619.73 1756.25,1622.08 1756.08,1623.68 1754.51,1626.12 1751.69,1627.82 
  1747.62,1628.76 1740.9,1629.81 1714.34,1630.8 1731.78,1641.29 
  "/>
<polyline clip-path="url(#clip3500)" style="stroke:#000000; stroke-width:4; stroke-opacity:1; fill:none" points="
  1974.93,1477.13 1988.63,1485.37 1969.87,1487.66 1973.61,1489.91 1974.69,1492.25 1974.53,1493.85 1971.54,1497.14 1968.72,1498.84 1963.24,1500.63 1957.93,1500.83 
  1952.78,1499.43 1949.05,1497.19 1946.72,1494.09 1946.89,1492.5 1948.46,1490.05 
  "/>
<polyline clip-path="url(#clip3500)" style="stroke:#000000; stroke-width:4; stroke-opacity:1; fill:none" points="
  2213.38,1345.76 2181.17,1350.15 2199.86,1361.38 
  "/>
<polyline clip-path="url(#clip3500)" style="stroke:#000000; stroke-width:4; stroke-opacity:1; fill:none" points="
  2213.38,1345.76 2183.76,1363.57 
  "/>
<polyline clip-path="url(#clip3500)" style="stroke:#000000; stroke-width:4; stroke-opacity:1; fill:none" points="
  1233.26,1875.09 1233.26,1875.09 1251.53,1886.08 1233.26,1875.09 1347.5,1806.41 1356.63,1811.91 1347.5,1806.41 1461.74,1737.73 1480.01,1748.72 1461.74,1737.73 
  1575.98,1669.05 1585.12,1674.55 1575.98,1669.05 1690.22,1600.37 1708.5,1611.36 1690.22,1600.37 1804.46,1531.69 1813.6,1537.19 1804.46,1531.69 1918.7,1463.01 
  1936.98,1474 1918.7,1463.01 2032.94,1394.33 2042.08,1399.83 2032.94,1394.33 2147.18,1325.65 2165.46,1336.64 2147.18,1325.65 
  "/>
<polygon clip-path="url(#clip3502)" points="
1233.26,668.887 1131.71,782.401 1233.26,831.886 1334.8,704.451 
  " fill="#ffffff" fill-rule="evenodd" fill-opacity="1"/>
<polyline clip-path="url(#clip3502)" style="stroke:#000000; stroke-width:4; stroke-opacity:1; fill:none" points="
  1233.26,668.887 1131.71,782.401 1233.26,831.886 1334.8,704.451 1233.26,668.887 
  "/>
<polygon clip-path="url(#clip3502)" points="
1334.8,704.451 1233.26,831.886 1334.8,872.189 1436.35,730.835 
  " fill="#ffffff" fill-rule="evenodd" fill-opacity="1"/>
<polyline clip-path="url(#clip3502)" style="stroke:#000000; stroke-width:4; stroke-opacity:1; fill:none" points="
  1334.8,704.451 1233.26,831.886 1334.8,872.189 1436.35,730.835 1334.8,704.451 
  "/>
<polygon clip-path="url(#clip3502)" points="
1436.35,730.835 1334.8,872.189 1436.35,903.312 1537.9,748.038 
  " fill="#ffffff" fill-rule="evenodd" fill-opacity="1"/>
<polyline clip-path="url(#clip3502)" style="stroke:#000000; stroke-width:4; stroke-opacity:1; fill:none" points="
  1436.35,730.835 1334.8,872.189 1436.35,903.312 1537.9,748.038 1436.35,730.835 
  "/>
<polygon clip-path="url(#clip3502)" points="
1537.9,748.038 1436.35,903.312 1537.9,925.254 1639.44,756.06 
  " fill="#ffffff" fill-rule="evenodd" fill-opacity="1"/>
<polyline clip-path="url(#clip3502)" style="stroke:#000000; stroke-width:4; stroke-opacity:1; fill:none" points="
  1537.9,748.038 1436.35,903.312 1537.9,925.254 1639.44,756.06 1537.9,748.038 
  "/>
<polygon clip-path="url(#clip3502)" points="
1639.44,756.06 1537.9,925.254 1639.44,938.015 1740.99,754.9 
  " fill="#ffffff" fill-rule="evenodd" fill-opacity="1"/>
<polyline clip-path="url(#clip3502)" style="stroke:#000000; stroke-width:4; stroke-opacity:1; fill:none" points="
  1639.44,756.06 1537.9,925.254 1639.44,938.015 1740.99,754.9 1639.44,756.06 
  "/>
<polygon clip-path="url(#clip3502)" points="
1740.99,754.9 1639.44,938.015 1740.99,941.595 1842.54,744.56 
  " fill="#ffffff" fill-rule="evenodd" fill-opacity="1"/>
<polyline clip-path="url(#clip3502)" style="stroke:#000000; stroke-width:4; stroke-opacity:1; fill:none" points="
  1740.99,754.9 1639.44,938.015 1740.99,941.595 1842.54,744.56 1740.99,754.9 
  "/>
<polygon clip-path="url(#clip3502)" points="
1842.54,744.56 1740.99,941.595 1842.54,935.993 1944.08,725.039 
  " fill="#ffffff" fill-rule="evenodd" fill-opacity="1"/>
<polyline clip-path="url(#clip3502)" style="stroke:#000000; stroke-width:4; stroke-opacity:1; fill:none" points="
  1842.54,744.56 1740.99,941.595 1842.54,935.993 1944.08,725.039 1842.54,744.56 
  "/>
<polygon clip-path="url(#clip3502)" points="
1944.08,725.039 1842.54,935.993 1944.08,921.211 2045.63,696.337 
  " fill="#ffffff" fill-rule="evenodd" fill-opacity="1"/>
<polyline clip-path="url(#clip3502)" style="stroke:#000000; stroke-width:4; stroke-opacity:1; fill:none" points="
  1944.08,725.039 1842.54,935.993 1944.08,921.211 2045.63,696.337 1944.08,725.039 
  "/>
<polygon clip-path="url(#clip3502)" points="
2045.63,696.337 1944.08,921.211 2045.63,897.248 2147.18,658.454 
  " fill="#ffffff" fill-rule="evenodd" fill-opacity="1"/>
<polyline clip-path="url(#clip3502)" style="stroke:#000000; stroke-width:4; stroke-opacity:1; fill:none" points="
  2045.63,696.337 1944.08,921.211 2045.63,897.248 2147.18,658.454 2045.63,696.337 
  "/>
<polygon clip-path="url(#clip3502)" points="
1131.71,782.401 1030.16,867.117 1131.71,930.521 1233.26,831.886 
  " fill="#ffffff" fill-rule="evenodd" fill-opacity="1"/>
<polyline clip-path="url(#clip3502)" style="stroke:#000000; stroke-width:4; stroke-opacity:1; fill:none" points="
  1131.71,782.401 1030.16,867.117 1131.71,930.521 1233.26,831.886 1131.71,782.401 
  "/>
<polygon clip-path="url(#clip3502)" points="
1233.26,831.886 1131.71,930.521 1233.26,984.745 1334.8,872.189 
  " fill="#ffffff" fill-rule="evenodd" fill-opacity="1"/>
<polyline clip-path="url(#clip3502)" style="stroke:#000000; stroke-width:4; stroke-opacity:1; fill:none" points="
  1233.26,831.886 1131.71,930.521 1233.26,984.745 1334.8,872.189 1233.26,831.886 
  "/>
<polygon clip-path="url(#clip3502)" points="
1334.8,872.189 1233.26,984.745 1334.8,1029.79 1436.35,903.312 
  " fill="#ffffff" fill-rule="evenodd" fill-opacity="1"/>
<polyline clip-path="url(#clip3502)" style="stroke:#000000; stroke-width:4; stroke-opacity:1; fill:none" points="
  1334.8,872.189 1233.26,984.745 1334.8,1029.79 1436.35,903.312 1334.8,872.189 
  "/>
<polygon clip-path="url(#clip3502)" points="
1436.35,903.312 1334.8,1029.79 1436.35,1065.65 1537.9,925.254 
  " fill="#ffffff" fill-rule="evenodd" fill-opacity="1"/>
<polyline clip-path="url(#clip3502)" style="stroke:#000000; stroke-width:4; stroke-opacity:1; fill:none" points="
  1436.35,903.312 1334.8,1029.79 1436.35,1065.65 1537.9,925.254 1436.35,903.312 
  "/>
<polygon clip-path="url(#clip3502)" points="
1537.9,925.254 1436.35,1065.65 1537.9,1092.33 1639.44,938.015 
  " fill="#ffffff" fill-rule="evenodd" fill-opacity="1"/>
<polyline clip-path="url(#clip3502)" style="stroke:#000000; stroke-width:4; stroke-opacity:1; fill:none" points="
  1537.9,925.254 1436.35,1065.65 1537.9,1092.33 1639.44,938.015 1537.9,925.254 
  "/>
<polygon clip-path="url(#clip3502)" points="
1639.44,938.015 1537.9,1092.33 1639.44,1109.83 1740.99,941.595 
  " fill="#ffffff" fill-rule="evenodd" fill-opacity="1"/>
<polyline clip-path="url(#clip3502)" style="stroke:#000000; stroke-width:4; stroke-opacity:1; fill:none" points="
  1639.44,938.015 1537.9,1092.33 1639.44,1109.83 1740.99,941.595 1639.44,938.015 
  "/>
<polygon clip-path="url(#clip3502)" points="
1740.99,941.595 1639.44,1109.83 1740.99,1118.15 1842.54,935.993 
  " fill="#ffffff" fill-rule="evenodd" fill-opacity="1"/>
<polyline clip-path="url(#clip3502)" style="stroke:#000000; stroke-width:4; stroke-opacity:1; fill:none" points="
  1740.99,941.595 1639.44,1109.83 1740.99,1118.15 1842.54,935.993 1740.99,941.595 
  "/>
<polygon clip-path="url(#clip3502)" points="
1842.54,935.993 1740.99,1118.15 1842.54,1117.29 1944.08,921.211 
  " fill="#ffffff" fill-rule="evenodd" fill-opacity="1"/>
<polyline clip-path="url(#clip3502)" style="stroke:#000000; stroke-width:4; stroke-opacity:1; fill:none" points="
  1842.54,935.993 1740.99,1118.15 1842.54,1117.29 1944.08,921.211 1842.54,935.993 
  "/>
<polygon clip-path="url(#clip3502)" points="
1944.08,921.211 1842.54,1117.29 1944.08,1107.24 2045.63,897.248 
  " fill="#ffffff" fill-rule="evenodd" fill-opacity="1"/>
<polyline clip-path="url(#clip3502)" style="stroke:#000000; stroke-width:4; stroke-opacity:1; fill:none" points="
  1944.08,921.211 1842.54,1117.29 1944.08,1107.24 2045.63,897.248 1944.08,921.211 
  "/>
<polygon clip-path="url(#clip3502)" points="
1030.16,867.117 928.614,923.033 1030.16,1000.36 1131.71,930.521 
  " fill="#ffffff" fill-rule="evenodd" fill-opacity="1"/>
<polyline clip-path="url(#clip3502)" style="stroke:#000000; stroke-width:4; stroke-opacity:1; fill:none" points="
  1030.16,867.117 928.614,923.033 1030.16,1000.36 1131.71,930.521 1030.16,867.117 
  "/>
<polygon clip-path="url(#clip3502)" points="
1131.71,930.521 1030.16,1000.36 1131.71,1068.5 1233.26,984.745 
  " fill="#ffffff" fill-rule="evenodd" fill-opacity="1"/>
<polyline clip-path="url(#clip3502)" style="stroke:#000000; stroke-width:4; stroke-opacity:1; fill:none" points="
  1131.71,930.521 1030.16,1000.36 1131.71,1068.5 1233.26,984.745 1131.71,930.521 
  "/>
<polygon clip-path="url(#clip3502)" points="
1233.26,984.745 1131.71,1068.5 1233.26,1127.46 1334.8,1029.79 
  " fill="#ffffff" fill-rule="evenodd" fill-opacity="1"/>
<polyline clip-path="url(#clip3502)" style="stroke:#000000; stroke-width:4; stroke-opacity:1; fill:none" points="
  1233.26,984.745 1131.71,1068.5 1233.26,1127.46 1334.8,1029.79 1233.26,984.745 
  "/>
<polygon clip-path="url(#clip3502)" points="
1334.8,1029.79 1233.26,1127.46 1334.8,1177.25 1436.35,1065.65 
  " fill="#ffffff" fill-rule="evenodd" fill-opacity="1"/>
<polyline clip-path="url(#clip3502)" style="stroke:#000000; stroke-width:4; stroke-opacity:1; fill:none" points="
  1334.8,1029.79 1233.26,1127.46 1334.8,1177.25 1436.35,1065.65 1334.8,1029.79 
  "/>
<polygon clip-path="url(#clip3502)" points="
1436.35,1065.65 1334.8,1177.25 1436.35,1217.85 1537.9,1092.33 
  " fill="#ffffff" fill-rule="evenodd" fill-opacity="1"/>
<polyline clip-path="url(#clip3502)" style="stroke:#000000; stroke-width:4; stroke-opacity:1; fill:none" points="
  1436.35,1065.65 1334.8,1177.25 1436.35,1217.85 1537.9,1092.33 1436.35,1065.65 
  "/>
<polygon clip-path="url(#clip3502)" points="
1537.9,1092.33 1436.35,1217.85 1537.9,1249.27 1639.44,1109.83 
  " fill="#ffffff" fill-rule="evenodd" fill-opacity="1"/>
<polyline clip-path="url(#clip3502)" style="stroke:#000000; stroke-width:4; stroke-opacity:1; fill:none" points="
  1537.9,1092.33 1436.35,1217.85 1537.9,1249.27 1639.44,1109.83 1537.9,1092.33 
  "/>
<polygon clip-path="url(#clip3502)" points="
1639.44,1109.83 1537.9,1249.27 1639.44,1271.51 1740.99,1118.15 
  " fill="#ffffff" fill-rule="evenodd" fill-opacity="1"/>
<polyline clip-path="url(#clip3502)" style="stroke:#000000; stroke-width:4; stroke-opacity:1; fill:none" points="
  1639.44,1109.83 1537.9,1249.27 1639.44,1271.51 1740.99,1118.15 1639.44,1109.83 
  "/>
<polygon clip-path="url(#clip3502)" points="
1740.99,1118.15 1639.44,1271.51 1740.99,1284.56 1842.54,1117.29 
  " fill="#ffffff" fill-rule="evenodd" fill-opacity="1"/>
<polyline clip-path="url(#clip3502)" style="stroke:#000000; stroke-width:4; stroke-opacity:1; fill:none" points="
  1740.99,1118.15 1639.44,1271.51 1740.99,1284.56 1842.54,1117.29 1740.99,1118.15 
  "/>
<polygon clip-path="url(#clip3502)" points="
1842.54,1117.29 1740.99,1284.56 1842.54,1288.44 1944.08,1107.24 
  " fill="#ffffff" fill-rule="evenodd" fill-opacity="1"/>
<polyline clip-path="url(#clip3502)" style="stroke:#000000; stroke-width:4; stroke-opacity:1; fill:none" points="
  1842.54,1117.29 1740.99,1284.56 1842.54,1288.44 1944.08,1107.24 1842.54,1117.29 
  "/>
<polygon clip-path="url(#clip3502)" points="
928.614,923.033 827.067,950.151 928.614,1041.4 1030.16,1000.36 
  " fill="#ffffff" fill-rule="evenodd" fill-opacity="1"/>
<polyline clip-path="url(#clip3502)" style="stroke:#000000; stroke-width:4; stroke-opacity:1; fill:none" points="
  928.614,923.033 827.067,950.151 928.614,1041.4 1030.16,1000.36 928.614,923.033 
  "/>
<polygon clip-path="url(#clip3502)" points="
1030.16,1000.36 928.614,1041.4 1030.16,1123.46 1131.71,1068.5 
  " fill="#ffffff" fill-rule="evenodd" fill-opacity="1"/>
<polyline clip-path="url(#clip3502)" style="stroke:#000000; stroke-width:4; stroke-opacity:1; fill:none" points="
  1030.16,1000.36 928.614,1041.4 1030.16,1123.46 1131.71,1068.5 1030.16,1000.36 
  "/>
<polygon clip-path="url(#clip3502)" points="
1131.71,1068.5 1030.16,1123.46 1131.71,1196.34 1233.26,1127.46 
  " fill="#ffffff" fill-rule="evenodd" fill-opacity="1"/>
<polyline clip-path="url(#clip3502)" style="stroke:#000000; stroke-width:4; stroke-opacity:1; fill:none" points="
  1131.71,1068.5 1030.16,1123.46 1131.71,1196.34 1233.26,1127.46 1131.71,1068.5 
  "/>
<polygon clip-path="url(#clip3502)" points="
1233.26,1127.46 1131.71,1196.34 1233.26,1260.04 1334.8,1177.25 
  " fill="#ffffff" fill-rule="evenodd" fill-opacity="1"/>
<polyline clip-path="url(#clip3502)" style="stroke:#000000; stroke-width:4; stroke-opacity:1; fill:none" points="
  1233.26,1127.46 1131.71,1196.34 1233.26,1260.04 1334.8,1177.25 1233.26,1127.46 
  "/>
<polygon clip-path="url(#clip3502)" points="
1334.8,1177.25 1233.26,1260.04 1334.8,1314.56 1436.35,1217.85 
  " fill="#ffffff" fill-rule="evenodd" fill-opacity="1"/>
<polyline clip-path="url(#clip3502)" style="stroke:#000000; stroke-width:4; stroke-opacity:1; fill:none" points="
  1334.8,1177.25 1233.26,1260.04 1334.8,1314.56 1436.35,1217.85 1334.8,1177.25 
  "/>
<polygon clip-path="url(#clip3502)" points="
1436.35,1217.85 1334.8,1314.56 1436.35,1359.9 1537.9,1249.27 
  " fill="#ffffff" fill-rule="evenodd" fill-opacity="1"/>
<polyline clip-path="url(#clip3502)" style="stroke:#000000; stroke-width:4; stroke-opacity:1; fill:none" points="
  1436.35,1217.85 1334.8,1314.56 1436.35,1359.9 1537.9,1249.27 1436.35,1217.85 
  "/>
<polygon clip-path="url(#clip3502)" points="
1537.9,1249.27 1436.35,1359.9 1537.9,1396.06 1639.44,1271.51 
  " fill="#ffffff" fill-rule="evenodd" fill-opacity="1"/>
<polyline clip-path="url(#clip3502)" style="stroke:#000000; stroke-width:4; stroke-opacity:1; fill:none" points="
  1537.9,1249.27 1436.35,1359.9 1537.9,1396.06 1639.44,1271.51 1537.9,1249.27 
  "/>
<polygon clip-path="url(#clip3502)" points="
1639.44,1271.51 1537.9,1396.06 1639.44,1423.04 1740.99,1284.56 
  " fill="#ffffff" fill-rule="evenodd" fill-opacity="1"/>
<polyline clip-path="url(#clip3502)" style="stroke:#000000; stroke-width:4; stroke-opacity:1; fill:none" points="
  1639.44,1271.51 1537.9,1396.06 1639.44,1423.04 1740.99,1284.56 1639.44,1271.51 
  "/>
<polygon clip-path="url(#clip3502)" points="
1740.99,1284.56 1639.44,1423.04 1740.99,1440.84 1842.54,1288.44 
  " fill="#ffffff" fill-rule="evenodd" fill-opacity="1"/>
<polyline clip-path="url(#clip3502)" style="stroke:#000000; stroke-width:4; stroke-opacity:1; fill:none" points="
  1740.99,1284.56 1639.44,1423.04 1740.99,1440.84 1842.54,1288.44 1740.99,1284.56 
  "/>
<polygon clip-path="url(#clip3502)" points="
827.067,950.151 725.52,948.47 827.067,1053.63 928.614,1041.4 
  " fill="#ffffff" fill-rule="evenodd" fill-opacity="1"/>
<polyline clip-path="url(#clip3502)" style="stroke:#000000; stroke-width:4; stroke-opacity:1; fill:none" points="
  827.067,950.151 725.52,948.47 827.067,1053.63 928.614,1041.4 827.067,950.151 
  "/>
<polygon clip-path="url(#clip3502)" points="
928.614,1041.4 827.067,1053.63 928.614,1149.62 1030.16,1123.46 
  " fill="#ffffff" fill-rule="evenodd" fill-opacity="1"/>
<polyline clip-path="url(#clip3502)" style="stroke:#000000; stroke-width:4; stroke-opacity:1; fill:none" points="
  928.614,1041.4 827.067,1053.63 928.614,1149.62 1030.16,1123.46 928.614,1041.4 
  "/>
<polygon clip-path="url(#clip3502)" points="
1030.16,1123.46 928.614,1149.62 1030.16,1236.42 1131.71,1196.34 
  " fill="#ffffff" fill-rule="evenodd" fill-opacity="1"/>
<polyline clip-path="url(#clip3502)" style="stroke:#000000; stroke-width:4; stroke-opacity:1; fill:none" points="
  1030.16,1123.46 928.614,1149.62 1030.16,1236.42 1131.71,1196.34 1030.16,1123.46 
  "/>
<polygon clip-path="url(#clip3502)" points="
1131.71,1196.34 1030.16,1236.42 1131.71,1314.04 1233.26,1260.04 
  " fill="#ffffff" fill-rule="evenodd" fill-opacity="1"/>
<polyline clip-path="url(#clip3502)" style="stroke:#000000; stroke-width:4; stroke-opacity:1; fill:none" points="
  1131.71,1196.34 1030.16,1236.42 1131.71,1314.04 1233.26,1260.04 1131.71,1196.34 
  "/>
<polygon clip-path="url(#clip3502)" points="
1233.26,1260.04 1131.71,1314.04 1233.26,1382.48 1334.8,1314.56 
  " fill="#ffffff" fill-rule="evenodd" fill-opacity="1"/>
<polyline clip-path="url(#clip3502)" style="stroke:#000000; stroke-width:4; stroke-opacity:1; fill:none" points="
  1233.26,1260.04 1131.71,1314.04 1233.26,1382.48 1334.8,1314.56 1233.26,1260.04 
  "/>
<polygon clip-path="url(#clip3502)" points="
1334.8,1314.56 1233.26,1382.48 1334.8,1441.74 1436.35,1359.9 
  " fill="#ffffff" fill-rule="evenodd" fill-opacity="1"/>
<polyline clip-path="url(#clip3502)" style="stroke:#000000; stroke-width:4; stroke-opacity:1; fill:none" points="
  1334.8,1314.56 1233.26,1382.48 1334.8,1441.74 1436.35,1359.9 1334.8,1314.56 
  "/>
<polygon clip-path="url(#clip3502)" points="
1436.35,1359.9 1334.8,1441.74 1436.35,1491.82 1537.9,1396.06 
  " fill="#ffffff" fill-rule="evenodd" fill-opacity="1"/>
<polyline clip-path="url(#clip3502)" style="stroke:#000000; stroke-width:4; stroke-opacity:1; fill:none" points="
  1436.35,1359.9 1334.8,1441.74 1436.35,1491.82 1537.9,1396.06 1436.35,1359.9 
  "/>
<polygon clip-path="url(#clip3502)" points="
1537.9,1396.06 1436.35,1491.82 1537.9,1532.72 1639.44,1423.04 
  " fill="#ffffff" fill-rule="evenodd" fill-opacity="1"/>
<polyline clip-path="url(#clip3502)" style="stroke:#000000; stroke-width:4; stroke-opacity:1; fill:none" points="
  1537.9,1396.06 1436.35,1491.82 1537.9,1532.72 1639.44,1423.04 1537.9,1396.06 
  "/>
<polygon clip-path="url(#clip3502)" points="
1639.44,1423.04 1537.9,1532.72 1639.44,1564.44 1740.99,1440.84 
  " fill="#ffffff" fill-rule="evenodd" fill-opacity="1"/>
<polyline clip-path="url(#clip3502)" style="stroke:#000000; stroke-width:4; stroke-opacity:1; fill:none" points="
  1639.44,1423.04 1537.9,1532.72 1639.44,1564.44 1740.99,1440.84 1639.44,1423.04 
  "/>
<polygon clip-path="url(#clip3502)" points="
725.52,948.47 623.973,917.99 725.52,1037.08 827.067,1053.63 
  " fill="#ffffff" fill-rule="evenodd" fill-opacity="1"/>
<polyline clip-path="url(#clip3502)" style="stroke:#000000; stroke-width:4; stroke-opacity:1; fill:none" points="
  725.52,948.47 623.973,917.99 725.52,1037.08 827.067,1053.63 725.52,948.47 
  "/>
<polygon clip-path="url(#clip3502)" points="
827.067,1053.63 725.52,1037.08 827.067,1146.98 928.614,1149.62 
  " fill="#ffffff" fill-rule="evenodd" fill-opacity="1"/>
<polyline clip-path="url(#clip3502)" style="stroke:#000000; stroke-width:4; stroke-opacity:1; fill:none" points="
  827.067,1053.63 725.52,1037.08 827.067,1146.98 928.614,1149.62 827.067,1053.63 
  "/>
<polygon clip-path="url(#clip3502)" points="
928.614,1149.62 827.067,1146.98 928.614,1247.7 1030.16,1236.42 
  " fill="#ffffff" fill-rule="evenodd" fill-opacity="1"/>
<polyline clip-path="url(#clip3502)" style="stroke:#000000; stroke-width:4; stroke-opacity:1; fill:none" points="
  928.614,1149.62 827.067,1146.98 928.614,1247.7 1030.16,1236.42 928.614,1149.62 
  "/>
<polygon clip-path="url(#clip3502)" points="
1030.16,1236.42 928.614,1247.7 1030.16,1339.24 1131.71,1314.04 
  " fill="#ffffff" fill-rule="evenodd" fill-opacity="1"/>
<polyline clip-path="url(#clip3502)" style="stroke:#000000; stroke-width:4; stroke-opacity:1; fill:none" points="
  1030.16,1236.42 928.614,1247.7 1030.16,1339.24 1131.71,1314.04 1030.16,1236.42 
  "/>
<polygon clip-path="url(#clip3502)" points="
1131.71,1314.04 1030.16,1339.24 1131.71,1421.6 1233.26,1382.48 
  " fill="#ffffff" fill-rule="evenodd" fill-opacity="1"/>
<polyline clip-path="url(#clip3502)" style="stroke:#000000; stroke-width:4; stroke-opacity:1; fill:none" points="
  1131.71,1314.04 1030.16,1339.24 1131.71,1421.6 1233.26,1382.48 1131.71,1314.04 
  "/>
<polygon clip-path="url(#clip3502)" points="
1233.26,1382.48 1131.71,1421.6 1233.26,1494.78 1334.8,1441.74 
  " fill="#ffffff" fill-rule="evenodd" fill-opacity="1"/>
<polyline clip-path="url(#clip3502)" style="stroke:#000000; stroke-width:4; stroke-opacity:1; fill:none" points="
  1233.26,1382.48 1131.71,1421.6 1233.26,1494.78 1334.8,1441.74 1233.26,1382.48 
  "/>
<polygon clip-path="url(#clip3502)" points="
1334.8,1441.74 1233.26,1494.78 1334.8,1558.78 1436.35,1491.82 
  " fill="#ffffff" fill-rule="evenodd" fill-opacity="1"/>
<polyline clip-path="url(#clip3502)" style="stroke:#000000; stroke-width:4; stroke-opacity:1; fill:none" points="
  1334.8,1441.74 1233.26,1494.78 1334.8,1558.78 1436.35,1491.82 1334.8,1441.74 
  "/>
<polygon clip-path="url(#clip3502)" points="
1436.35,1491.82 1334.8,1558.78 1436.35,1613.6 1537.9,1532.72 
  " fill="#ffffff" fill-rule="evenodd" fill-opacity="1"/>
<polyline clip-path="url(#clip3502)" style="stroke:#000000; stroke-width:4; stroke-opacity:1; fill:none" points="
  1436.35,1491.82 1334.8,1558.78 1436.35,1613.6 1537.9,1532.72 1436.35,1491.82 
  "/>
<polygon clip-path="url(#clip3502)" points="
1537.9,1532.72 1436.35,1613.6 1537.9,1659.24 1639.44,1564.44 
  " fill="#ffffff" fill-rule="evenodd" fill-opacity="1"/>
<polyline clip-path="url(#clip3502)" style="stroke:#000000; stroke-width:4; stroke-opacity:1; fill:none" points="
  1537.9,1532.72 1436.35,1613.6 1537.9,1659.24 1639.44,1564.44 1537.9,1532.72 
  "/>
<polygon clip-path="url(#clip3502)" points="
623.973,917.99 522.426,858.712 623.973,991.716 725.52,1037.08 
  " fill="#ffffff" fill-rule="evenodd" fill-opacity="1"/>
<polyline clip-path="url(#clip3502)" style="stroke:#000000; stroke-width:4; stroke-opacity:1; fill:none" points="
  623.973,917.99 522.426,858.712 623.973,991.716 725.52,1037.08 623.973,917.99 
  "/>
<polygon clip-path="url(#clip3502)" points="
725.52,1037.08 623.973,991.716 725.52,1115.54 827.067,1146.98 
  " fill="#ffffff" fill-rule="evenodd" fill-opacity="1"/>
<polyline clip-path="url(#clip3502)" style="stroke:#000000; stroke-width:4; stroke-opacity:1; fill:none" points="
  725.52,1037.08 623.973,991.716 725.52,1115.54 827.067,1146.98 725.52,1037.08 
  "/>
<polygon clip-path="url(#clip3502)" points="
827.067,1146.98 725.52,1115.54 827.067,1230.18 928.614,1247.7 
  " fill="#ffffff" fill-rule="evenodd" fill-opacity="1"/>
<polyline clip-path="url(#clip3502)" style="stroke:#000000; stroke-width:4; stroke-opacity:1; fill:none" points="
  827.067,1146.98 725.52,1115.54 827.067,1230.18 928.614,1247.7 827.067,1146.98 
  "/>
<polygon clip-path="url(#clip3502)" points="
928.614,1247.7 827.067,1230.18 928.614,1335.64 1030.16,1339.24 
  " fill="#ffffff" fill-rule="evenodd" fill-opacity="1"/>
<polyline clip-path="url(#clip3502)" style="stroke:#000000; stroke-width:4; stroke-opacity:1; fill:none" points="
  928.614,1247.7 827.067,1230.18 928.614,1335.64 1030.16,1339.24 928.614,1247.7 
  "/>
<polygon clip-path="url(#clip3502)" points="
1030.16,1339.24 928.614,1335.64 1030.16,1431.93 1131.71,1421.6 
  " fill="#ffffff" fill-rule="evenodd" fill-opacity="1"/>
<polyline clip-path="url(#clip3502)" style="stroke:#000000; stroke-width:4; stroke-opacity:1; fill:none" points="
  1030.16,1339.24 928.614,1335.64 1030.16,1431.93 1131.71,1421.6 1030.16,1339.24 
  "/>
<polygon clip-path="url(#clip3502)" points="
1131.71,1421.6 1030.16,1431.93 1131.71,1519.03 1233.26,1494.78 
  " fill="#ffffff" fill-rule="evenodd" fill-opacity="1"/>
<polyline clip-path="url(#clip3502)" style="stroke:#000000; stroke-width:4; stroke-opacity:1; fill:none" points="
  1131.71,1421.6 1030.16,1431.93 1131.71,1519.03 1233.26,1494.78 1131.71,1421.6 
  "/>
<polygon clip-path="url(#clip3502)" points="
1233.26,1494.78 1131.71,1519.03 1233.26,1596.94 1334.8,1558.78 
  " fill="#ffffff" fill-rule="evenodd" fill-opacity="1"/>
<polyline clip-path="url(#clip3502)" style="stroke:#000000; stroke-width:4; stroke-opacity:1; fill:none" points="
  1233.26,1494.78 1131.71,1519.03 1233.26,1596.94 1334.8,1558.78 1233.26,1494.78 
  "/>
<polygon clip-path="url(#clip3502)" points="
1334.8,1558.78 1233.26,1596.94 1334.8,1665.68 1436.35,1613.6 
  " fill="#ffffff" fill-rule="evenodd" fill-opacity="1"/>
<polyline clip-path="url(#clip3502)" style="stroke:#000000; stroke-width:4; stroke-opacity:1; fill:none" points="
  1334.8,1558.78 1233.26,1596.94 1334.8,1665.68 1436.35,1613.6 1334.8,1558.78 
  "/>
<polygon clip-path="url(#clip3502)" points="
1436.35,1613.6 1334.8,1665.68 1436.35,1725.24 1537.9,1659.24 
  " fill="#ffffff" fill-rule="evenodd" fill-opacity="1"/>
<polyline clip-path="url(#clip3502)" style="stroke:#000000; stroke-width:4; stroke-opacity:1; fill:none" points="
  1436.35,1613.6 1334.8,1665.68 1436.35,1725.24 1537.9,1659.24 1436.35,1613.6 
  "/>
<polygon clip-path="url(#clip3502)" points="
522.426,858.712 420.879,770.634 522.426,917.559 623.973,991.716 
  " fill="#ffffff" fill-rule="evenodd" fill-opacity="1"/>
<polyline clip-path="url(#clip3502)" style="stroke:#000000; stroke-width:4; stroke-opacity:1; fill:none" points="
  522.426,858.712 420.879,770.634 522.426,917.559 623.973,991.716 522.426,858.712 
  "/>
<polygon clip-path="url(#clip3502)" points="
623.973,991.716 522.426,917.559 623.973,1055.3 725.52,1115.54 
  " fill="#ffffff" fill-rule="evenodd" fill-opacity="1"/>
<polyline clip-path="url(#clip3502)" style="stroke:#000000; stroke-width:4; stroke-opacity:1; fill:none" points="
  623.973,991.716 522.426,917.559 623.973,1055.3 725.52,1115.54 623.973,991.716 
  "/>
<polygon clip-path="url(#clip3502)" points="
725.52,1115.54 623.973,1055.3 725.52,1183.87 827.067,1230.18 
  " fill="#ffffff" fill-rule="evenodd" fill-opacity="1"/>
<polyline clip-path="url(#clip3502)" style="stroke:#000000; stroke-width:4; stroke-opacity:1; fill:none" points="
  725.52,1115.54 623.973,1055.3 725.52,1183.87 827.067,1230.18 725.52,1115.54 
  "/>
<polygon clip-path="url(#clip3502)" points="
827.067,1230.18 725.52,1183.87 827.067,1303.25 928.614,1335.64 
  " fill="#ffffff" fill-rule="evenodd" fill-opacity="1"/>
<polyline clip-path="url(#clip3502)" style="stroke:#000000; stroke-width:4; stroke-opacity:1; fill:none" points="
  827.067,1230.18 725.52,1183.87 827.067,1303.25 928.614,1335.64 827.067,1230.18 
  "/>
<polygon clip-path="url(#clip3502)" points="
928.614,1335.64 827.067,1303.25 928.614,1413.45 1030.16,1431.93 
  " fill="#ffffff" fill-rule="evenodd" fill-opacity="1"/>
<polyline clip-path="url(#clip3502)" style="stroke:#000000; stroke-width:4; stroke-opacity:1; fill:none" points="
  928.614,1335.64 827.067,1303.25 928.614,1413.45 1030.16,1431.93 928.614,1335.64 
  "/>
<polygon clip-path="url(#clip3502)" points="
1030.16,1431.93 928.614,1413.45 1030.16,1514.47 1131.71,1519.03 
  " fill="#ffffff" fill-rule="evenodd" fill-opacity="1"/>
<polyline clip-path="url(#clip3502)" style="stroke:#000000; stroke-width:4; stroke-opacity:1; fill:none" points="
  1030.16,1431.93 928.614,1413.45 1030.16,1514.47 1131.71,1519.03 1030.16,1431.93 
  "/>
<polygon clip-path="url(#clip3502)" points="
1131.71,1519.03 1030.16,1514.47 1131.71,1606.31 1233.26,1596.94 
  " fill="#ffffff" fill-rule="evenodd" fill-opacity="1"/>
<polyline clip-path="url(#clip3502)" style="stroke:#000000; stroke-width:4; stroke-opacity:1; fill:none" points="
  1131.71,1519.03 1030.16,1514.47 1131.71,1606.31 1233.26,1596.94 1131.71,1519.03 
  "/>
<polygon clip-path="url(#clip3502)" points="
1233.26,1596.94 1131.71,1606.31 1233.26,1688.96 1334.8,1665.68 
  " fill="#ffffff" fill-rule="evenodd" fill-opacity="1"/>
<polyline clip-path="url(#clip3502)" style="stroke:#000000; stroke-width:4; stroke-opacity:1; fill:none" points="
  1233.26,1596.94 1131.71,1606.31 1233.26,1688.96 1334.8,1665.68 1233.26,1596.94 
  "/>
<polygon clip-path="url(#clip3502)" points="
1334.8,1665.68 1233.26,1688.96 1334.8,1762.44 1436.35,1725.24 
  " fill="#ffffff" fill-rule="evenodd" fill-opacity="1"/>
<polyline clip-path="url(#clip3502)" style="stroke:#000000; stroke-width:4; stroke-opacity:1; fill:none" points="
  1334.8,1665.68 1233.26,1688.96 1334.8,1762.44 1436.35,1725.24 1334.8,1665.68 
  "/>
<polygon clip-path="url(#clip3502)" points="
420.879,770.634 319.332,653.758 420.879,814.603 522.426,917.559 
  " fill="#ffffff" fill-rule="evenodd" fill-opacity="1"/>
<polyline clip-path="url(#clip3502)" style="stroke:#000000; stroke-width:4; stroke-opacity:1; fill:none" points="
  420.879,770.634 319.332,653.758 420.879,814.603 522.426,917.559 420.879,770.634 
  "/>
<polygon clip-path="url(#clip3502)" points="
522.426,917.559 420.879,814.603 522.426,966.266 623.973,1055.3 
  " fill="#ffffff" fill-rule="evenodd" fill-opacity="1"/>
<polyline clip-path="url(#clip3502)" style="stroke:#000000; stroke-width:4; stroke-opacity:1; fill:none" points="
  522.426,917.559 420.879,814.603 522.426,966.266 623.973,1055.3 522.426,917.559 
  "/>
<polygon clip-path="url(#clip3502)" points="
623.973,1055.3 522.426,966.266 623.973,1108.75 725.52,1183.87 
  " fill="#ffffff" fill-rule="evenodd" fill-opacity="1"/>
<polyline clip-path="url(#clip3502)" style="stroke:#000000; stroke-width:4; stroke-opacity:1; fill:none" points="
  623.973,1055.3 522.426,966.266 623.973,1108.75 725.52,1183.87 623.973,1055.3 
  "/>
<polygon clip-path="url(#clip3502)" points="
725.52,1183.87 623.973,1108.75 725.52,1242.05 827.067,1303.25 
  " fill="#ffffff" fill-rule="evenodd" fill-opacity="1"/>
<polyline clip-path="url(#clip3502)" style="stroke:#000000; stroke-width:4; stroke-opacity:1; fill:none" points="
  725.52,1183.87 623.973,1108.75 725.52,1242.05 827.067,1303.25 725.52,1183.87 
  "/>
<polygon clip-path="url(#clip3502)" points="
827.067,1303.25 725.52,1242.05 827.067,1366.17 928.614,1413.45 
  " fill="#ffffff" fill-rule="evenodd" fill-opacity="1"/>
<polyline clip-path="url(#clip3502)" style="stroke:#000000; stroke-width:4; stroke-opacity:1; fill:none" points="
  827.067,1303.25 725.52,1242.05 827.067,1366.17 928.614,1413.45 827.067,1303.25 
  "/>
<polygon clip-path="url(#clip3502)" points="
928.614,1413.45 827.067,1366.17 928.614,1481.11 1030.16,1514.47 
  " fill="#ffffff" fill-rule="evenodd" fill-opacity="1"/>
<polyline clip-path="url(#clip3502)" style="stroke:#000000; stroke-width:4; stroke-opacity:1; fill:none" points="
  928.614,1413.45 827.067,1366.17 928.614,1481.11 1030.16,1514.47 928.614,1413.45 
  "/>
<polygon clip-path="url(#clip3502)" points="
1030.16,1514.47 928.614,1481.11 1030.16,1586.87 1131.71,1606.31 
  " fill="#ffffff" fill-rule="evenodd" fill-opacity="1"/>
<polyline clip-path="url(#clip3502)" style="stroke:#000000; stroke-width:4; stroke-opacity:1; fill:none" points="
  1030.16,1514.47 928.614,1481.11 1030.16,1586.87 1131.71,1606.31 1030.16,1514.47 
  "/>
<polygon clip-path="url(#clip3502)" points="
1131.71,1606.31 1030.16,1586.87 1131.71,1683.45 1233.26,1688.96 
  " fill="#ffffff" fill-rule="evenodd" fill-opacity="1"/>
<polyline clip-path="url(#clip3502)" style="stroke:#000000; stroke-width:4; stroke-opacity:1; fill:none" points="
  1131.71,1606.31 1030.16,1586.87 1131.71,1683.45 1233.26,1688.96 1131.71,1606.31 
  "/>
<polygon clip-path="url(#clip3502)" points="
1233.26,1688.96 1131.71,1683.45 1233.26,1770.85 1334.8,1762.44 
  " fill="#ffffff" fill-rule="evenodd" fill-opacity="1"/>
<polyline clip-path="url(#clip3502)" style="stroke:#000000; stroke-width:4; stroke-opacity:1; fill:none" points="
  1233.26,1688.96 1131.71,1683.45 1233.26,1770.85 1334.8,1762.44 1233.26,1688.96 
  "/>
</svg>
