<?xml version="1.0" encoding="utf-8"?>
<svg xmlns="http://www.w3.org/2000/svg" xmlns:xlink="http://www.w3.org/1999/xlink" width="600" height="500" viewBox="0 0 2400 2000">
<defs>
  <clipPath id="clip3100">
    <rect x="0" y="0" width="2400" height="2000"/>
  </clipPath>
</defs>
<polygon clip-path="url(#clip3100)" points="
0,2000 2400,2000 2400,0 0,0 
  " fill="#ffffff" fill-rule="evenodd" fill-opacity="1"/>
<defs>
  <clipPath id="clip3101">
    <rect x="480" y="0" width="1681" height="1681"/>
  </clipPath>
</defs>
<polygon clip-path="url(#clip3100)" points="
141.865,1899.86 2352.76,1899.86 2352.76,47.2441 141.865,47.2441 
  " fill="#ffffff" fill-rule="evenodd" fill-opacity="1"/>
<defs>
  <clipPath id="clip3102">
    <rect x="141" y="47" width="2212" height="1854"/>
  </clipPath>
</defs>
<polyline clip-path="url(#clip3102)" style="stroke:#000000; stroke-width:2; stroke-opacity:0.1; fill:none" points="
  190.369,1899.86 190.369,47.2441 
  "/>
<polyline clip-path="url(#clip3102)" style="stroke:#000000; stroke-width:2; stroke-opacity:0.1; fill:none" points="
  718.476,1899.86 718.476,47.2441 
  "/>
<polyline clip-path="url(#clip3102)" style="stroke:#000000; stroke-width:2; stroke-opacity:0.1; fill:none" points="
  1246.58,1899.86 1246.58,47.2441 
  "/>
<polyline clip-path="url(#clip3102)" style="stroke:#000000; stroke-width:2; stroke-opacity:0.1; fill:none" points="
  1774.69,1899.86 1774.69,47.2441 
  "/>
<polyline clip-path="url(#clip3102)" style="stroke:#000000; stroke-width:2; stroke-opacity:0.1; fill:none" points="
  2302.8,1899.86 2302.8,47.2441 
  "/>
<polyline clip-path="url(#clip3102)" style="stroke:#000000; stroke-width:2; stroke-opacity:0.1; fill:none" points="
  141.865,1809.66 2352.76,1809.66 
  "/>
<polyline clip-path="url(#clip3102)" style="stroke:#000000; stroke-width:2; stroke-opacity:0.1; fill:none" points="
  141.865,1275.72 2352.76,1275.72 
  "/>
<polyline clip-path="url(#clip3102)" style="stroke:#000000; stroke-width:2; stroke-opacity:0.1; fill:none" points="
  141.865,741.785 2352.76,741.785 
  "/>
<polyline clip-path="url(#clip3102)" style="stroke:#000000; stroke-width:2; stroke-opacity:0.1; fill:none" points="
  141.865,207.849 2352.76,207.849 
  "/>
<polyline clip-path="url(#clip3100)" style="stroke:#000000; stroke-width:4; stroke-opacity:1; fill:none" points="
  141.865,1899.86 2352.76,1899.86 
  "/>
<polyline clip-path="url(#clip3100)" style="stroke:#000000; stroke-width:4; stroke-opacity:1; fill:none" points="
  141.865,1899.86 141.865,47.2441 
  "/>
<polyline clip-path="url(#clip3100)" style="stroke:#000000; stroke-width:4; stroke-opacity:1; fill:none" points="
  190.369,1899.86 190.369,1872.07 
  "/>
<polyline clip-path="url(#clip3100)" style="stroke:#000000; stroke-width:4; stroke-opacity:1; fill:none" points="
  718.476,1899.86 718.476,1872.07 
  "/>
<polyline clip-path="url(#clip3100)" style="stroke:#000000; stroke-width:4; stroke-opacity:1; fill:none" points="
  1246.58,1899.86 1246.58,1872.07 
  "/>
<polyline clip-path="url(#clip3100)" style="stroke:#000000; stroke-width:4; stroke-opacity:1; fill:none" points="
  1774.69,1899.86 1774.69,1872.07 
  "/>
<polyline clip-path="url(#clip3100)" style="stroke:#000000; stroke-width:4; stroke-opacity:1; fill:none" points="
  2302.8,1899.86 2302.8,1872.07 
  "/>
<polyline clip-path="url(#clip3100)" style="stroke:#000000; stroke-width:4; stroke-opacity:1; fill:none" points="
  141.865,1809.66 175.028,1809.66 
  "/>
<polyline clip-path="url(#clip3100)" style="stroke:#000000; stroke-width:4; stroke-opacity:1; fill:none" points="
  141.865,1275.72 175.028,1275.72 
  "/>
<polyline clip-path="url(#clip3100)" style="stroke:#000000; stroke-width:4; stroke-opacity:1; fill:none" points="
  141.865,741.785 175.028,741.785 
  "/>
<polyline clip-path="url(#clip3100)" style="stroke:#000000; stroke-width:4; stroke-opacity:1; fill:none" points="
  141.865,207.849 175.028,207.849 
  "/>
<g clip-path="url(#clip3100)">
<text style="fill:#000000; fill-opacity:1; font-family:Arial,Helvetica Neue,Helvetica,sans-serif; font-size:48px; text-anchor:middle;" transform="rotate(0, 190.369, 1953.86)" x="190.369" y="1953.86">0.00</text>
</g>
<g clip-path="url(#clip3100)">
<text style="fill:#000000; fill-opacity:1; font-family:Arial,Helvetica Neue,Helvetica,sans-serif; font-size:48px; text-anchor:middle;" transform="rotate(0, 718.476, 1953.86)" x="718.476" y="1953.86">0.25</text>
</g>
<g clip-path="url(#clip3100)">
<text style="fill:#000000; fill-opacity:1; font-family:Arial,Helvetica Neue,Helvetica,sans-serif; font-size:48px; text-anchor:middle;" transform="rotate(0, 1246.58, 1953.86)" x="1246.58" y="1953.86">0.50</text>
</g>
<g clip-path="url(#clip3100)">
<text style="fill:#000000; fill-opacity:1; font-family:Arial,Helvetica Neue,Helvetica,sans-serif; font-size:48px; text-anchor:middle;" transform="rotate(0, 1774.69, 1953.86)" x="1774.69" y="1953.86">0.75</text>
</g>
<g clip-path="url(#clip3100)">
<text style="fill:#000000; fill-opacity:1; font-family:Arial,Helvetica Neue,Helvetica,sans-serif; font-size:48px; text-anchor:middle;" transform="rotate(0, 2302.8, 1953.86)" x="2302.8" y="1953.86">1.00</text>
</g>
<g clip-path="url(#clip3100)">
<text style="fill:#000000; fill-opacity:1; font-family:Arial,Helvetica Neue,Helvetica,sans-serif; font-size:48px; text-anchor:end;" transform="rotate(0, 117.865, 1827.16)" x="117.865" y="1827.16">-1</text>
</g>
<g clip-path="url(#clip3100)">
<text style="fill:#000000; fill-opacity:1; font-family:Arial,Helvetica Neue,Helvetica,sans-serif; font-size:48px; text-anchor:end;" transform="rotate(0, 117.865, 1293.22)" x="117.865" y="1293.22">0</text>
</g>
<g clip-path="url(#clip3100)">
<text style="fill:#000000; fill-opacity:1; font-family:Arial,Helvetica Neue,Helvetica,sans-serif; font-size:48px; text-anchor:end;" transform="rotate(0, 117.865, 759.285)" x="117.865" y="759.285">1</text>
</g>
<g clip-path="url(#clip3100)">
<text style="fill:#000000; fill-opacity:1; font-family:Arial,Helvetica Neue,Helvetica,sans-serif; font-size:48px; text-anchor:end;" transform="rotate(0, 117.865, 225.349)" x="117.865" y="225.349">2</text>
</g>
<circle clip-path="url(#clip3102)" style="fill:#000000; stroke:none; fill-opacity:1" cx="855.218" cy="878.144" r="18"/>
<circle clip-path="url(#clip3102)" style="fill:#009af9; stroke:none; fill-opacity:1" cx="855.218" cy="878.144" r="14"/>
<circle clip-path="url(#clip3102)" style="fill:#000000; stroke:none; fill-opacity:1" cx="539.178" cy="604.119" r="18"/>
<circle clip-path="url(#clip3102)" style="fill:#009af9; stroke:none; fill-opacity:1" cx="539.178" cy="604.119" r="14"/>
<circle clip-path="url(#clip3102)" style="fill:#000000; stroke:none; fill-opacity:1" cx="1290.14" cy="1120.54" r="18"/>
<circle clip-path="url(#clip3102)" style="fill:#009af9; stroke:none; fill-opacity:1" cx="1290.14" cy="1120.54" r="14"/>
<circle clip-path="url(#clip3102)" style="fill:#000000; stroke:none; fill-opacity:1" cx="337.825" cy="416.753" r="18"/>
<circle clip-path="url(#clip3102)" style="fill:#009af9; stroke:none; fill-opacity:1" cx="337.825" cy="416.753" r="14"/>
<circle clip-path="url(#clip3102)" style="fill:#000000; stroke:none; fill-opacity:1" cx="1523.85" cy="1160.2" r="18"/>
<circle clip-path="url(#clip3102)" style="fill:#009af9; stroke:none; fill-opacity:1" cx="1523.85" cy="1160.2" r="14"/>
<circle clip-path="url(#clip3102)" style="fill:#000000; stroke:none; fill-opacity:1" cx="1547.82" cy="1404.64" r="18"/>
<circle clip-path="url(#clip3102)" style="fill:#009af9; stroke:none; fill-opacity:1" cx="1547.82" cy="1404.64" r="14"/>
<circle clip-path="url(#clip3102)" style="fill:#000000; stroke:none; fill-opacity:1" cx="2251.54" cy="1847.43" r="18"/>
<circle clip-path="url(#clip3102)" style="fill:#009af9; stroke:none; fill-opacity:1" cx="2251.54" cy="1847.43" r="14"/>
<circle clip-path="url(#clip3102)" style="fill:#000000; stroke:none; fill-opacity:1" cx="1867.79" cy="1631.23" r="18"/>
<circle clip-path="url(#clip3102)" style="fill:#009af9; stroke:none; fill-opacity:1" cx="1867.79" cy="1631.23" r="14"/>
<circle clip-path="url(#clip3102)" style="fill:#000000; stroke:none; fill-opacity:1" cx="721.98" cy="499.851" r="18"/>
<circle clip-path="url(#clip3102)" style="fill:#009af9; stroke:none; fill-opacity:1" cx="721.98" cy="499.851" r="14"/>
<circle clip-path="url(#clip3102)" style="fill:#000000; stroke:none; fill-opacity:1" cx="973.216" cy="794.323" r="18"/>
<circle clip-path="url(#clip3102)" style="fill:#009af9; stroke:none; fill-opacity:1" cx="973.216" cy="794.323" r="14"/>
<circle clip-path="url(#clip3102)" style="fill:#000000; stroke:none; fill-opacity:1" cx="1898.11" cy="1504.02" r="18"/>
<circle clip-path="url(#clip3102)" style="fill:#009af9; stroke:none; fill-opacity:1" cx="1898.11" cy="1504.02" r="14"/>
<circle clip-path="url(#clip3102)" style="fill:#000000; stroke:none; fill-opacity:1" cx="417.777" cy="480.17" r="18"/>
<circle clip-path="url(#clip3102)" style="fill:#009af9; stroke:none; fill-opacity:1" cx="417.777" cy="480.17" r="14"/>
<circle clip-path="url(#clip3102)" style="fill:#000000; stroke:none; fill-opacity:1" cx="1333.57" cy="924.644" r="18"/>
<circle clip-path="url(#clip3102)" style="fill:#009af9; stroke:none; fill-opacity:1" cx="1333.57" cy="924.644" r="14"/>
<circle clip-path="url(#clip3102)" style="fill:#000000; stroke:none; fill-opacity:1" cx="795.51" cy="768.372" r="18"/>
<circle clip-path="url(#clip3102)" style="fill:#009af9; stroke:none; fill-opacity:1" cx="795.51" cy="768.372" r="14"/>
<circle clip-path="url(#clip3102)" style="fill:#000000; stroke:none; fill-opacity:1" cx="272.332" cy="307.41" r="18"/>
<circle clip-path="url(#clip3102)" style="fill:#009af9; stroke:none; fill-opacity:1" cx="272.332" cy="307.41" r="14"/>
<circle clip-path="url(#clip3102)" style="fill:#000000; stroke:none; fill-opacity:1" cx="1636.94" cy="1367.75" r="18"/>
<circle clip-path="url(#clip3102)" style="fill:#009af9; stroke:none; fill-opacity:1" cx="1636.94" cy="1367.75" r="14"/>
<circle clip-path="url(#clip3102)" style="fill:#000000; stroke:none; fill-opacity:1" cx="829.228" cy="573.974" r="18"/>
<circle clip-path="url(#clip3102)" style="fill:#009af9; stroke:none; fill-opacity:1" cx="829.228" cy="573.974" r="14"/>
<circle clip-path="url(#clip3102)" style="fill:#000000; stroke:none; fill-opacity:1" cx="1463.56" cy="1156.33" r="18"/>
<circle clip-path="url(#clip3102)" style="fill:#009af9; stroke:none; fill-opacity:1" cx="1463.56" cy="1156.33" r="14"/>
<circle clip-path="url(#clip3102)" style="fill:#000000; stroke:none; fill-opacity:1" cx="1507.99" cy="1047.11" r="18"/>
<circle clip-path="url(#clip3102)" style="fill:#009af9; stroke:none; fill-opacity:1" cx="1507.99" cy="1047.11" r="14"/>
<circle clip-path="url(#clip3102)" style="fill:#000000; stroke:none; fill-opacity:1" cx="1568.39" cy="1168.51" r="18"/>
<circle clip-path="url(#clip3102)" style="fill:#009af9; stroke:none; fill-opacity:1" cx="1568.39" cy="1168.51" r="14"/>
<circle clip-path="url(#clip3102)" style="fill:#000000; stroke:none; fill-opacity:1" cx="1425.1" cy="1222.54" r="18"/>
<circle clip-path="url(#clip3102)" style="fill:#009af9; stroke:none; fill-opacity:1" cx="1425.1" cy="1222.54" r="14"/>
<circle clip-path="url(#clip3102)" style="fill:#000000; stroke:none; fill-opacity:1" cx="2290.18" cy="1801.17" r="18"/>
<circle clip-path="url(#clip3102)" style="fill:#009af9; stroke:none; fill-opacity:1" cx="2290.18" cy="1801.17" r="14"/>
<circle clip-path="url(#clip3102)" style="fill:#000000; stroke:none; fill-opacity:1" cx="1385.62" cy="1074.8" r="18"/>
<circle clip-path="url(#clip3102)" style="fill:#009af9; stroke:none; fill-opacity:1" cx="1385.62" cy="1074.8" r="14"/>
<circle clip-path="url(#clip3102)" style="fill:#000000; stroke:none; fill-opacity:1" cx="1274.76" cy="1095.98" r="18"/>
<circle clip-path="url(#clip3102)" style="fill:#009af9; stroke:none; fill-opacity:1" cx="1274.76" cy="1095.98" r="14"/>
<circle clip-path="url(#clip3102)" style="fill:#000000; stroke:none; fill-opacity:1" cx="1224.09" cy="1137.63" r="18"/>
<circle clip-path="url(#clip3102)" style="fill:#009af9; stroke:none; fill-opacity:1" cx="1224.09" cy="1137.63" r="14"/>
<circle clip-path="url(#clip3102)" style="fill:#000000; stroke:none; fill-opacity:1" cx="2099.36" cy="1704.12" r="18"/>
<circle clip-path="url(#clip3102)" style="fill:#009af9; stroke:none; fill-opacity:1" cx="2099.36" cy="1704.12" r="14"/>
<circle clip-path="url(#clip3102)" style="fill:#000000; stroke:none; fill-opacity:1" cx="1519.74" cy="1085.15" r="18"/>
<circle clip-path="url(#clip3102)" style="fill:#009af9; stroke:none; fill-opacity:1" cx="1519.74" cy="1085.15" r="14"/>
<circle clip-path="url(#clip3102)" style="fill:#000000; stroke:none; fill-opacity:1" cx="2256.69" cy="1653.28" r="18"/>
<circle clip-path="url(#clip3102)" style="fill:#009af9; stroke:none; fill-opacity:1" cx="2256.69" cy="1653.28" r="14"/>
<circle clip-path="url(#clip3102)" style="fill:#000000; stroke:none; fill-opacity:1" cx="1916.43" cy="1490.36" r="18"/>
<circle clip-path="url(#clip3102)" style="fill:#009af9; stroke:none; fill-opacity:1" cx="1916.43" cy="1490.36" r="14"/>
<circle clip-path="url(#clip3102)" style="fill:#000000; stroke:none; fill-opacity:1" cx="772.115" cy="763.197" r="18"/>
<circle clip-path="url(#clip3102)" style="fill:#009af9; stroke:none; fill-opacity:1" cx="772.115" cy="763.197" r="14"/>
<circle clip-path="url(#clip3102)" style="fill:#000000; stroke:none; fill-opacity:1" cx="1517.08" cy="1364.91" r="18"/>
<circle clip-path="url(#clip3102)" style="fill:#009af9; stroke:none; fill-opacity:1" cx="1517.08" cy="1364.91" r="14"/>
<circle clip-path="url(#clip3102)" style="fill:#000000; stroke:none; fill-opacity:1" cx="1715.99" cy="1294.53" r="18"/>
<circle clip-path="url(#clip3102)" style="fill:#009af9; stroke:none; fill-opacity:1" cx="1715.99" cy="1294.53" r="14"/>
<circle clip-path="url(#clip3102)" style="fill:#000000; stroke:none; fill-opacity:1" cx="1672.46" cy="1223.88" r="18"/>
<circle clip-path="url(#clip3102)" style="fill:#009af9; stroke:none; fill-opacity:1" cx="1672.46" cy="1223.88" r="14"/>
<circle clip-path="url(#clip3102)" style="fill:#000000; stroke:none; fill-opacity:1" cx="537.91" cy="361.208" r="18"/>
<circle clip-path="url(#clip3102)" style="fill:#009af9; stroke:none; fill-opacity:1" cx="537.91" cy="361.208" r="14"/>
<circle clip-path="url(#clip3102)" style="fill:#000000; stroke:none; fill-opacity:1" cx="359.24" cy="285.436" r="18"/>
<circle clip-path="url(#clip3102)" style="fill:#009af9; stroke:none; fill-opacity:1" cx="359.24" cy="285.436" r="14"/>
<circle clip-path="url(#clip3102)" style="fill:#000000; stroke:none; fill-opacity:1" cx="525.657" cy="539.981" r="18"/>
<circle clip-path="url(#clip3102)" style="fill:#009af9; stroke:none; fill-opacity:1" cx="525.657" cy="539.981" r="14"/>
<circle clip-path="url(#clip3102)" style="fill:#000000; stroke:none; fill-opacity:1" cx="571.469" cy="475.14" r="18"/>
<circle clip-path="url(#clip3102)" style="fill:#009af9; stroke:none; fill-opacity:1" cx="571.469" cy="475.14" r="14"/>
<circle clip-path="url(#clip3102)" style="fill:#000000; stroke:none; fill-opacity:1" cx="617.51" cy="610.701" r="18"/>
<circle clip-path="url(#clip3102)" style="fill:#009af9; stroke:none; fill-opacity:1" cx="617.51" cy="610.701" r="14"/>
<circle clip-path="url(#clip3102)" style="fill:#000000; stroke:none; fill-opacity:1" cx="241.841" cy="297.39" r="18"/>
<circle clip-path="url(#clip3102)" style="fill:#009af9; stroke:none; fill-opacity:1" cx="241.841" cy="297.39" r="14"/>
<circle clip-path="url(#clip3102)" style="fill:#000000; stroke:none; fill-opacity:1" cx="712.828" cy="429.596" r="18"/>
<circle clip-path="url(#clip3102)" style="fill:#009af9; stroke:none; fill-opacity:1" cx="712.828" cy="429.596" r="14"/>
<circle clip-path="url(#clip3102)" style="fill:#000000; stroke:none; fill-opacity:1" cx="1177.47" cy="844.598" r="18"/>
<circle clip-path="url(#clip3102)" style="fill:#009af9; stroke:none; fill-opacity:1" cx="1177.47" cy="844.598" r="14"/>
<circle clip-path="url(#clip3102)" style="fill:#000000; stroke:none; fill-opacity:1" cx="308.889" cy="200.586" r="18"/>
<circle clip-path="url(#clip3102)" style="fill:#009af9; stroke:none; fill-opacity:1" cx="308.889" cy="200.586" r="14"/>
<circle clip-path="url(#clip3102)" style="fill:#000000; stroke:none; fill-opacity:1" cx="1927.86" cy="1797.55" r="18"/>
<circle clip-path="url(#clip3102)" style="fill:#009af9; stroke:none; fill-opacity:1" cx="1927.86" cy="1797.55" r="14"/>
<circle clip-path="url(#clip3102)" style="fill:#000000; stroke:none; fill-opacity:1" cx="233.427" cy="426.019" r="18"/>
<circle clip-path="url(#clip3102)" style="fill:#009af9; stroke:none; fill-opacity:1" cx="233.427" cy="426.019" r="14"/>
<circle clip-path="url(#clip3102)" style="fill:#000000; stroke:none; fill-opacity:1" cx="270.361" cy="161.25" r="18"/>
<circle clip-path="url(#clip3102)" style="fill:#009af9; stroke:none; fill-opacity:1" cx="270.361" cy="161.25" r="14"/>
<circle clip-path="url(#clip3102)" style="fill:#000000; stroke:none; fill-opacity:1" cx="1194.37" cy="1151.61" r="18"/>
<circle clip-path="url(#clip3102)" style="fill:#009af9; stroke:none; fill-opacity:1" cx="1194.37" cy="1151.61" r="14"/>
<circle clip-path="url(#clip3102)" style="fill:#000000; stroke:none; fill-opacity:1" cx="321.622" cy="99.6766" r="18"/>
<circle clip-path="url(#clip3102)" style="fill:#009af9; stroke:none; fill-opacity:1" cx="321.622" cy="99.6766" r="14"/>
<circle clip-path="url(#clip3102)" style="fill:#000000; stroke:none; fill-opacity:1" cx="1822.15" cy="1488.13" r="18"/>
<circle clip-path="url(#clip3102)" style="fill:#009af9; stroke:none; fill-opacity:1" cx="1822.15" cy="1488.13" r="14"/>
<circle clip-path="url(#clip3102)" style="fill:#000000; stroke:none; fill-opacity:1" cx="2252.06" cy="1593.84" r="18"/>
<circle clip-path="url(#clip3102)" style="fill:#009af9; stroke:none; fill-opacity:1" cx="2252.06" cy="1593.84" r="14"/>
<circle clip-path="url(#clip3102)" style="fill:#000000; stroke:none; fill-opacity:1" cx="1046.75" cy="635.048" r="18"/>
<circle clip-path="url(#clip3102)" style="fill:#009af9; stroke:none; fill-opacity:1" cx="1046.75" cy="635.048" r="14"/>
<circle clip-path="url(#clip3102)" style="fill:#000000; stroke:none; fill-opacity:1" cx="2030.27" cy="1455.68" r="18"/>
<circle clip-path="url(#clip3102)" style="fill:#009af9; stroke:none; fill-opacity:1" cx="2030.27" cy="1455.68" r="14"/>
<circle clip-path="url(#clip3102)" style="fill:#000000; stroke:none; fill-opacity:1" cx="1931.67" cy="1616.62" r="18"/>
<circle clip-path="url(#clip3102)" style="fill:#009af9; stroke:none; fill-opacity:1" cx="1931.67" cy="1616.62" r="14"/>
<circle clip-path="url(#clip3102)" style="fill:#000000; stroke:none; fill-opacity:1" cx="755.874" cy="624.487" r="18"/>
<circle clip-path="url(#clip3102)" style="fill:#009af9; stroke:none; fill-opacity:1" cx="755.874" cy="624.487" r="14"/>
<circle clip-path="url(#clip3102)" style="fill:#000000; stroke:none; fill-opacity:1" cx="2006.18" cy="1546.29" r="18"/>
<circle clip-path="url(#clip3102)" style="fill:#009af9; stroke:none; fill-opacity:1" cx="2006.18" cy="1546.29" r="14"/>
<circle clip-path="url(#clip3102)" style="fill:#000000; stroke:none; fill-opacity:1" cx="532.709" cy="511.922" r="18"/>
<circle clip-path="url(#clip3102)" style="fill:#009af9; stroke:none; fill-opacity:1" cx="532.709" cy="511.922" r="14"/>
<circle clip-path="url(#clip3102)" style="fill:#000000; stroke:none; fill-opacity:1" cx="1723.75" cy="1550.07" r="18"/>
<circle clip-path="url(#clip3102)" style="fill:#009af9; stroke:none; fill-opacity:1" cx="1723.75" cy="1550.07" r="14"/>
<circle clip-path="url(#clip3102)" style="fill:#000000; stroke:none; fill-opacity:1" cx="267.241" cy="347.793" r="18"/>
<circle clip-path="url(#clip3102)" style="fill:#009af9; stroke:none; fill-opacity:1" cx="267.241" cy="347.793" r="14"/>
<circle clip-path="url(#clip3102)" style="fill:#000000; stroke:none; fill-opacity:1" cx="933.842" cy="804.69" r="18"/>
<circle clip-path="url(#clip3102)" style="fill:#009af9; stroke:none; fill-opacity:1" cx="933.842" cy="804.69" r="14"/>
<circle clip-path="url(#clip3102)" style="fill:#000000; stroke:none; fill-opacity:1" cx="1912.52" cy="1277.67" r="18"/>
<circle clip-path="url(#clip3102)" style="fill:#009af9; stroke:none; fill-opacity:1" cx="1912.52" cy="1277.67" r="14"/>
<circle clip-path="url(#clip3102)" style="fill:#000000; stroke:none; fill-opacity:1" cx="2182.09" cy="1800.94" r="18"/>
<circle clip-path="url(#clip3102)" style="fill:#009af9; stroke:none; fill-opacity:1" cx="2182.09" cy="1800.94" r="14"/>
<circle clip-path="url(#clip3102)" style="fill:#000000; stroke:none; fill-opacity:1" cx="600.221" cy="462.406" r="18"/>
<circle clip-path="url(#clip3102)" style="fill:#009af9; stroke:none; fill-opacity:1" cx="600.221" cy="462.406" r="14"/>
<circle clip-path="url(#clip3102)" style="fill:#000000; stroke:none; fill-opacity:1" cx="1135" cy="962.978" r="18"/>
<circle clip-path="url(#clip3102)" style="fill:#009af9; stroke:none; fill-opacity:1" cx="1135" cy="962.978" r="14"/>
<circle clip-path="url(#clip3102)" style="fill:#000000; stroke:none; fill-opacity:1" cx="2044.82" cy="1635.47" r="18"/>
<circle clip-path="url(#clip3102)" style="fill:#009af9; stroke:none; fill-opacity:1" cx="2044.82" cy="1635.47" r="14"/>
<circle clip-path="url(#clip3102)" style="fill:#000000; stroke:none; fill-opacity:1" cx="1190.63" cy="976.859" r="18"/>
<circle clip-path="url(#clip3102)" style="fill:#009af9; stroke:none; fill-opacity:1" cx="1190.63" cy="976.859" r="14"/>
<circle clip-path="url(#clip3102)" style="fill:#000000; stroke:none; fill-opacity:1" cx="1121.01" cy="816.572" r="18"/>
<circle clip-path="url(#clip3102)" style="fill:#009af9; stroke:none; fill-opacity:1" cx="1121.01" cy="816.572" r="14"/>
<circle clip-path="url(#clip3102)" style="fill:#000000; stroke:none; fill-opacity:1" cx="1834.67" cy="1293.58" r="18"/>
<circle clip-path="url(#clip3102)" style="fill:#009af9; stroke:none; fill-opacity:1" cx="1834.67" cy="1293.58" r="14"/>
<circle clip-path="url(#clip3102)" style="fill:#000000; stroke:none; fill-opacity:1" cx="516.146" cy="584.391" r="18"/>
<circle clip-path="url(#clip3102)" style="fill:#009af9; stroke:none; fill-opacity:1" cx="516.146" cy="584.391" r="14"/>
<circle clip-path="url(#clip3102)" style="fill:#000000; stroke:none; fill-opacity:1" cx="1432.84" cy="1026.89" r="18"/>
<circle clip-path="url(#clip3102)" style="fill:#009af9; stroke:none; fill-opacity:1" cx="1432.84" cy="1026.89" r="14"/>
<circle clip-path="url(#clip3102)" style="fill:#000000; stroke:none; fill-opacity:1" cx="382" cy="380.506" r="18"/>
<circle clip-path="url(#clip3102)" style="fill:#009af9; stroke:none; fill-opacity:1" cx="382" cy="380.506" r="14"/>
<circle clip-path="url(#clip3102)" style="fill:#000000; stroke:none; fill-opacity:1" cx="1231.64" cy="950.761" r="18"/>
<circle clip-path="url(#clip3102)" style="fill:#009af9; stroke:none; fill-opacity:1" cx="1231.64" cy="950.761" r="14"/>
<circle clip-path="url(#clip3102)" style="fill:#000000; stroke:none; fill-opacity:1" cx="1963.11" cy="1240.08" r="18"/>
<circle clip-path="url(#clip3102)" style="fill:#009af9; stroke:none; fill-opacity:1" cx="1963.11" cy="1240.08" r="14"/>
<circle clip-path="url(#clip3102)" style="fill:#000000; stroke:none; fill-opacity:1" cx="1467.81" cy="1188.83" r="18"/>
<circle clip-path="url(#clip3102)" style="fill:#009af9; stroke:none; fill-opacity:1" cx="1467.81" cy="1188.83" r="14"/>
<circle clip-path="url(#clip3102)" style="fill:#000000; stroke:none; fill-opacity:1" cx="743.136" cy="674.151" r="18"/>
<circle clip-path="url(#clip3102)" style="fill:#009af9; stroke:none; fill-opacity:1" cx="743.136" cy="674.151" r="14"/>
<circle clip-path="url(#clip3102)" style="fill:#000000; stroke:none; fill-opacity:1" cx="1768.42" cy="1344.36" r="18"/>
<circle clip-path="url(#clip3102)" style="fill:#009af9; stroke:none; fill-opacity:1" cx="1768.42" cy="1344.36" r="14"/>
<circle clip-path="url(#clip3102)" style="fill:#000000; stroke:none; fill-opacity:1" cx="1167.77" cy="974.806" r="18"/>
<circle clip-path="url(#clip3102)" style="fill:#009af9; stroke:none; fill-opacity:1" cx="1167.77" cy="974.806" r="14"/>
<circle clip-path="url(#clip3102)" style="fill:#000000; stroke:none; fill-opacity:1" cx="701.554" cy="655.149" r="18"/>
<circle clip-path="url(#clip3102)" style="fill:#009af9; stroke:none; fill-opacity:1" cx="701.554" cy="655.149" r="14"/>
<circle clip-path="url(#clip3102)" style="fill:#000000; stroke:none; fill-opacity:1" cx="1822.15" cy="1354.29" r="18"/>
<circle clip-path="url(#clip3102)" style="fill:#009af9; stroke:none; fill-opacity:1" cx="1822.15" cy="1354.29" r="14"/>
<circle clip-path="url(#clip3102)" style="fill:#000000; stroke:none; fill-opacity:1" cx="2164.83" cy="1832.65" r="18"/>
<circle clip-path="url(#clip3102)" style="fill:#009af9; stroke:none; fill-opacity:1" cx="2164.83" cy="1832.65" r="14"/>
<circle clip-path="url(#clip3102)" style="fill:#000000; stroke:none; fill-opacity:1" cx="2144.77" cy="1718.28" r="18"/>
<circle clip-path="url(#clip3102)" style="fill:#009af9; stroke:none; fill-opacity:1" cx="2144.77" cy="1718.28" r="14"/>
<circle clip-path="url(#clip3102)" style="fill:#000000; stroke:none; fill-opacity:1" cx="434.363" cy="431.893" r="18"/>
<circle clip-path="url(#clip3102)" style="fill:#009af9; stroke:none; fill-opacity:1" cx="434.363" cy="431.893" r="14"/>
<circle clip-path="url(#clip3102)" style="fill:#000000; stroke:none; fill-opacity:1" cx="990.266" cy="869.576" r="18"/>
<circle clip-path="url(#clip3102)" style="fill:#009af9; stroke:none; fill-opacity:1" cx="990.266" cy="869.576" r="14"/>
<circle clip-path="url(#clip3102)" style="fill:#000000; stroke:none; fill-opacity:1" cx="1703.99" cy="1438.38" r="18"/>
<circle clip-path="url(#clip3102)" style="fill:#009af9; stroke:none; fill-opacity:1" cx="1703.99" cy="1438.38" r="14"/>
<circle clip-path="url(#clip3102)" style="fill:#000000; stroke:none; fill-opacity:1" cx="655.417" cy="567.463" r="18"/>
<circle clip-path="url(#clip3102)" style="fill:#009af9; stroke:none; fill-opacity:1" cx="655.417" cy="567.463" r="14"/>
<circle clip-path="url(#clip3102)" style="fill:#000000; stroke:none; fill-opacity:1" cx="204.437" cy="212.102" r="18"/>
<circle clip-path="url(#clip3102)" style="fill:#009af9; stroke:none; fill-opacity:1" cx="204.437" cy="212.102" r="14"/>
<circle clip-path="url(#clip3102)" style="fill:#000000; stroke:none; fill-opacity:1" cx="1185.25" cy="1097.16" r="18"/>
<circle clip-path="url(#clip3102)" style="fill:#009af9; stroke:none; fill-opacity:1" cx="1185.25" cy="1097.16" r="14"/>
<circle clip-path="url(#clip3102)" style="fill:#000000; stroke:none; fill-opacity:1" cx="1194.25" cy="1046.74" r="18"/>
<circle clip-path="url(#clip3102)" style="fill:#009af9; stroke:none; fill-opacity:1" cx="1194.25" cy="1046.74" r="14"/>
<circle clip-path="url(#clip3102)" style="fill:#000000; stroke:none; fill-opacity:1" cx="1952.57" cy="1413.65" r="18"/>
<circle clip-path="url(#clip3102)" style="fill:#009af9; stroke:none; fill-opacity:1" cx="1952.57" cy="1413.65" r="14"/>
<circle clip-path="url(#clip3102)" style="fill:#000000; stroke:none; fill-opacity:1" cx="1306.75" cy="1027.13" r="18"/>
<circle clip-path="url(#clip3102)" style="fill:#009af9; stroke:none; fill-opacity:1" cx="1306.75" cy="1027.13" r="14"/>
<circle clip-path="url(#clip3102)" style="fill:#000000; stroke:none; fill-opacity:1" cx="2147.78" cy="1718.86" r="18"/>
<circle clip-path="url(#clip3102)" style="fill:#009af9; stroke:none; fill-opacity:1" cx="2147.78" cy="1718.86" r="14"/>
<circle clip-path="url(#clip3102)" style="fill:#000000; stroke:none; fill-opacity:1" cx="1429.66" cy="924.091" r="18"/>
<circle clip-path="url(#clip3102)" style="fill:#009af9; stroke:none; fill-opacity:1" cx="1429.66" cy="924.091" r="14"/>
<circle clip-path="url(#clip3102)" style="fill:#000000; stroke:none; fill-opacity:1" cx="875.245" cy="718.6" r="18"/>
<circle clip-path="url(#clip3102)" style="fill:#009af9; stroke:none; fill-opacity:1" cx="875.245" cy="718.6" r="14"/>
<circle clip-path="url(#clip3102)" style="fill:#000000; stroke:none; fill-opacity:1" cx="390.335" cy="328.011" r="18"/>
<circle clip-path="url(#clip3102)" style="fill:#009af9; stroke:none; fill-opacity:1" cx="390.335" cy="328.011" r="14"/>
<circle clip-path="url(#clip3102)" style="fill:#000000; stroke:none; fill-opacity:1" cx="482.256" cy="407.906" r="18"/>
<circle clip-path="url(#clip3102)" style="fill:#009af9; stroke:none; fill-opacity:1" cx="482.256" cy="407.906" r="14"/>
<circle clip-path="url(#clip3102)" style="fill:#000000; stroke:none; fill-opacity:1" cx="1502.48" cy="1290.07" r="18"/>
<circle clip-path="url(#clip3102)" style="fill:#009af9; stroke:none; fill-opacity:1" cx="1502.48" cy="1290.07" r="14"/>
<circle clip-path="url(#clip3102)" style="fill:#000000; stroke:none; fill-opacity:1" cx="1004.04" cy="881.136" r="18"/>
<circle clip-path="url(#clip3102)" style="fill:#009af9; stroke:none; fill-opacity:1" cx="1004.04" cy="881.136" r="14"/>
<circle clip-path="url(#clip3102)" style="fill:#000000; stroke:none; fill-opacity:1" cx="216.859" cy="222.713" r="18"/>
<circle clip-path="url(#clip3102)" style="fill:#009af9; stroke:none; fill-opacity:1" cx="216.859" cy="222.713" r="14"/>
<circle clip-path="url(#clip3102)" style="fill:#000000; stroke:none; fill-opacity:1" cx="1636.19" cy="1203.56" r="18"/>
<circle clip-path="url(#clip3102)" style="fill:#009af9; stroke:none; fill-opacity:1" cx="1636.19" cy="1203.56" r="14"/>
<circle clip-path="url(#clip3102)" style="fill:#000000; stroke:none; fill-opacity:1" cx="683.273" cy="456.015" r="18"/>
<circle clip-path="url(#clip3102)" style="fill:#009af9; stroke:none; fill-opacity:1" cx="683.273" cy="456.015" r="14"/>
<circle clip-path="url(#clip3102)" style="fill:#000000; stroke:none; fill-opacity:1" cx="917.095" cy="904.777" r="18"/>
<circle clip-path="url(#clip3102)" style="fill:#009af9; stroke:none; fill-opacity:1" cx="917.095" cy="904.777" r="14"/>
<circle clip-path="url(#clip3102)" style="fill:#000000; stroke:none; fill-opacity:1" cx="1697.51" cy="1401.08" r="18"/>
<circle clip-path="url(#clip3102)" style="fill:#009af9; stroke:none; fill-opacity:1" cx="1697.51" cy="1401.08" r="14"/>
<polygon clip-path="url(#clip3100)" points="
1947.09,251.724 2280.76,251.724 2280.76,130.764 1947.09,130.764 
  " fill="#ffffff" fill-rule="evenodd" fill-opacity="1"/>
<polyline clip-path="url(#clip3100)" style="stroke:#000000; stroke-width:4; stroke-opacity:1; fill:none" points="
  1947.09,251.724 2280.76,251.724 2280.76,130.764 1947.09,130.764 1947.09,251.724 
  "/>
<circle clip-path="url(#clip3100)" style="fill:#000000; stroke:none; fill-opacity:1" cx="2055.09" cy="191.244" r="25"/>
<circle clip-path="url(#clip3100)" style="fill:#009af9; stroke:none; fill-opacity:1" cx="2055.09" cy="191.244" r="21"/>
<g clip-path="url(#clip3100)">
<text style="fill:#000000; fill-opacity:1; font-family:Arial,Helvetica Neue,Helvetica,sans-serif; font-size:48px; text-anchor:start;" transform="rotate(0, 2139.09, 208.744)" x="2139.09" y="208.744">data</text>
</g>
</svg>
