<?xml version="1.0" encoding="utf-8"?>
<svg xmlns="http://www.w3.org/2000/svg" xmlns:xlink="http://www.w3.org/1999/xlink" width="600" height="400" viewBox="0 0 2400 1600">
<defs>
  <clipPath id="clip6300">
    <rect x="0" y="0" width="2400" height="1600"/>
  </clipPath>
</defs>
<polygon clip-path="url(#clip6300)" points="
0,1600 2400,1600 2400,0 0,0 
  " fill="#ffffff" fill-rule="evenodd" fill-opacity="1"/>
<defs>
  <clipPath id="clip6301">
    <rect x="480" y="0" width="1681" height="1600"/>
  </clipPath>
</defs>
<polygon clip-path="url(#clip6300)" points="
153.898,1487.47 2352.76,1487.47 2352.76,47.2441 153.898,47.2441 
  " fill="#ffffff" fill-rule="evenodd" fill-opacity="1"/>
<defs>
  <clipPath id="clip6302">
    <rect x="153" y="47" width="2200" height="1441"/>
  </clipPath>
</defs>
<polyline clip-path="url(#clip6302)" style="stroke:#000000; stroke-width:2; stroke-opacity:0.1; fill:none" points="
  174.642,1487.47 174.642,47.2441 
  "/>
<polyline clip-path="url(#clip6302)" style="stroke:#000000; stroke-width:2; stroke-opacity:0.1; fill:none" points="
  589.521,1487.47 589.521,47.2441 
  "/>
<polyline clip-path="url(#clip6302)" style="stroke:#000000; stroke-width:2; stroke-opacity:0.1; fill:none" points="
  1004.4,1487.47 1004.4,47.2441 
  "/>
<polyline clip-path="url(#clip6302)" style="stroke:#000000; stroke-width:2; stroke-opacity:0.1; fill:none" points="
  1419.28,1487.47 1419.28,47.2441 
  "/>
<polyline clip-path="url(#clip6302)" style="stroke:#000000; stroke-width:2; stroke-opacity:0.1; fill:none" points="
  1834.16,1487.47 1834.16,47.2441 
  "/>
<polyline clip-path="url(#clip6302)" style="stroke:#000000; stroke-width:2; stroke-opacity:0.1; fill:none" points="
  2249.04,1487.47 2249.04,47.2441 
  "/>
<polyline clip-path="url(#clip6302)" style="stroke:#000000; stroke-width:2; stroke-opacity:0.1; fill:none" points="
  153.898,1487.47 2352.76,1487.47 
  "/>
<polyline clip-path="url(#clip6302)" style="stroke:#000000; stroke-width:2; stroke-opacity:0.1; fill:none" points="
  153.898,1007.4 2352.76,1007.4 
  "/>
<polyline clip-path="url(#clip6302)" style="stroke:#000000; stroke-width:2; stroke-opacity:0.1; fill:none" points="
  153.898,527.321 2352.76,527.321 
  "/>
<polyline clip-path="url(#clip6302)" style="stroke:#000000; stroke-width:2; stroke-opacity:0.1; fill:none" points="
  153.898,47.2441 2352.76,47.2441 
  "/>
<polyline clip-path="url(#clip6300)" style="stroke:#000000; stroke-width:4; stroke-opacity:1; fill:none" points="
  153.898,1487.47 2352.76,1487.47 
  "/>
<polyline clip-path="url(#clip6300)" style="stroke:#000000; stroke-width:4; stroke-opacity:1; fill:none" points="
  153.898,1487.47 153.898,47.2441 
  "/>
<polyline clip-path="url(#clip6300)" style="stroke:#000000; stroke-width:4; stroke-opacity:1; fill:none" points="
  174.642,1487.47 174.642,1465.87 
  "/>
<polyline clip-path="url(#clip6300)" style="stroke:#000000; stroke-width:4; stroke-opacity:1; fill:none" points="
  589.521,1487.47 589.521,1465.87 
  "/>
<polyline clip-path="url(#clip6300)" style="stroke:#000000; stroke-width:4; stroke-opacity:1; fill:none" points="
  1004.4,1487.47 1004.4,1465.87 
  "/>
<polyline clip-path="url(#clip6300)" style="stroke:#000000; stroke-width:4; stroke-opacity:1; fill:none" points="
  1419.28,1487.47 1419.28,1465.87 
  "/>
<polyline clip-path="url(#clip6300)" style="stroke:#000000; stroke-width:4; stroke-opacity:1; fill:none" points="
  1834.16,1487.47 1834.16,1465.87 
  "/>
<polyline clip-path="url(#clip6300)" style="stroke:#000000; stroke-width:4; stroke-opacity:1; fill:none" points="
  2249.04,1487.47 2249.04,1465.87 
  "/>
<polyline clip-path="url(#clip6300)" style="stroke:#000000; stroke-width:4; stroke-opacity:1; fill:none" points="
  153.898,1487.47 186.881,1487.47 
  "/>
<polyline clip-path="url(#clip6300)" style="stroke:#000000; stroke-width:4; stroke-opacity:1; fill:none" points="
  153.898,1007.4 186.881,1007.4 
  "/>
<polyline clip-path="url(#clip6300)" style="stroke:#000000; stroke-width:4; stroke-opacity:1; fill:none" points="
  153.898,527.321 186.881,527.321 
  "/>
<polyline clip-path="url(#clip6300)" style="stroke:#000000; stroke-width:4; stroke-opacity:1; fill:none" points="
  153.898,47.2441 186.881,47.2441 
  "/>
<g clip-path="url(#clip6300)">
<text style="fill:#000000; fill-opacity:1; font-family:Arial,Helvetica Neue,Helvetica,sans-serif; font-size:48px; text-anchor:middle;" transform="rotate(0, 174.642, 1541.47)" x="174.642" y="1541.47">0</text>
</g>
<g clip-path="url(#clip6300)">
<text style="fill:#000000; fill-opacity:1; font-family:Arial,Helvetica Neue,Helvetica,sans-serif; font-size:48px; text-anchor:middle;" transform="rotate(0, 589.521, 1541.47)" x="589.521" y="1541.47">10</text>
</g>
<g clip-path="url(#clip6300)">
<text style="fill:#000000; fill-opacity:1; font-family:Arial,Helvetica Neue,Helvetica,sans-serif; font-size:48px; text-anchor:middle;" transform="rotate(0, 1004.4, 1541.47)" x="1004.4" y="1541.47">20</text>
</g>
<g clip-path="url(#clip6300)">
<text style="fill:#000000; fill-opacity:1; font-family:Arial,Helvetica Neue,Helvetica,sans-serif; font-size:48px; text-anchor:middle;" transform="rotate(0, 1419.28, 1541.47)" x="1419.28" y="1541.47">30</text>
</g>
<g clip-path="url(#clip6300)">
<text style="fill:#000000; fill-opacity:1; font-family:Arial,Helvetica Neue,Helvetica,sans-serif; font-size:48px; text-anchor:middle;" transform="rotate(0, 1834.16, 1541.47)" x="1834.16" y="1541.47">40</text>
</g>
<g clip-path="url(#clip6300)">
<text style="fill:#000000; fill-opacity:1; font-family:Arial,Helvetica Neue,Helvetica,sans-serif; font-size:48px; text-anchor:middle;" transform="rotate(0, 2249.04, 1541.47)" x="2249.04" y="1541.47">50</text>
</g>
<g clip-path="url(#clip6300)">
<text style="fill:#000000; fill-opacity:1; font-family:Arial,Helvetica Neue,Helvetica,sans-serif; font-size:48px; text-anchor:end;" transform="rotate(0, 129.898, 1504.97)" x="129.898" y="1504.97">0.0</text>
</g>
<g clip-path="url(#clip6300)">
<text style="fill:#000000; fill-opacity:1; font-family:Arial,Helvetica Neue,Helvetica,sans-serif; font-size:48px; text-anchor:end;" transform="rotate(0, 129.898, 1024.9)" x="129.898" y="1024.9">0.5</text>
</g>
<g clip-path="url(#clip6300)">
<text style="fill:#000000; fill-opacity:1; font-family:Arial,Helvetica Neue,Helvetica,sans-serif; font-size:48px; text-anchor:end;" transform="rotate(0, 129.898, 544.821)" x="129.898" y="544.821">1.0</text>
</g>
<g clip-path="url(#clip6300)">
<text style="fill:#000000; fill-opacity:1; font-family:Arial,Helvetica Neue,Helvetica,sans-serif; font-size:48px; text-anchor:end;" transform="rotate(0, 129.898, 64.7441)" x="129.898" y="64.7441">1.5</text>
</g>
<polyline clip-path="url(#clip6302)" style="stroke:#009af9; stroke-width:4; stroke-opacity:1; fill:none" points="
  216.13,-477.487 257.618,866.113 299.106,1078.93 340.593,1146.04 382.081,1182.38 423.569,1204.12 465.057,1222.24 506.545,1237.13 548.033,1250.26 589.521,1262.17 
  631.009,1273 672.497,1282.91 713.984,1291.93 755.472,1300.1 796.96,1307.54 838.448,1314.31 879.936,1320.51 921.424,1326.24 962.912,1331.55 1004.4,1336.48 
  1045.89,1341.05 1087.38,1345.34 1128.86,1349.38 1170.35,1353.19 1211.84,1356.79 1253.33,1360.22 1294.81,1363.52 1336.3,1366.74 1377.79,1369.86 1419.28,1372.91 
  1460.77,1375.89 1502.25,1378.76 1543.74,1381.53 1585.23,1384.24 1626.72,1386.88 1668.21,1389.45 1709.69,1391.96 1751.18,1394.15 1792.67,1396.53 1834.16,1398.61 
  1875.65,1400.86 1917.13,1403.06 1958.62,1405.2 2000.11,1407.3 2041.6,1409.38 2083.08,1411.4 2124.57,1413.37 2166.06,1415.31 2207.55,1417.24 2249.04,1419.13 
  2290.52,1420.98 
  "/>
<polyline clip-path="url(#clip6302)" style="stroke:#e26f46; stroke-width:4; stroke-opacity:1; fill:none" points="
  216.13,-467.359 257.618,909.05 299.106,1115.44 340.593,1174.27 382.081,1203.73 423.569,1221.26 465.057,1236.62 506.545,1249.28 548.033,1259.64 589.521,1268.63 
  631.009,1276.9 672.497,1284.31 713.984,1290.89 755.472,1296.68 796.96,1301.92 838.448,1306.69 879.936,1310.84 921.424,1314.58 962.912,1317.87 1004.4,1320.92 
  1045.89,1323.67 1087.38,1326.17 1128.86,1328.37 1170.35,1330.33 1211.84,1332 1253.33,1333.51 1294.81,1334.85 1336.3,1336.08 1377.79,1337.17 1419.28,1338.13 
  1460.77,1339.03 1502.25,1339.91 1543.74,1340.74 1585.23,1341.58 1626.72,1342.4 1668.21,1343.17 1709.69,1343.9 1751.18,1344.43 1792.67,1344.88 1834.16,1345.24 
  1875.65,1345.69 1917.13,1346.01 1958.62,1346.31 2000.11,1346.62 2041.6,1346.84 2083.08,1347.12 2124.57,1347.34 2166.06,1347.47 2207.55,1347.62 2249.04,1347.72 
  2290.52,1347.72 
  "/>
<polygon clip-path="url(#clip6300)" points="
1947.14,312.204 2280.76,312.204 2280.76,130.764 1947.14,130.764 
  " fill="#ffffff" fill-rule="evenodd" fill-opacity="1"/>
<polyline clip-path="url(#clip6300)" style="stroke:#000000; stroke-width:4; stroke-opacity:1; fill:none" points="
  1947.14,312.204 2280.76,312.204 2280.76,130.764 1947.14,130.764 1947.14,312.204 
  "/>
<polyline clip-path="url(#clip6300)" style="stroke:#009af9; stroke-width:4; stroke-opacity:1; fill:none" points="
  1971.14,191.244 2115.14,191.244 
  "/>
<g clip-path="url(#clip6300)">
<text style="fill:#000000; fill-opacity:1; font-family:Arial,Helvetica Neue,Helvetica,sans-serif; font-size:48px; text-anchor:start;" transform="rotate(0, 2139.14, 208.744)" x="2139.14" y="208.744">train</text>
</g>
<polyline clip-path="url(#clip6300)" style="stroke:#e26f46; stroke-width:4; stroke-opacity:1; fill:none" points="
  1971.14,251.724 2115.14,251.724 
  "/>
<g clip-path="url(#clip6300)">
<text style="fill:#000000; fill-opacity:1; font-family:Arial,Helvetica Neue,Helvetica,sans-serif; font-size:48px; text-anchor:start;" transform="rotate(0, 2139.14, 269.224)" x="2139.14" y="269.224">test</text>
</g>
</svg>
